<?xml version="1.0" encoding="utf-8" standalone="no"?>
<!DOCTYPE svg PUBLIC "-//W3C//DTD SVG 1.1//EN"
  "http://www.w3.org/Graphics/SVG/1.1/DTD/svg11.dtd">
<!-- Created with matplotlib (https://matplotlib.org/) -->
<svg height="345.6pt" version="1.1" viewBox="0 0 460.8 345.6" width="460.8pt" xmlns="http://www.w3.org/2000/svg" xmlns:xlink="http://www.w3.org/1999/xlink">
 <metadata>
  <rdf:RDF xmlns:cc="http://creativecommons.org/ns#" xmlns:dc="http://purl.org/dc/elements/1.1/" xmlns:rdf="http://www.w3.org/1999/02/22-rdf-syntax-ns#">
   <cc:Work>
    <dc:type rdf:resource="http://purl.org/dc/dcmitype/StillImage"/>
    <dc:date>2021-04-02T13:59:51.584203</dc:date>
    <dc:format>image/svg+xml</dc:format>
    <dc:creator>
     <cc:Agent>
      <dc:title>Matplotlib v3.3.1, https://matplotlib.org/</dc:title>
     </cc:Agent>
    </dc:creator>
   </cc:Work>
  </rdf:RDF>
 </metadata>
 <defs>
  <style type="text/css">*{stroke-linecap:butt;stroke-linejoin:round;}</style>
 </defs>
 <g id="figure_1">
  <g id="patch_1">
   <path d="M 0 345.6 
L 460.8 345.6 
L 460.8 0 
L 0 0 
z
" style="fill:#ffffff;"/>
  </g>
  <g id="axes_1">
   <g id="patch_2">
    <path d="M 57.6 307.584 
L 414.72 307.584 
L 414.72 41.472 
L 57.6 41.472 
z
" style="fill:#ffffff;"/>
   </g>
   <g id="matplotlib.axis_1">
    <g id="xtick_1">
     <g id="line2d_1">
      <path clip-path="url(#pf53134d72d)" d="M 57.6 307.584 
L 57.6 41.472 
" style="fill:none;stroke:#b0b0b0;stroke-linecap:square;stroke-width:0.8;"/>
     </g>
     <g id="line2d_2">
      <defs>
       <path d="M 0 0 
L 0 3.5 
" id="mfa75baf3d9" style="stroke:#000000;stroke-width:0.8;"/>
      </defs>
      <g>
       <use style="stroke:#000000;stroke-width:0.8;" x="57.6" xlink:href="#mfa75baf3d9" y="307.584"/>
      </g>
     </g>
     <g id="text_1">
      <!-- 0 -->
      <g transform="translate(54.41875 322.182437)scale(0.1 -0.1)">
       <defs>
        <path d="M 31.78125 66.40625 
Q 24.171875 66.40625 20.328125 58.90625 
Q 16.5 51.421875 16.5 36.375 
Q 16.5 21.390625 20.328125 13.890625 
Q 24.171875 6.390625 31.78125 6.390625 
Q 39.453125 6.390625 43.28125 13.890625 
Q 47.125 21.390625 47.125 36.375 
Q 47.125 51.421875 43.28125 58.90625 
Q 39.453125 66.40625 31.78125 66.40625 
z
M 31.78125 74.21875 
Q 44.046875 74.21875 50.515625 64.515625 
Q 56.984375 54.828125 56.984375 36.375 
Q 56.984375 17.96875 50.515625 8.265625 
Q 44.046875 -1.421875 31.78125 -1.421875 
Q 19.53125 -1.421875 13.0625 8.265625 
Q 6.59375 17.96875 6.59375 36.375 
Q 6.59375 54.828125 13.0625 64.515625 
Q 19.53125 74.21875 31.78125 74.21875 
z
" id="DejaVuSans-48"/>
       </defs>
       <use xlink:href="#DejaVuSans-48"/>
      </g>
     </g>
    </g>
    <g id="xtick_2">
     <g id="line2d_3">
      <path clip-path="url(#pf53134d72d)" d="M 102.24 307.584 
L 102.24 41.472 
" style="fill:none;stroke:#b0b0b0;stroke-linecap:square;stroke-width:0.8;"/>
     </g>
     <g id="line2d_4">
      <g>
       <use style="stroke:#000000;stroke-width:0.8;" x="102.24" xlink:href="#mfa75baf3d9" y="307.584"/>
      </g>
     </g>
     <g id="text_2">
      <!-- 250 -->
      <g transform="translate(92.69625 322.182437)scale(0.1 -0.1)">
       <defs>
        <path d="M 19.1875 8.296875 
L 53.609375 8.296875 
L 53.609375 0 
L 7.328125 0 
L 7.328125 8.296875 
Q 12.9375 14.109375 22.625 23.890625 
Q 32.328125 33.6875 34.8125 36.53125 
Q 39.546875 41.84375 41.421875 45.53125 
Q 43.3125 49.21875 43.3125 52.78125 
Q 43.3125 58.59375 39.234375 62.25 
Q 35.15625 65.921875 28.609375 65.921875 
Q 23.96875 65.921875 18.8125 64.3125 
Q 13.671875 62.703125 7.8125 59.421875 
L 7.8125 69.390625 
Q 13.765625 71.78125 18.9375 73 
Q 24.125 74.21875 28.421875 74.21875 
Q 39.75 74.21875 46.484375 68.546875 
Q 53.21875 62.890625 53.21875 53.421875 
Q 53.21875 48.921875 51.53125 44.890625 
Q 49.859375 40.875 45.40625 35.40625 
Q 44.1875 33.984375 37.640625 27.21875 
Q 31.109375 20.453125 19.1875 8.296875 
z
" id="DejaVuSans-50"/>
        <path d="M 10.796875 72.90625 
L 49.515625 72.90625 
L 49.515625 64.59375 
L 19.828125 64.59375 
L 19.828125 46.734375 
Q 21.96875 47.46875 24.109375 47.828125 
Q 26.265625 48.1875 28.421875 48.1875 
Q 40.625 48.1875 47.75 41.5 
Q 54.890625 34.8125 54.890625 23.390625 
Q 54.890625 11.625 47.5625 5.09375 
Q 40.234375 -1.421875 26.90625 -1.421875 
Q 22.3125 -1.421875 17.546875 -0.640625 
Q 12.796875 0.140625 7.71875 1.703125 
L 7.71875 11.625 
Q 12.109375 9.234375 16.796875 8.0625 
Q 21.484375 6.890625 26.703125 6.890625 
Q 35.15625 6.890625 40.078125 11.328125 
Q 45.015625 15.765625 45.015625 23.390625 
Q 45.015625 31 40.078125 35.4375 
Q 35.15625 39.890625 26.703125 39.890625 
Q 22.75 39.890625 18.8125 39.015625 
Q 14.890625 38.140625 10.796875 36.28125 
z
" id="DejaVuSans-53"/>
       </defs>
       <use xlink:href="#DejaVuSans-50"/>
       <use x="63.623047" xlink:href="#DejaVuSans-53"/>
       <use x="127.246094" xlink:href="#DejaVuSans-48"/>
      </g>
     </g>
    </g>
    <g id="xtick_3">
     <g id="line2d_5">
      <path clip-path="url(#pf53134d72d)" d="M 146.88 307.584 
L 146.88 41.472 
" style="fill:none;stroke:#b0b0b0;stroke-linecap:square;stroke-width:0.8;"/>
     </g>
     <g id="line2d_6">
      <g>
       <use style="stroke:#000000;stroke-width:0.8;" x="146.88" xlink:href="#mfa75baf3d9" y="307.584"/>
      </g>
     </g>
     <g id="text_3">
      <!-- 500 -->
      <g transform="translate(137.33625 322.182437)scale(0.1 -0.1)">
       <use xlink:href="#DejaVuSans-53"/>
       <use x="63.623047" xlink:href="#DejaVuSans-48"/>
       <use x="127.246094" xlink:href="#DejaVuSans-48"/>
      </g>
     </g>
    </g>
    <g id="xtick_4">
     <g id="line2d_7">
      <path clip-path="url(#pf53134d72d)" d="M 191.52 307.584 
L 191.52 41.472 
" style="fill:none;stroke:#b0b0b0;stroke-linecap:square;stroke-width:0.8;"/>
     </g>
     <g id="line2d_8">
      <g>
       <use style="stroke:#000000;stroke-width:0.8;" x="191.52" xlink:href="#mfa75baf3d9" y="307.584"/>
      </g>
     </g>
     <g id="text_4">
      <!-- 750 -->
      <g transform="translate(181.97625 322.182437)scale(0.1 -0.1)">
       <defs>
        <path d="M 8.203125 72.90625 
L 55.078125 72.90625 
L 55.078125 68.703125 
L 28.609375 0 
L 18.3125 0 
L 43.21875 64.59375 
L 8.203125 64.59375 
z
" id="DejaVuSans-55"/>
       </defs>
       <use xlink:href="#DejaVuSans-55"/>
       <use x="63.623047" xlink:href="#DejaVuSans-53"/>
       <use x="127.246094" xlink:href="#DejaVuSans-48"/>
      </g>
     </g>
    </g>
    <g id="xtick_5">
     <g id="line2d_9">
      <path clip-path="url(#pf53134d72d)" d="M 236.16 307.584 
L 236.16 41.472 
" style="fill:none;stroke:#b0b0b0;stroke-linecap:square;stroke-width:0.8;"/>
     </g>
     <g id="line2d_10">
      <g>
       <use style="stroke:#000000;stroke-width:0.8;" x="236.16" xlink:href="#mfa75baf3d9" y="307.584"/>
      </g>
     </g>
     <g id="text_5">
      <!-- 1000 -->
      <g transform="translate(223.435 322.182437)scale(0.1 -0.1)">
       <defs>
        <path d="M 12.40625 8.296875 
L 28.515625 8.296875 
L 28.515625 63.921875 
L 10.984375 60.40625 
L 10.984375 69.390625 
L 28.421875 72.90625 
L 38.28125 72.90625 
L 38.28125 8.296875 
L 54.390625 8.296875 
L 54.390625 0 
L 12.40625 0 
z
" id="DejaVuSans-49"/>
       </defs>
       <use xlink:href="#DejaVuSans-49"/>
       <use x="63.623047" xlink:href="#DejaVuSans-48"/>
       <use x="127.246094" xlink:href="#DejaVuSans-48"/>
       <use x="190.869141" xlink:href="#DejaVuSans-48"/>
      </g>
     </g>
    </g>
    <g id="xtick_6">
     <g id="line2d_11">
      <path clip-path="url(#pf53134d72d)" d="M 280.8 307.584 
L 280.8 41.472 
" style="fill:none;stroke:#b0b0b0;stroke-linecap:square;stroke-width:0.8;"/>
     </g>
     <g id="line2d_12">
      <g>
       <use style="stroke:#000000;stroke-width:0.8;" x="280.8" xlink:href="#mfa75baf3d9" y="307.584"/>
      </g>
     </g>
     <g id="text_6">
      <!-- 1250 -->
      <g transform="translate(268.075 322.182437)scale(0.1 -0.1)">
       <use xlink:href="#DejaVuSans-49"/>
       <use x="63.623047" xlink:href="#DejaVuSans-50"/>
       <use x="127.246094" xlink:href="#DejaVuSans-53"/>
       <use x="190.869141" xlink:href="#DejaVuSans-48"/>
      </g>
     </g>
    </g>
    <g id="xtick_7">
     <g id="line2d_13">
      <path clip-path="url(#pf53134d72d)" d="M 325.44 307.584 
L 325.44 41.472 
" style="fill:none;stroke:#b0b0b0;stroke-linecap:square;stroke-width:0.8;"/>
     </g>
     <g id="line2d_14">
      <g>
       <use style="stroke:#000000;stroke-width:0.8;" x="325.44" xlink:href="#mfa75baf3d9" y="307.584"/>
      </g>
     </g>
     <g id="text_7">
      <!-- 1500 -->
      <g transform="translate(312.715 322.182437)scale(0.1 -0.1)">
       <use xlink:href="#DejaVuSans-49"/>
       <use x="63.623047" xlink:href="#DejaVuSans-53"/>
       <use x="127.246094" xlink:href="#DejaVuSans-48"/>
       <use x="190.869141" xlink:href="#DejaVuSans-48"/>
      </g>
     </g>
    </g>
    <g id="xtick_8">
     <g id="line2d_15">
      <path clip-path="url(#pf53134d72d)" d="M 370.08 307.584 
L 370.08 41.472 
" style="fill:none;stroke:#b0b0b0;stroke-linecap:square;stroke-width:0.8;"/>
     </g>
     <g id="line2d_16">
      <g>
       <use style="stroke:#000000;stroke-width:0.8;" x="370.08" xlink:href="#mfa75baf3d9" y="307.584"/>
      </g>
     </g>
     <g id="text_8">
      <!-- 1750 -->
      <g transform="translate(357.355 322.182437)scale(0.1 -0.1)">
       <use xlink:href="#DejaVuSans-49"/>
       <use x="63.623047" xlink:href="#DejaVuSans-55"/>
       <use x="127.246094" xlink:href="#DejaVuSans-53"/>
       <use x="190.869141" xlink:href="#DejaVuSans-48"/>
      </g>
     </g>
    </g>
    <g id="xtick_9">
     <g id="line2d_17">
      <path clip-path="url(#pf53134d72d)" d="M 414.72 307.584 
L 414.72 41.472 
" style="fill:none;stroke:#b0b0b0;stroke-linecap:square;stroke-width:0.8;"/>
     </g>
     <g id="line2d_18">
      <g>
       <use style="stroke:#000000;stroke-width:0.8;" x="414.72" xlink:href="#mfa75baf3d9" y="307.584"/>
      </g>
     </g>
     <g id="text_9">
      <!-- 2000 -->
      <g transform="translate(401.995 322.182437)scale(0.1 -0.1)">
       <use xlink:href="#DejaVuSans-50"/>
       <use x="63.623047" xlink:href="#DejaVuSans-48"/>
       <use x="127.246094" xlink:href="#DejaVuSans-48"/>
       <use x="190.869141" xlink:href="#DejaVuSans-48"/>
      </g>
     </g>
    </g>
   </g>
   <g id="matplotlib.axis_2">
    <g id="ytick_1">
     <g id="line2d_19">
      <path clip-path="url(#pf53134d72d)" d="M 57.6 283.273582 
L 414.72 283.273582 
" style="fill:none;stroke:#b0b0b0;stroke-linecap:square;stroke-width:0.8;"/>
     </g>
     <g id="line2d_20">
      <defs>
       <path d="M 0 0 
L -3.5 0 
" id="m08cb5b1286" style="stroke:#000000;stroke-width:0.8;"/>
      </defs>
      <g>
       <use style="stroke:#000000;stroke-width:0.8;" x="57.6" xlink:href="#m08cb5b1286" y="283.273582"/>
      </g>
     </g>
     <g id="text_10">
      <!-- −0.2 -->
      <g transform="translate(26.317187 287.072801)scale(0.1 -0.1)">
       <defs>
        <path d="M 10.59375 35.5 
L 73.1875 35.5 
L 73.1875 27.203125 
L 10.59375 27.203125 
z
" id="DejaVuSans-8722"/>
        <path d="M 10.6875 12.40625 
L 21 12.40625 
L 21 0 
L 10.6875 0 
z
" id="DejaVuSans-46"/>
       </defs>
       <use xlink:href="#DejaVuSans-8722"/>
       <use x="83.789062" xlink:href="#DejaVuSans-48"/>
       <use x="147.412109" xlink:href="#DejaVuSans-46"/>
       <use x="179.199219" xlink:href="#DejaVuSans-50"/>
      </g>
     </g>
    </g>
    <g id="ytick_2">
     <g id="line2d_21">
      <path clip-path="url(#pf53134d72d)" d="M 57.6 229.422874 
L 414.72 229.422874 
" style="fill:none;stroke:#b0b0b0;stroke-linecap:square;stroke-width:0.8;"/>
     </g>
     <g id="line2d_22">
      <g>
       <use style="stroke:#000000;stroke-width:0.8;" x="57.6" xlink:href="#m08cb5b1286" y="229.422874"/>
      </g>
     </g>
     <g id="text_11">
      <!-- −0.1 -->
      <g transform="translate(26.317187 233.222093)scale(0.1 -0.1)">
       <use xlink:href="#DejaVuSans-8722"/>
       <use x="83.789062" xlink:href="#DejaVuSans-48"/>
       <use x="147.412109" xlink:href="#DejaVuSans-46"/>
       <use x="179.199219" xlink:href="#DejaVuSans-49"/>
      </g>
     </g>
    </g>
    <g id="ytick_3">
     <g id="line2d_23">
      <path clip-path="url(#pf53134d72d)" d="M 57.6 175.572165 
L 414.72 175.572165 
" style="fill:none;stroke:#b0b0b0;stroke-linecap:square;stroke-width:0.8;"/>
     </g>
     <g id="line2d_24">
      <g>
       <use style="stroke:#000000;stroke-width:0.8;" x="57.6" xlink:href="#m08cb5b1286" y="175.572165"/>
      </g>
     </g>
     <g id="text_12">
      <!-- 0.0 -->
      <g transform="translate(34.696875 179.371384)scale(0.1 -0.1)">
       <use xlink:href="#DejaVuSans-48"/>
       <use x="63.623047" xlink:href="#DejaVuSans-46"/>
       <use x="95.410156" xlink:href="#DejaVuSans-48"/>
      </g>
     </g>
    </g>
    <g id="ytick_4">
     <g id="line2d_25">
      <path clip-path="url(#pf53134d72d)" d="M 57.6 121.721457 
L 414.72 121.721457 
" style="fill:none;stroke:#b0b0b0;stroke-linecap:square;stroke-width:0.8;"/>
     </g>
     <g id="line2d_26">
      <g>
       <use style="stroke:#000000;stroke-width:0.8;" x="57.6" xlink:href="#m08cb5b1286" y="121.721457"/>
      </g>
     </g>
     <g id="text_13">
      <!-- 0.1 -->
      <g transform="translate(34.696875 125.520675)scale(0.1 -0.1)">
       <use xlink:href="#DejaVuSans-48"/>
       <use x="63.623047" xlink:href="#DejaVuSans-46"/>
       <use x="95.410156" xlink:href="#DejaVuSans-49"/>
      </g>
     </g>
    </g>
    <g id="ytick_5">
     <g id="line2d_27">
      <path clip-path="url(#pf53134d72d)" d="M 57.6 67.870748 
L 414.72 67.870748 
" style="fill:none;stroke:#b0b0b0;stroke-linecap:square;stroke-width:0.8;"/>
     </g>
     <g id="line2d_28">
      <g>
       <use style="stroke:#000000;stroke-width:0.8;" x="57.6" xlink:href="#m08cb5b1286" y="67.870748"/>
      </g>
     </g>
     <g id="text_14">
      <!-- 0.2 -->
      <g transform="translate(34.696875 71.669967)scale(0.1 -0.1)">
       <use xlink:href="#DejaVuSans-48"/>
       <use x="63.623047" xlink:href="#DejaVuSans-46"/>
       <use x="95.410156" xlink:href="#DejaVuSans-50"/>
      </g>
     </g>
    </g>
   </g>
   <g id="line2d_29">
    <path clip-path="url(#pf53134d72d)" d="M 57.6 186.916409 
L 57.698208 199.043643 
L 57.748205 196.577873 
L 58.371379 150.431154 
L 58.455302 148.398667 
L 58.501728 149.642726 
L 58.607078 162.079816 
L 58.898131 190.358331 
L 58.982054 191.436369 
L 59.035622 191.117949 
L 59.253466 187.427022 
L 59.603443 183.723762 
L 60.02663 181.130797 
L 60.080198 181.101664 
L 60.124838 181.181955 
L 60.226618 181.85175 
L 60.36768 184.563403 
L 60.54624 193.190394 
L 60.721229 201.932302 
L 60.771226 200.801168 
L 60.946214 188.20328 
L 61.597958 149.771106 
L 61.614029 149.662435 
L 61.656883 150.451887 
L 61.797946 159.557395 
L 62.146138 176.568554 
L 62.355053 191.105079 
L 62.530042 205.517036 
L 62.58361 203.362362 
L 63.181786 165.871068 
L 63.471053 150.63051 
L 63.538906 152.164716 
L 64.081728 180.775797 
L 64.31207 203.412551 
L 64.374566 206.523506 
L 64.428134 204.117295 
L 64.947744 169.10308 
L 65.312006 151.113335 
L 65.401286 153.564027 
L 66.051245 191.934165 
L 66.217306 207.28167 
L 66.272659 204.588435 
L 66.752986 170.044659 
L 67.147603 151.534394 
L 67.240454 154.037213 
L 67.88327 191.271155 
L 68.056474 208.019479 
L 68.113613 204.980037 
L 68.563584 170.534232 
L 68.979629 151.933589 
L 69.067123 154.073616 
L 69.676013 186.941073 
L 69.89207 208.787552 
L 69.961709 204.056767 
L 70.325971 172.80733 
L 70.808083 152.336338 
L 70.88665 154.028435 
L 71.433043 180.903811 
L 71.631245 202.19224 
L 71.72231 209.6322 
L 71.775878 206.578595 
L 72.229421 168.926288 
L 72.629395 152.781199 
L 72.691891 153.789931 
L 72.879379 163.323498 
L 73.409702 196.082123 
L 73.548979 210.615083 
L 73.602547 207.27957 
L 74.040019 168.568773 
L 74.443565 153.31906 
L 74.48999 153.848682 
L 74.614982 159.200257 
L 75.250656 199.25156 
L 75.370291 211.805453 
L 75.422074 208.374463 
L 75.859546 167.287503 
L 76.24345 153.987778 
L 76.266662 154.104257 
L 76.343443 155.999587 
L 76.904122 181.536239 
L 77.084467 202.846311 
L 77.184461 213.273531 
L 77.236243 209.537638 
L 77.668358 165.605584 
L 78.012979 154.760051 
L 78.021907 154.752135 
L 78.052262 154.910779 
L 78.139757 156.937451 
L 78.673651 179.418199 
L 78.845069 196.884876 
L 78.987917 215.060405 
L 79.04327 210.438183 
L 79.45753 163.310682 
L 79.728941 155.472119 
L 79.759296 155.379442 
L 79.809293 155.653273 
L 79.92 158.088402 
L 80.405683 176.995262 
L 80.586029 192.167877 
L 80.76816 217.098762 
L 80.834227 210.591227 
L 81.23063 159.055614 
L 81.427046 155.244277 
L 81.46633 155.364848 
L 81.568109 156.652042 
L 81.780595 162.819564 
L 82.194854 181.663434 
L 82.3752 203.754503 
L 82.500192 219.002977 
L 82.551974 215.145759 
L 83.001946 153.074039 
L 83.087654 153.721809 
L 83.291213 157.829057 
L 83.557267 168.085947 
L 83.828678 187.340538 
L 84.135802 220.287316 
L 84.201869 215.063205 
L 84.312576 175.036519 
L 84.478637 146.220567 
L 84.48935 146.264725 
L 84.558989 147.730326 
L 84.835757 159.034828 
L 85.06967 181.114372 
L 85.367866 200.430837 
L 85.642848 213.824424 
L 85.792838 235.04758 
L 85.830336 222.62993 
L 85.937472 118.468874 
L 86.028538 151.564012 
L 86.260666 208.9022 
L 86.603501 233.94741 
L 86.757062 243.972258 
L 86.792774 237.643723 
L 87.01776 127.784293 
L 87.124896 145.028366 
L 87.210605 152.901071 
L 87.267744 150.914787 
L 87.483802 143.128083 
L 87.512371 143.246285 
L 87.605222 144.925027 
L 88.114118 159.27231 
L 88.212326 158.193141 
L 88.367674 152.186849 
L 88.555162 145.432031 
L 88.599802 145.996602 
L 88.710509 151.713016 
L 88.969421 178.111506 
L 89.121197 222.187977 
L 89.190835 239.103616 
L 89.246189 228.102131 
L 89.506886 140.588645 
L 89.587238 143.036052 
L 89.837222 160.333061 
L 90.612173 244.597465 
L 90.642528 232.305502 
L 90.737165 110.890464 
L 90.82823 155.990486 
L 91.038931 215.239297 
L 91.349626 239.219933 
L 91.483546 248.774664 
L 91.517472 242.108485 
L 91.729958 123.534933 
L 91.837094 144.231107 
L 91.913875 152.49089 
L 91.9728 149.63104 
L 92.188858 139.506299 
L 92.21207 139.600646 
L 92.292422 141.16027 
L 92.544192 151.856367 
L 92.73168 156.66125 
L 92.762035 156.485912 
L 92.842387 154.167478 
L 93.094157 140.362956 
L 93.181651 143.378219 
L 93.37271 163.007556 
L 93.538771 200.989861 
L 93.686976 247.33685 
L 93.740544 236.070744 
L 93.906605 128.188281 
L 94.044096 142.527917 
L 94.454784 192.802776 
L 94.511923 192.637724 
L 94.529779 192.61403 
L 94.565491 192.792868 
L 94.638701 194.810708 
L 94.811904 208.061321 
L 95.422579 252.417126 
L 95.431507 252.00463 
L 95.469005 236.818192 
L 95.660064 120.201251 
L 95.717203 129.916565 
L 95.836838 152.358686 
L 95.893978 149.027374 
L 96.113606 136.575367 
L 96.133248 136.659966 
L 96.208243 138.249262 
L 96.431443 149.23513 
L 96.593933 154.473188 
L 96.633216 154.017396 
L 96.722496 149.092856 
L 96.904627 135.624471 
L 96.965338 137.717433 
L 97.118899 155.105557 
L 97.297459 199.095393 
L 97.481376 254.446221 
L 97.520659 243.819322 
L 97.64208 116.763422 
L 97.767072 143.25474 
L 98.068838 198.932064 
L 98.370605 222.437306 
L 98.817005 255.268521 
L 98.834861 253.214117 
L 98.890214 210.619714 
L 99.047347 117.497407 
L 99.079488 121.285804 
L 99.22055 152.392289 
L 99.297331 146.165909 
L 99.497318 134.133883 
L 99.509818 134.175941 
L 99.570528 135.329369 
L 99.738374 143.954745 
L 99.933005 152.62277 
L 99.974074 151.895193 
L 100.065139 144.386089 
L 100.207987 131.386474 
L 100.261555 133.607977 
L 100.407974 153.61427 
L 100.586534 207.668372 
L 100.777594 262.063404 
L 100.802592 253.121494 
L 100.904371 106.586715 
L 101.024006 151.77683 
L 101.250778 207.187539 
L 101.863238 257.599718 
L 101.872166 257.141449 
L 101.909664 239.441798 
L 102.09001 115.212522 
L 102.145363 126.565113 
L 102.259642 152.533378 
L 102.316781 148.013311 
L 102.534624 132.021159 
L 102.550694 132.083302 
L 102.614976 133.563981 
L 102.793536 144.310375 
L 102.936384 151.008218 
L 102.98281 149.800024 
L 103.082803 137.830735 
L 103.186368 127.555158 
L 103.239936 130.396644 
L 103.389926 155.890539 
L 103.722048 261.873311 
L 103.752403 269.233087 
L 103.782758 246.921123 
L 103.859539 97.440172 
L 103.947034 145.026536 
L 104.15952 216.094285 
L 104.543424 250.476347 
L 104.645203 257.974519 
L 104.66663 259.543729 
L 104.698771 251.542052 
L 104.88983 113.236739 
L 104.989824 141.550849 
L 105.057677 152.753412 
L 105.118387 147.193488 
L 105.332659 130.151839 
L 105.346944 130.207413 
L 105.407654 131.660951 
L 105.573715 142.501368 
L 105.707635 149.57272 
L 105.754061 147.93442 
L 105.861197 131.470535 
L 105.936192 124.054754 
L 105.991546 127.733834 
L 106.145107 159.654865 
L 106.512941 275.504002 
L 106.54151 246.483317 
L 106.607578 89.280713 
L 106.68793 154.626824 
L 106.877203 226.544338 
L 107.170042 252.470439 
L 107.262893 259.249704 
L 107.287891 261.180252 
L 107.318246 253.468831 
L 107.50752 111.506516 
L 107.611085 142.622101 
L 107.673581 153.034459 
L 107.734291 146.976631 
L 107.948563 128.476382 
L 107.961062 128.521509 
L 108.016416 129.837728 
L 108.166406 140.126067 
L 108.300326 148.280303 
L 108.346752 146.287665 
L 108.462816 125.158101 
L 108.512813 120.833997 
L 108.569952 125.398975 
L 108.727085 164.432554 
L 109.132416 280.199784 
L 109.141344 277.116292 
L 109.178842 164.0703 
L 109.214554 83.032954 
L 109.287763 167.471349 
L 109.462752 240.176322 
L 109.687738 255.973427 
L 109.759162 262.561523 
L 109.787731 255.672402 
L 109.977005 109.980387 
L 110.087712 144.981732 
L 110.143066 153.366179 
L 110.203776 146.569681 
L 110.418048 126.964792 
L 110.426976 126.997695 
L 110.476973 128.143961 
L 110.612678 137.716948 
L 110.748384 147.108942 
L 110.796595 144.585606 
L 110.948371 117.860361 
L 111.037651 129.36815 
L 111.216211 192.572672 
L 111.36263 228.119956 
L 111.400128 227.257968 
L 111.487622 218.872928 
L 111.580474 181.51863 
L 111.637613 154.205981 
L 111.682253 184.819894 
L 111.842957 247.052519 
L 112.094726 259.404794 
L 112.139366 263.758086 
L 112.169722 256.158135 
L 112.355424 108.614733 
L 112.46256 143.578705 
L 112.521485 153.743296 
L 112.582195 146.505491 
L 112.796467 125.575175 
L 112.805395 125.608401 
L 112.855392 126.837597 
L 112.989312 137.093788 
L 113.110733 146.028913 
L 113.158944 143.004334 
L 113.300006 115.065509 
L 113.38393 127.001519 
L 113.564275 196.731186 
L 113.674982 223.935971 
L 113.724979 220.616183 
L 113.83033 193.876021 
L 113.903539 171.275116 
L 113.95175 189.358862 
L 114.139238 243.930793 
L 114.464218 264.764555 
L 114.48743 260.566893 
L 114.558854 180.743481 
L 114.680275 107.375628 
L 114.721344 116.37085 
L 114.84455 154.168286 
L 114.907046 146.104896 
L 115.119533 124.285558 
L 115.128461 124.320346 
L 115.176672 125.561281 
L 115.307021 136.194696 
L 115.419514 145.022174 
L 115.465939 141.730549 
L 115.599859 112.415516 
L 115.680211 125.122829 
L 115.869485 204.297749 
L 115.949837 220.991791 
L 116.00519 215.678288 
L 116.15161 178.907764 
L 116.208749 197.959251 
L 116.396237 243.688465 
L 116.730144 265.609473 
L 116.748 263.1975 
L 116.801568 211.2684 
L 116.944416 106.261995 
L 116.980128 113.268511 
L 117.108691 154.632317 
L 117.176544 145.104565 
L 117.383674 123.095565 
L 117.390816 123.11479 
L 117.43367 124.114851 
L 117.549734 133.428816 
L 117.671155 144.087595 
L 117.719366 140.046853 
L 117.842573 109.915227 
L 117.919354 122.730027 
L 118.174694 218.744009 
L 118.290758 196.894946 
L 118.35504 183.938357 
L 118.403251 195.450885 
L 118.621094 245.586702 
L 118.940717 266.301454 
L 118.953216 265.301985 
L 118.994285 236.429389 
L 119.154989 105.271142 
L 119.199629 116.001973 
L 119.319264 155.131298 
L 119.379974 146.746635 
L 119.596032 122.000619 
L 119.603174 122.028029 
L 119.647814 123.215652 
L 119.76745 133.879439 
L 119.871014 143.223398 
L 119.91744 138.977001 
L 120.03529 107.558182 
L 120.11207 121.730073 
L 120.351341 216.968066 
L 120.462048 196.533554 
L 120.515616 187.740433 
L 120.563827 198.287794 
L 120.788813 246.935663 
L 121.103078 266.849655 
L 121.112006 266.364998 
L 121.147718 246.965281 
L 121.31735 104.392837 
L 121.376275 122.060339 
L 121.483411 155.665874 
L 121.538765 147.756066 
L 121.758394 120.995011 
L 121.767322 121.032706 
L 121.815533 122.521301 
L 121.94231 135.200128 
L 122.024448 142.425546 
L 122.070874 137.514308 
L 122.183366 105.338456 
L 122.25479 119.567428 
L 122.485133 215.537199 
L 122.59584 195.624661 
L 122.635123 190.826402 
L 122.681549 200.106386 
L 122.917248 248.679887 
L 123.222586 267.260536 
L 123.226157 267.166297 
L 123.252941 258.923907 
L 123.436858 103.623311 
L 123.538637 141.951337 
L 123.602918 156.232114 
L 123.661843 147.216321 
L 123.879686 120.075779 
L 123.885043 120.094627 
L 123.924326 121.103251 
L 124.031462 131.005642 
L 124.135027 141.688007 
L 124.181453 136.378112 
L 124.288589 103.250125 
L 124.360013 118.548573 
L 124.581427 214.36767 
L 124.688563 195.9867 
L 124.717133 193.434984 
L 124.761773 201.613506 
L 125.009971 250.645977 
L 125.301024 267.534097 
L 125.30281 267.546483 
L 125.311738 267.035978 
L 125.34745 247.525328 
L 125.517082 102.947484 
L 125.576006 120.984779 
L 125.684928 156.826787 
L 125.740282 148.361079 
L 125.961696 119.236785 
L 125.968838 119.26371 
L 126.011693 120.54805 
L 126.125971 132.462681 
L 126.209894 141.011211 
L 126.254534 135.539118 
L 126.358099 101.289959 
L 126.429523 117.760199 
L 126.640224 213.405627 
L 126.74736 196.782452 
L 126.765216 195.698006 
L 126.806285 202.134404 
L 127.077696 253.33905 
L 127.347322 267.685418 
L 127.349107 267.709112 
L 127.363392 266.45816 
L 127.406246 233.915638 
L 127.565165 102.371282 
L 127.608019 113.120422 
L 127.733011 157.447255 
L 127.793722 147.565058 
L 128.011565 118.475336 
L 128.016922 118.491491 
L 128.056205 119.575506 
L 128.161555 130.363957 
L 128.252621 140.390097 
L 128.297261 134.281596 
L 128.397254 99.45365 
L 128.465107 116.153832 
L 128.670451 212.608905 
L 128.779373 197.809061 
L 128.78473 197.69576 
L 128.811514 200.282263 
L 129.216845 261.367114 
L 129.347194 266.468392 
L 129.366835 267.757578 
L 129.395405 261.326726 
L 129.504326 136.365511 
L 129.582893 101.886625 
L 129.636461 117.290082 
L 129.75431 158.09831 
L 129.81145 148.547403 
L 130.032864 117.788739 
L 130.038221 117.807049 
L 130.075718 118.859292 
L 130.179283 129.797124 
L 130.266778 139.822188 
L 130.311418 133.228492 
L 130.406054 97.730428 
L 130.473907 114.869493 
L 130.673894 211.946165 
L 130.786387 199.655656 
L 130.827456 207.901384 
L 131.072083 253.334742 
L 131.282784 262.525443 
L 131.34528 266.996129 
L 131.359565 267.694572 
L 131.386349 262.006322 
L 131.473843 158.068908 
L 131.577408 101.488669 
L 131.625619 114.901803 
L 131.748826 158.774029 
L 131.805965 149.132652 
L 132.029165 117.174303 
L 132.034522 117.193151 
L 132.072019 118.293321 
L 132.173798 129.502076 
L 132.257722 139.304844 
L 132.300576 132.492783 
L 132.393427 96.114906 
L 132.46128 114.672399 
L 132.65591 211.39608 
L 132.766618 201.920025 
L 132.83447 222.321958 
L 133.027315 252.584602 
L 133.243373 262.432281 
L 133.288013 264.341289 
L 133.329082 267.524404 
L 133.357651 261.39727 
L 133.454074 148.606046 
L 133.54871 101.172026 
L 133.598707 115.247525 
L 133.723699 159.472904 
L 133.779053 149.766852 
L 134.004038 116.629334 
L 134.009395 116.648181 
L 134.046893 117.789816 
L 134.148672 129.508754 
L 134.227238 138.837366 
L 134.270093 131.434186 
L 134.359373 94.61301 
L 134.42544 113.30136 
L 134.616499 210.943788 
L 134.736134 206.15339 
L 135.080755 260.748908 
L 135.280742 267.250842 
L 135.295027 266.051049 
L 135.337882 235.446614 
L 135.502157 100.940468 
L 135.545011 111.769307 
L 135.678931 160.201234 
L 135.737856 149.347193 
L 135.961056 116.152216 
L 135.964627 116.16191 
L 135.996768 116.992826 
L 136.087834 126.681969 
L 136.178899 138.419484 
L 136.221754 130.53294 
L 136.309248 93.217738 
L 136.375315 113.360057 
L 136.561018 210.572702 
L 136.684224 210.311311 
L 136.952064 256.900736 
L 137.084198 262.402663 
L 137.130624 262.333734 
L 137.166336 263.377361 
L 137.216333 266.876042 
L 137.243117 261.932547 
L 137.318112 175.974809 
L 137.439533 100.785378 
L 137.480602 110.570052 
L 137.618093 160.952075 
L 137.680589 149.198565 
L 137.902003 115.741874 
L 137.903789 115.742413 
L 137.925216 116.080056 
L 137.99664 121.794909 
L 138.11449 138.048615 
L 138.160915 128.80094 
L 138.243053 91.92209 
L 138.307334 111.729996 
L 138.634099 220.212195 
L 138.837658 254.17589 
L 139.000147 262.356352 
L 139.03943 262.153873 
L 139.048358 262.131256 
L 139.075142 262.483439 
L 139.139424 266.402694 
L 139.164422 262.304655 
L 139.23049 190.777505 
L 139.36441 100.709987 
L 139.401907 108.769284 
L 139.546541 161.731025 
L 139.610822 149.135883 
L 139.832237 115.395614 
L 139.846522 115.530779 
L 139.903661 118.976686 
L 140.041152 137.724972 
L 140.087578 127.351656 
L 140.166144 90.730374 
L 140.230426 111.399891 
L 140.558976 225.261183 
L 140.755392 255.012192 
L 140.905382 262.238419 
L 140.946451 261.95301 
L 140.964307 261.855001 
L 140.996448 262.430127 
L 141.051802 265.832415 
L 141.078586 261.363345 
L 141.148224 185.627277 
L 141.280358 100.710526 
L 141.317856 108.874293 
L 141.466061 162.53437 
L 141.528557 150.003418 
L 141.751757 115.115052 
L 141.755328 115.118821 
L 141.764256 115.205521 
L 141.814253 117.849052 
L 141.957101 137.446187 
L 142.005312 125.822242 
L 142.080307 89.63882 
L 142.142803 110.116091 
L 142.480282 231.261875 
L 142.674912 256.503318 
L 142.805261 262.047787 
L 142.851686 261.626136 
L 142.873114 261.476431 
L 142.90704 262.195876 
L 142.957037 265.167359 
L 142.983821 260.891074 
L 143.051674 189.36667 
L 143.187379 100.789148 
L 143.224877 108.380482 
L 143.376653 163.363725 
L 143.44272 149.881338 
L 143.664134 114.900187 
L 143.66592 114.896418 
L 143.683776 115.112359 
L 143.746272 119.700978 
L 143.867693 137.209621 
L 143.912333 126.56032 
L 143.989114 88.643659 
L 144.05161 110.301875 
L 144.381946 232.433667 
L 144.576576 256.855502 
L 144.699782 261.784457 
L 144.746208 261.289031 
L 144.776563 260.998775 
L 144.812275 261.866849 
L 144.856915 264.407525 
L 144.883699 260.437651 
L 144.949766 193.566972 
L 145.090829 100.938314 
L 145.126541 107.74289 
L 145.285459 164.21952 
L 145.351526 150.089256 
L 145.572941 114.747251 
L 145.576512 114.741866 
L 145.594368 114.995503 
L 145.65865 120.066624 
L 145.772928 137.021035 
L 145.815782 127.207982 
L 145.892563 87.750276 
L 145.956845 110.677753 
L 146.280038 233.363669 
L 146.474669 257.061211 
L 146.590733 261.449506 
L 146.638944 260.875457 
L 146.676442 260.423111 
L 146.715725 261.495817 
L 146.755008 263.55453 
L 146.781792 259.591118 
L 146.847859 194.473387 
L 146.992493 101.159641 
L 147.026419 107.383706 
L 147.190694 165.107034 
L 147.258547 150.296258 
L 147.479962 114.658398 
L 147.483533 114.649782 
L 147.503174 114.943268 
L 147.569242 120.516278 
L 147.678163 136.872946 
L 147.721018 126.277442 
L 147.796013 86.948977 
L 147.860294 110.850614 
L 148.178131 234.391679 
L 148.372762 257.204993 
L 148.481683 261.042394 
L 148.53168 260.38757 
L 148.574534 259.749439 
L 148.615603 260.839916 
L 148.651315 262.607834 
L 148.679885 258.593264 
L 148.747738 193.014033 
L 148.894157 101.457435 
L 148.928083 107.661037 
L 149.09593 166.026319 
L 149.163782 151.30849 
L 149.386982 114.637935 
L 149.392339 114.621241 
L 149.415552 115.056893 
L 149.486976 122.030237 
L 149.583398 136.771868 
L 149.624467 126.879708 
L 149.699462 86.254303 
L 149.763744 110.391806 
L 150.081581 236.253836 
L 150.277997 257.565793 
L 150.374419 260.5642 
L 150.426202 259.835061 
L 150.476198 258.978297 
L 150.519053 260.152242 
L 150.551194 261.569593 
L 150.579763 257.660031 
L 150.64583 196.563871 
L 150.797606 101.827928 
L 150.829747 107.158071 
L 151.004736 166.975707 
L 151.07616 151.029059 
L 151.297574 114.679938 
L 151.302931 114.656244 
L 151.329715 115.203367 
L 151.40471 123.238808 
L 151.492205 136.714356 
L 151.533274 126.55822 
L 151.608269 85.645252 
L 151.670765 109.945384 
L 151.986816 237.353468 
L 152.183232 257.531867 
L 152.270726 260.013846 
L 152.324294 259.234087 
L 152.383219 258.108608 
L 152.427859 259.388101 
L 152.454643 260.436035 
L 152.483213 256.970742 
L 152.545709 203.487619 
L 152.706413 102.272735 
L 152.736768 106.885048 
L 152.918899 167.959129 
L 152.993894 150.850759 
L 153.213523 114.791409 
L 153.220666 114.754791 
L 153.249235 115.410692 
L 153.327802 124.520024 
L 153.406368 136.700839 
L 153.447437 126.632641 
L 153.522432 85.143363 
L 153.584928 110.185019 
L 153.897408 238.047603 
L 154.093824 257.313771 
L 154.174176 259.39187 
L 154.22953 258.557723 
L 154.295597 257.14091 
L 154.342022 258.409633 
L 154.365235 259.208778 
L 154.393805 256.136595 
L 154.454515 208.059275 
L 154.622362 102.79401 
L 154.652717 107.110144 
L 154.84199 168.984931 
L 154.918771 151.04726 
L 155.136614 114.98581 
L 155.145542 114.918497 
L 155.179469 115.821573 
L 155.263392 126.719556 
L 155.329459 136.731319 
L 155.370528 126.56312 
L 155.443738 84.738944 
L 155.508019 110.651367 
L 155.816928 238.601189 
L 156.013344 256.97505 
L 156.088339 258.697734 
L 156.143693 257.823737 
L 156.218688 256.072512 
L 156.268685 257.426858 
L 156.286541 257.888358 
L 156.31511 254.907722 
L 156.375821 209.282601 
L 156.549024 103.38906 
L 156.577594 107.09345 
L 156.775795 170.053545 
L 156.856147 150.731749 
L 157.072205 115.229754 
L 157.082918 115.147901 
L 157.116845 116.108059 
L 157.202554 127.607878 
L 157.26505 136.810318 
L 157.304333 126.833397 
L 157.377542 84.435226 
L 157.441824 110.777916 
L 157.747162 238.841363 
L 157.941792 256.41231 
L 158.013216 257.9309 
L 158.06857 257.055288 
L 158.154278 254.902875 
L 158.206061 256.218986 
L 158.21856 256.469392 
L 158.245344 254.341212 
L 158.300698 219.686235 
L 158.488186 104.062732 
L 158.520326 108.433794 
L 158.723885 171.170392 
L 158.797094 153.871245 
L 159.020294 115.565244 
L 159.032794 115.444618 
L 159.070291 116.602947 
L 159.161357 129.71134 
L 159.213139 136.935413 
L 159.252422 127.01482 
L 159.325632 84.233286 
L 159.389914 111.059555 
L 159.693466 239.309864 
L 159.888096 255.886727 
L 159.952378 257.090829 
L 160.007731 256.229218 
L 160.104154 253.628229 
L 160.163078 254.9298 
L 160.16665 254.954572 
L 160.184506 254.231895 
L 160.22736 238.963065 
L 160.443418 104.814488 
L 160.509485 120.149555 
L 160.688045 172.345738 
L 160.73447 163.868629 
L 160.996954 115.817265 
L 161.000525 115.810803 
L 161.018381 116.084903 
L 161.080877 121.568521 
L 161.179085 137.10682 
L 161.218368 126.758167 
L 161.291578 84.143355 
L 161.354074 110.718141 
L 161.659411 240.069697 
L 161.854042 255.315371 
L 161.909395 256.176444 
L 161.964749 255.323988 
L 162.179021 246.288377 
L 162.291514 154.130106 
L 162.418291 105.644866 
L 162.461146 112.733773 
L 162.671846 173.591892 
L 162.728986 161.541525 
L 162.971827 116.419316 
L 162.986112 116.248071 
L 163.025395 117.485021 
L 163.118246 131.217114 
L 163.164672 137.328361 
L 163.203955 126.843628 
L 163.275379 84.158433 
L 163.339661 111.201182 
L 163.641427 239.876373 
L 163.834272 254.43922 
L 163.886054 255.18613 
L 163.941408 254.375677 
L 164.168179 244.70732 
L 164.277101 159.177694 
L 164.414592 106.560867 
L 164.453875 112.296506 
L 164.678861 174.92355 
L 164.741357 160.964353 
L 164.977056 117.061755 
L 164.996698 116.758575 
L 165.039552 118.26478 
L 165.141331 134.145192 
L 165.173472 137.602085 
L 165.212755 127.196943 
L 165.284179 84.286598 
L 165.348461 111.426817 
L 165.650227 240.070236 
L 165.843072 253.589995 
L 165.887712 254.118809 
L 165.94128 253.373515 
L 166.178765 244.211355 
L 166.268045 179.384925 
L 166.435891 107.564644 
L 166.462675 110.047162 
L 166.685875 173.343268 
L 166.712659 176.361708 
L 166.762656 166.735749 
L 167.019782 117.510331 
L 167.034067 117.346625 
L 167.07335 118.598116 
L 167.166202 132.3322 
L 167.209056 137.927074 
L 167.248339 127.905295 
L 167.321549 84.529465 
L 167.384045 111.29219 
L 167.685811 239.98569 
L 167.87687 252.568447 
L 167.917939 252.972327 
L 167.969722 252.268498 
L 168.219706 242.918938 
L 168.303629 187.405428 
L 168.487546 108.65889 
L 168.508973 110.140323 
L 168.655392 147.549387 
L 168.778598 177.938586 
L 168.837523 164.9821 
L 169.078579 118.451642 
L 169.103578 118.015451 
L 169.148218 119.71821 
L 169.276781 138.308983 
L 169.321421 124.918304 
L 169.389274 84.898342 
L 169.45177 111.654067 
L 169.753536 239.837062 
L 169.94281 251.454276 
L 169.978522 251.744531 
L 170.030304 251.072474 
L 170.292787 241.614136 
L 170.369568 197.103402 
L 170.573126 109.848991 
L 170.589197 110.600747 
L 170.669549 130.22863 
L 170.88025 179.704609 
L 170.928461 170.30052 
L 171.187373 119.053693 
L 171.207014 118.768284 
L 171.249869 120.27018 
L 171.355219 136.431855 
L 171.380218 138.748997 
L 171.417715 129.695723 
L 171.49271 85.39323 
L 171.556992 113.093496 
L 171.855187 239.223703 
L 172.04089 250.178552 
L 172.074816 250.433266 
L 172.126598 249.803213 
L 172.399795 240.729369 
L 172.467648 209.740601 
L 172.69799 111.139254 
L 172.715846 112.032637 
L 172.806912 133.484013 
L 173.024755 181.744641 
L 173.076538 170.276438 
L 173.32295 120.199097 
L 173.35152 119.611586 
L 173.399731 121.496361 
L 173.524723 139.251101 
L 173.567578 126.916004 
L 173.637216 86.026515 
L 173.699712 112.339048 
L 174.003264 239.223703 
L 174.187181 248.901214 
L 174.212179 249.034763 
L 174.26039 248.523182 
L 174.39431 243.274892 
L 174.583584 231.248951 
L 174.867494 112.539911 
L 174.962131 130.434986 
L 175.215686 184.20858 
L 175.256755 176.002857 
L 175.52281 120.823227 
L 175.542451 120.551819 
L 175.585306 122.029537 
L 175.692442 137.996541 
L 175.715654 139.815241 
L 175.751366 131.303221 
L 175.828147 86.80735 
L 175.892429 114.106967 
L 176.190624 238.108455 
L 176.372755 247.434859 
L 176.395968 247.545791 
L 176.442394 247.1026 
L 176.560243 242.697612 
L 176.795942 226.627591 
L 177.086995 114.059039 
L 177.16199 126.208352 
L 177.460186 187.391642 
L 177.492326 181.903178 
L 177.785165 121.598139 
L 177.803021 121.855114 
L 177.863731 126.811533 
L 177.956582 140.455364 
L 177.995866 130.699931 
L 178.069075 87.740044 
L 178.135142 114.681554 
L 178.435123 237.51125 
L 178.613683 245.89796 
L 178.631539 245.96258 
L 178.676179 245.584548 
L 178.786886 241.726145 
L 179.058298 223.751209 
L 179.36185 115.70364 
L 179.433274 126.120198 
L 179.624333 145.633595 
L 179.686829 160.5245 
L 179.770752 192.032604 
L 179.827891 173.538472 
L 180.040378 124.00995 
L 180.083232 122.76476 
L 180.135014 124.838551 
L 180.256435 141.16404 
L 180.297504 130.086087 
L 180.368928 88.834291 
L 180.43321 114.143047 
L 180.740333 237.1036 
L 180.917107 244.268976 
L 180.926035 244.280284 
L 180.958176 244.083729 
L 181.049242 241.594211 
L 181.37065 224.067098 
L 181.6992 117.490407 
L 181.795622 133.03856 
L 181.895616 144.743981 
L 181.947398 142.770137 
L 182.002752 140.175287 
L 182.04025 143.719687 
L 182.11703 185.483065 
L 182.156314 200.766435 
L 182.213453 175.828067 
L 182.406298 125.058854 
L 182.443795 124.10462 
L 182.493792 126.124129 
L 182.613427 141.958553 
L 182.656282 130.923035 
L 182.729491 90.103013 
L 182.791987 114.374066 
L 183.102682 236.177368 
L 183.275885 242.497826 
L 183.283027 242.494595 
L 183.302669 242.396586 
L 183.37945 240.78645 
L 183.73657 225.305772 
L 183.84192 186.384149 
L 184.097261 119.493114 
L 184.102618 119.431186 
L 184.129402 120.725757 
L 184.311533 148.014873 
L 184.452595 142.613485 
L 184.484736 145.479743 
L 184.536518 176.092706 
L 184.593658 286.328533 
L 184.638298 166.703492 
L 184.693651 101.036323 
L 184.766861 116.743497 
L 185.016845 142.800347 
L 185.025773 142.420269 
L 185.065056 128.586937 
L 185.132909 91.554828 
L 185.195405 114.634165 
L 185.511456 235.202132 
L 185.675731 240.628668 
L 185.681088 240.62436 
L 185.722157 240.289408 
L 185.829293 237.1036 
L 186.195341 216.788744 
L 186.559603 121.52544 
L 186.636384 131.609255 
L 186.875654 211.699798 
L 186.920294 295.488 
L 186.970291 186.078385 
L 187.050643 111.283574 
L 187.107782 121.476974 
L 187.213133 132.740281 
L 187.26313 131.43117 
L 187.386336 126.70324 
L 187.438118 128.405407 
L 187.564896 143.809402 
L 187.60775 133.521116 
L 187.682746 93.250049 
L 187.747027 116.272842 
L 188.063078 233.672772 
L 188.220211 238.589341 
L 188.230925 238.569955 
L 188.284493 237.970597 
L 188.420198 233.243043 
L 188.793389 210.952673 
L 189.171936 123.882163 
L 189.221933 128.034752 
L 189.412992 179.152387 
L 189.496915 290.826144 
L 189.550483 196.806146 
L 189.655834 118.822673 
L 189.700474 124.254163 
L 189.845107 140.313737 
L 189.889747 139.29165 
L 190.098662 128.498891 
L 190.170086 131.81141 
L 190.277222 144.933805 
L 190.318291 136.024151 
L 190.396858 95.241448 
L 190.462925 118.043453 
L 190.780762 232.021709 
L 190.928966 236.359922 
L 190.945037 236.317918 
L 191.007533 235.493464 
L 191.164666 229.709898 
L 191.561069 206.131042 
L 191.962829 126.555635 
L 191.998541 128.480582 
L 192.094963 152.212051 
L 192.221741 225.654563 
L 192.268166 283.588609 
L 192.321734 210.174853 
L 192.464582 125.648681 
L 192.48601 126.70087 
L 192.691354 147.346963 
L 192.782419 144.188457 
L 193.019904 130.489752 
L 193.078829 132.619548 
L 193.20025 146.224822 
L 193.243104 136.70687 
L 193.32167 97.590416 
L 193.387738 119.02946 
L 193.710931 230.166014 
L 193.846637 233.894637 
L 193.871635 233.814399 
L 193.950202 232.560755 
L 194.144832 224.933448 
L 194.550163 201.806992 
L 194.984064 129.638157 
L 195.007277 130.364549 
L 195.071558 141.767545 
L 195.217978 216.602097 
L 195.278688 274.162042 
L 195.332256 219.94208 
L 195.512602 132.509908 
L 195.530458 132.029936 
L 195.576883 134.848536 
L 195.817939 154.580082 
L 195.864365 153.861229 
L 195.989357 146.707539 
L 196.226842 132.787616 
L 196.271482 133.840397 
L 196.371475 144.547857 
L 196.410758 147.741634 
L 196.450042 140.573028 
L 196.53575 100.407346 
L 196.605389 122.056085 
L 196.928582 227.741224 
L 197.057146 231.11217 
L 197.085715 231.006085 
L 197.174995 229.49288 
L 197.405338 220.547738 
L 197.848166 197.309165 
L 198.32135 133.267533 
L 198.332064 133.375127 
L 198.374918 136.946452 
L 198.469555 169.939112 
L 198.614189 262.213109 
L 198.676685 219.242936 
L 198.873101 143.972946 
L 198.957024 137.810217 
L 199.010592 139.946367 
L 199.365926 162.638517 
L 199.419494 161.880946 
L 199.544486 155.177071 
L 199.864109 135.53761 
L 199.91232 136.659266 
L 200.021242 147.690099 
L 200.051597 149.578213 
L 200.089094 143.856844 
L 200.181946 103.888795 
L 200.25337 124.598485 
L 200.58192 224.97809 
L 200.701555 227.865457 
L 200.737267 227.700405 
L 200.839046 225.823062 
L 201.130099 214.891099 
L 201.599712 193.848288 
L 202.135392 137.641611 
L 202.14432 137.711671 
L 202.183603 140.16974 
L 202.26217 163.554087 
L 202.435373 247.080521 
L 202.497869 225.137704 
L 202.729997 159.217867 
L 202.949626 142.828188 
L 202.971053 143.014135 
L 203.054976 146.445556 
L 203.651366 173.935147 
L 203.667437 174.053645 
L 203.708506 173.240435 
L 203.826355 164.108211 
L 204.190618 139.011735 
L 204.210259 139.178456 
L 204.274541 142.280257 
L 204.381677 151.917272 
L 204.424531 145.536232 
L 204.519168 108.421409 
L 204.590592 126.485413 
L 204.936998 221.798475 
L 205.040563 223.880074 
L 205.085203 223.643562 
L 205.204838 221.287647 
L 206.019072 195.541516 
L 206.219059 175.404667 
L 206.54761 148.352355 
L 206.704742 142.915695 
L 206.745811 144.129544 
L 206.813664 156.482251 
L 207.02615 228.824054 
L 207.110074 218.631192 
L 207.461837 167.448193 
L 207.82967 149.831473 
L 207.895738 149.176433 
L 207.94752 149.683545 
L 208.045728 153.902532 
L 208.218931 172.979566 
L 208.361779 214.164329 
L 208.429632 234.949572 
L 208.484986 220.364861 
L 208.736755 159.745927 
L 208.943885 147.175825 
L 208.967098 147.354394 
L 209.058163 150.463788 
L 209.552774 168.191118 
L 209.67241 169.999694 
L 209.718835 169.626024 
L 209.824186 166.139352 
L 210.258086 144.157601 
L 210.338438 146.503391 
L 210.459859 155.464688 
L 210.504499 150.128459 
L 210.60985 115.443003 
L 210.684845 131.083725 
L 211.050893 216.558263 
L 211.143744 218.07136 
L 211.193741 217.797529 
L 211.329446 215.217057 
L 212.443661 183.635609 
L 212.972198 151.452056 
L 213.113261 149.054676 
L 213.156115 149.663728 
L 213.225754 155.659412 
L 213.354317 193.983238 
L 213.479309 210.78412 
L 213.516806 210.141358 
L 213.693581 201.382864 
L 214.53817 159.016142 
L 214.913146 155.884562 
L 214.92743 155.889354 
L 214.950643 155.982947 
L 215.01671 157.21742 
L 215.111347 164.325122 
L 215.414899 205.004432 
L 215.52025 202.756703 
L 215.841658 187.269562 
L 216.434477 161.330268 
L 216.68089 159.557072 
L 217.002298 158.120281 
L 217.05408 158.305797 
L 217.132646 159.81744 
L 217.239782 167.414537 
L 217.564762 201.223466 
L 217.6344 200.5359 
L 217.836173 195.075276 
L 218.116512 181.677274 
L 218.559341 160.056645 
L 218.762899 159.192288 
L 219.011098 158.335307 
L 219.12359 158.021681 
L 219.166445 158.142683 
L 219.24144 159.245815 
L 219.345005 165.000248 
L 219.707482 199.73067 
L 219.816403 198.709768 
L 220.041389 193.615761 
L 220.234234 183.50529 
L 220.66992 158.53714 
L 220.841338 158.228037 
L 220.987757 157.928627 
L 221.166317 157.418714 
L 221.214528 157.568312 
L 221.293094 158.841127 
L 221.398445 165.18404 
L 221.762707 199.104494 
L 221.843059 198.652417 
L 222.041261 195.75568 
L 222.201965 189.698929 
L 222.403738 171.259564 
L 222.637651 158.096856 
L 222.794784 157.545587 
L 222.951917 157.449948 
L 223.151904 156.991409 
L 223.207258 157.186026 
L 223.28761 158.615062 
L 223.394746 165.500844 
L 223.76615 198.658179 
L 223.817933 198.497866 
L 223.98935 196.984769 
L 224.128627 193.657441 
L 224.280403 183.247399 
L 224.646451 157.20692 
L 224.73216 157.012895 
L 224.783942 157.044183 
L 224.914291 157.035836 
L 224.92679 157.018173 
L 225.103565 156.70627 
L 225.153562 156.867929 
L 225.233914 158.137837 
L 225.339264 164.275848 
L 225.737453 198.28354 
L 225.799949 198.142182 
L 225.964224 197.083208 
L 226.082074 194.453462 
L 226.219565 185.09184 
L 226.60704 156.651665 
L 226.662394 156.567873 
L 226.72489 156.632817 
L 226.851667 156.698354 
L 226.883808 156.664589 
L 227.028442 156.477081 
L 227.071296 156.593991 
L 227.148077 157.571866 
L 227.249856 162.468457 
L 227.424845 185.637132 
L 227.624832 197.72877 
L 227.696256 197.960813 
L 227.755181 197.892961 
L 227.887315 197.428014 
L 227.987309 195.899246 
L 228.106944 189.603991 
L 228.569414 156.147568 
L 228.612269 156.192372 
L 228.789043 156.382142 
L 228.828326 156.345578 
L 228.931891 156.264263 
L 228.967603 156.344285 
L 229.042598 157.106488 
L 229.140806 160.991871 
L 229.287226 178.356118 
L 229.521139 197.133827 
L 229.676486 197.714284 
L 229.788979 197.633724 
L 229.86576 197.034419 
L 229.963968 193.985823 
L 230.101459 180.764101 
L 230.392512 156.037228 
L 230.463936 155.719509 
L 230.522861 155.814179 
L 230.710349 156.087633 
L 230.74249 156.069054 
L 230.824627 156.061246 
L 230.851411 156.12479 
L 230.926406 156.804978 
L 231.024614 160.329561 
L 231.165677 175.901727 
L 231.417446 196.702591 
L 231.588864 197.554455 
L 231.687072 197.692798 
L 231.728141 197.595274 
L 231.80135 196.683366 
L 231.90313 191.786614 
L 232.085261 168.099572 
L 232.290605 155.465657 
L 232.345958 155.265009 
L 232.408454 155.399744 
L 232.64951 155.815525 
L 232.728077 155.936312 
L 232.806643 156.708693 
L 232.906637 160.48562 
L 233.054842 177.094837 
L 233.297683 196.227951 
L 233.483386 197.403727 
L 233.597664 197.716061 
L 233.640518 197.577988 
L 233.713728 196.297472 
L 233.817293 189.556225 
L 234.213696 154.775399 
L 234.254765 154.856228 
L 234.676166 156.668143 
L 234.779731 160.886162 
L 234.944006 179.775746 
L 235.172563 195.849919 
L 235.374336 197.305665 
L 235.4904 197.74121 
L 235.53504 197.555478 
L 235.610035 195.844534 
L 235.718957 186.690613 
L 236.072506 154.249331 
L 236.117146 154.361287 
L 236.536762 156.694045 
L 236.645683 161.54594 
L 236.840314 184.106587 
L 237.0528 195.710499 
L 237.293856 197.484019 
L 237.368851 197.759734 
L 237.413491 197.550363 
L 237.488486 195.583896 
L 237.597408 185.157053 
L 237.918816 153.691922 
L 237.931315 153.693646 
L 237.963456 153.798008 
L 238.370573 156.368841 
L 238.48128 160.688045 
L 238.652698 179.040399 
L 238.890182 195.056267 
L 239.118739 197.138243 
L 239.236589 197.771689 
L 239.281229 197.545731 
L 239.354438 195.467256 
L 239.46336 184.164907 
L 239.766912 153.100695 
L 239.782982 153.117389 
L 239.80441 153.204412 
L 240.186528 155.916172 
L 240.297235 159.270694 
L 240.447226 172.588233 
L 240.740064 194.727993 
L 240.982906 197.117403 
L 241.097184 197.781705 
L 241.141824 197.527261 
L 241.215034 195.232574 
L 241.323955 182.871467 
L 241.607866 152.486474 
L 241.620365 152.497621 
L 241.641792 152.588952 
L 241.975699 155.295004 
L 242.093549 157.681237 
L 242.229254 166.33133 
L 242.639942 195.258315 
L 242.948851 197.797107 
L 242.964922 197.768996 
L 243.016704 197.125534 
L 243.100627 192.571703 
L 243.243475 168.57852 
L 243.439891 151.856636 
L 243.448819 151.848882 
L 243.484531 152.013288 
L 243.839866 155.711539 
L 243.968429 159.629394 
L 244.130918 173.37713 
L 244.425542 194.209626 
L 244.691597 197.14239 
L 244.796947 197.82484 
L 244.841587 197.542447 
L 244.914797 194.956805 
L 245.023718 180.978561 
L 245.280845 151.184364 
L 245.286202 151.189588 
L 245.334413 151.543548 
L 245.732602 157.278056 
L 245.877235 164.979946 
L 246.361133 195.375279 
L 246.639686 197.871851 
L 246.682541 197.596513 
L 246.75575 194.940111 
L 246.864672 180.359412 
L 247.111085 150.480051 
L 247.121798 150.502506 
L 247.191437 151.274349 
L 247.605696 159.224113 
L 247.771757 171.137231 
L 248.111021 194.13962 
L 248.439571 197.80233 
L 248.478854 197.942665 
L 248.521709 197.641586 
L 248.594918 194.778128 
L 248.70384 179.18418 
L 248.937754 149.709285 
L 248.950253 149.743104 
L 249.025248 150.745158 
L 249.443078 160.172155 
L 249.62521 174.018088 
L 249.930547 193.818562 
L 250.257312 197.747779 
L 250.312666 198.038681 
L 250.359091 197.675189 
L 250.432301 194.443284 
L 250.544794 176.50892 
L 250.760851 148.829096 
L 250.77335 148.868299 
L 250.848346 150.01855 
L 251.269747 160.913248 
L 251.466163 176.108797 
L 251.751859 193.57995 
L 252.092909 197.882783 
L 252.144691 198.154998 
L 252.189331 197.781544 
L 252.262541 194.320236 
L 252.375034 175.019027 
L 252.578592 147.774968 
L 252.594662 147.838943 
L 252.680371 149.458718 
L 253.103558 162.467972 
L 253.337472 181.570003 
L 253.582099 193.537139 
L 253.960646 198.267492 
L 253.97136 198.281278 
L 254.003501 198.082623 
L 254.067782 195.764512 
L 254.16599 181.754334 
L 254.392762 146.454979 
L 254.428474 146.799032 
L 254.62489 152.215497 
L 254.930227 164.442732 
L 255.537331 195.272693 
L 255.790886 198.399588 
L 255.839098 197.871421 
L 255.912307 193.312904 
L 256.031942 167.303281 
L 256.199789 144.737411 
L 256.221216 144.883347 
L 256.326566 147.827796 
L 256.721184 165.445863 
L 257.276506 194.112372 
L 257.596128 198.486611 
L 257.640768 198.01504 
L 257.712192 193.591959 
L 257.82647 167.967153 
L 257.997888 142.405568 
L 258.021101 142.598461 
L 258.124666 146.129452 
L 258.504998 167.946851 
L 258.97104 192.160445 
L 259.369229 198.528238 
L 259.392442 198.422906 
L 259.447795 196.746425 
L 259.53529 185.299596 
L 259.778131 138.975655 
L 259.844198 140.75989 
L 260.047757 155.799639 
L 260.51737 185.808485 
L 260.851277 195.36047 
L 261.06912 198.601905 
L 261.108403 198.258769 
L 261.178042 194.824494 
L 261.285178 175.216097 
L 261.49945 133.116159 
L 261.542304 134.739058 
L 261.695866 154.589721 
L 261.992275 179.48765 
L 262.440461 197.386764 
L 262.581523 199.333952 
L 262.622592 199.068899 
L 262.702944 196.369147 
L 262.829722 182.662526 
L 263.020781 133.304744 
L 263.081491 122.446826 
L 263.136845 131.645765 
L 263.433254 184.79076 
L 263.756448 203.002801 
L 263.767162 202.969952 
L 263.824301 201.939034 
L 264.243917 191.216388 
L 264.302842 191.357262 
L 264.379622 191.602067 
L 264.422477 191.39178 
L 264.495686 189.308512 
L 264.618893 177.390208 
L 264.720672 169.153969 
L 264.772454 171.842853 
L 265.183142 209.53613 
L 265.247424 207.751356 
L 265.372416 197.730978 
L 265.417056 203.818747 
L 265.515264 240.209171 
L 265.586688 223.553631 
L 265.945594 130.318076 
L 266.047373 128.480259 
L 266.093798 128.706594 
L 266.215219 130.94086 
L 267.03481 155.078201 
L 267.222298 174.501462 
L 267.579418 206.964813 
L 267.688339 211.31245 
L 267.731194 209.309957 
L 267.800832 189.81067 
L 267.982963 113.334747 
L 268.045459 124.374143 
L 268.365082 190.408628 
L 268.640064 207.296641 
L 268.652563 207.253722 
L 268.707917 205.966097 
L 269.232883 181.809639 
L 269.304307 134.131783 
L 269.350733 90.938238 
L 269.40073 148.410137 
L 269.516794 225.457254 
L 269.559648 222.081245 
L 269.71321 210.469525 
L 269.756064 211.04885 
L 269.877485 213.740255 
L 269.929267 212.585911 
L 270.04176 201.893099 
L 270.068544 200.376232 
L 270.107827 205.87062 
L 270.20425 245.310448 
L 270.275674 225.357253 
L 270.611366 126.840774 
L 270.731002 124.136661 
L 270.766714 124.281842 
L 270.866707 125.977063 
L 271.143475 135.711009 
L 271.627373 156.618062 
L 272.138054 216.207694 
L 272.16841 215.086253 
L 272.232691 200.582319 
L 272.420179 95.06751 
L 272.498746 138.335693 
L 272.70409 202.029395 
L 272.829082 212.043958 
L 272.875507 210.731239 
L 273.312979 184.237983 
L 273.411187 187.562995 
L 273.818304 216.596766 
L 273.904013 212.411112 
L 273.99865 202.430475 
L 274.039718 209.298433 
L 274.128998 249.220548 
L 274.196851 228.622545 
L 274.527187 123.791909 
L 274.657536 120.612671 
L 274.686106 120.717141 
L 274.775386 122.164002 
L 275.005728 130.652004 
L 275.434272 152.018727 
L 275.893171 220.284678 
L 275.928883 218.513259 
L 276.005664 197.612183 
L 276.175296 80.652214 
L 276.243149 141.925435 
L 276.428851 216.133111 
L 276.459206 217.416858 
L 276.51456 214.190501 
L 276.775258 193.66875 
L 276.816326 194.269185 
L 276.928819 200.668911 
L 277.209158 219.121449 
L 277.25737 217.798014 
L 277.387718 204.09247 
L 277.432358 213.248598 
L 277.51271 252.308886 
L 277.578778 231.532206 
L 277.907328 121.240031 
L 278.046605 117.658421 
L 278.068032 117.72358 
L 278.144813 118.850675 
L 278.337658 125.988425 
L 278.735846 147.757251 
L 279.155462 223.6392 
L 279.194746 221.268638 
L 279.289382 194.38561 
L 279.410803 105.670176 
L 279.446515 69.689825 
L 279.500083 137.205905 
L 279.660787 223.615075 
L 279.669715 223.462516 
L 279.726854 217.092192 
L 279.901843 201.401658 
L 279.93577 201.912432 
L 280.044691 208.415389 
L 280.255392 221.267346 
L 280.300032 220.030125 
L 280.407168 207.222865 
L 280.432166 205.488603 
L 280.469664 212.469324 
L 280.553587 254.856563 
L 280.62144 231.550515 
L 280.937491 119.622356 
L 281.091053 115.074664 
L 281.103552 115.096204 
L 281.160691 115.71818 
L 281.301754 120.328339 
L 281.70887 142.667067 
L 282.101702 226.488549 
L 282.15527 221.713552 
L 282.323117 169.398989 
L 282.408826 61.285884 
L 282.462394 149.374873 
L 282.580243 230.295794 
L 282.615955 226.843533 
L 282.778445 208.551578 
L 282.828442 209.86532 
L 283.058784 223.143073 
L 283.131994 219.423551 
L 283.233773 206.695128 
L 283.274842 215.804299 
L 283.353408 257.001437 
L 283.419475 233.0998 
L 283.731955 117.992834 
L 283.89623 112.758006 
L 283.901587 112.762853 
L 283.944442 113.097804 
L 284.056934 116.25561 
L 284.447981 136.152531 
L 284.826528 228.969451 
L 284.908666 217.451323 
L 285.11401 138.380173 
L 285.160435 55.282068 
L 285.210432 157.96223 
L 285.299712 237.497788 
L 285.35328 228.959542 
L 285.469344 215.800206 
L 285.517555 217.130373 
L 285.676474 224.824616 
L 285.735398 222.51539 
L 285.853248 207.751895 
L 285.894317 217.645885 
L 285.971098 258.821053 
L 286.035379 234.498842 
L 286.346074 116.515709 
L 286.519277 110.649751 
L 286.547846 110.782224 
L 286.63177 112.580299 
L 287.008531 128.728834 
L 287.124595 170.227229 
L 287.37815 231.135865 
L 287.381722 231.167098 
L 287.404934 230.224711 
L 287.492429 212.696898 
L 287.73527 134.67056 
L 287.774554 53.568 
L 287.82455 182.700545 
L 287.887046 246.020739 
L 287.954899 231.826231 
L 288.037037 224.426497 
L 288.094176 225.634584 
L 288.142387 226.504381 
L 288.188813 225.20981 
L 288.287021 212.283916 
L 288.322733 208.68292 
L 288.362016 217.825154 
L 288.438797 260.38757 
L 288.503078 235.578548 
L 288.811987 115.269065 
L 288.986976 108.721896 
L 288.995904 108.717588 
L 289.022688 108.864062 
L 289.108397 110.871077 
L 289.454803 127.128337 
L 289.592294 185.033789 
L 289.80121 233.135342 
L 289.819066 232.430974 
L 289.897632 217.308349 
L 289.994054 205.602444 
L 290.047622 208.105425 
L 290.147616 217.275177 
L 290.186899 210.892576 
L 290.285107 140.526447 
L 290.356531 186.284256 
L 290.527949 227.11564 
L 290.536877 227.192054 
L 290.570803 226.259198 
L 290.660083 214.581672 
L 290.702938 209.511844 
L 290.742221 218.545946 
L 290.819002 261.740299 
L 290.883283 235.919962 
L 291.186835 114.517847 
L 291.365395 106.93836 
L 291.37968 106.907665 
L 291.417178 107.172611 
L 291.515386 110.056855 
L 291.820723 127.344979 
L 292.136774 234.939879 
L 292.224269 220.937995 
L 292.334976 207.467348 
L 292.386758 208.330305 
L 292.392115 208.354107 
L 292.413542 207.791744 
L 292.463539 197.854027 
L 292.558176 155.322683 
L 292.620672 179.404435 
L 292.818874 227.571379 
L 292.858157 228.637515 
L 292.908154 226.588388 
L 293.027789 210.267638 
L 293.070643 221.93014 
L 293.142067 262.918553 
L 293.204563 237.713729 
L 293.511686 113.243201 
L 293.692032 105.246371 
L 293.708102 105.197905 
L 293.750957 105.550627 
L 293.861664 109.279789 
L 294.125933 125.996018 
L 294.424128 236.61302 
L 294.500909 224.267907 
L 294.808032 161.38945 
L 294.836602 166.765259 
L 295.122298 229.785289 
L 295.125869 229.775596 
L 295.156224 228.872143 
L 295.241933 217.696559 
L 295.293715 210.947342 
L 295.332998 221.163198 
L 295.406208 263.927715 
L 295.47049 237.263537 
L 295.772256 112.795163 
L 295.956173 103.691162 
L 295.979386 103.590462 
L 296.025811 104.044423 
L 296.150803 108.67343 
L 296.370432 123.032668 
L 296.656128 238.16069 
L 296.738266 223.790897 
L 297.011462 165.208004 
L 297.047174 172.017308 
L 297.323942 230.74814 
L 297.33287 230.803067 
L 297.365011 229.959227 
L 297.447149 219.476863 
L 297.504288 211.552462 
L 297.543571 221.8226 
L 297.616781 264.774248 
L 297.681062 237.446629 
L 297.981043 112.251271 
L 298.166746 102.250118 
L 298.195315 102.080488 
L 298.245312 102.627072 
L 298.395302 108.288936 
L 298.552435 116.27715 
L 298.67207 187.810223 
L 298.838131 239.588811 
L 298.868486 237.115986 
L 299.136326 173.793175 
L 299.170253 168.028219 
L 299.223821 180.52384 
L 299.463091 231.036779 
L 299.493446 231.715837 
L 299.541658 229.815984 
L 299.66665 212.092962 
L 299.709504 224.941902 
L 299.777357 265.475385 
L 299.839853 239.636199 
L 300.14519 111.339579 
L 300.334464 100.84623 
L 300.363034 100.664214 
L 300.41303 101.238801 
L 300.684442 109.851684 
L 300.752294 142.355487 
L 300.97728 240.90923 
L 300.995136 239.857526 
L 301.098701 214.576987 
L 301.28976 170.29611 
L 301.348685 184.718493 
L 301.582598 231.914546 
L 301.611168 232.533291 
L 301.659379 230.628591 
L 301.784371 212.565125 
L 301.827226 224.949765 
L 301.896864 266.032739 
L 301.95936 239.223164 
L 302.261126 111.290036 
L 302.452186 99.637281 
L 302.487898 99.33841 
L 302.53968 99.985695 
L 302.798592 108.906604 
L 302.875373 154.869637 
L 303.07536 242.125717 
L 303.09143 241.176868 
L 303.182496 217.621706 
L 303.369984 172.21494 
L 303.423552 183.915632 
L 303.668179 232.866088 
L 303.691392 233.262968 
L 303.736032 231.575287 
L 303.864595 212.98026 
L 303.909235 226.480417 
L 303.977088 266.463007 
L 304.039584 239.558654 
L 304.34135 111.08648 
L 304.534195 98.505339 
L 304.575264 98.099843 
L 304.627046 98.786978 
L 304.873459 107.68527 
L 304.957382 164.857974 
L 305.137728 243.248505 
L 305.159155 241.532283 
L 305.318074 198.734378 
L 305.418067 173.905524 
L 305.473421 186.002563 
L 305.716262 233.58338 
L 305.73769 233.909176 
L 305.780544 232.311964 
L 305.889466 215.195786 
L 305.910893 213.340683 
L 305.94839 222.236012 
L 306.023386 266.772648 
L 306.087667 238.992145 
L 306.385862 111.442433 
L 306.578707 97.5818 
L 306.628704 96.944746 
L 306.682272 97.698656 
L 306.916186 106.678261 
L 307.009037 176.496873 
L 307.167955 244.277053 
L 307.19831 241.051396 
L 307.435795 175.429717 
L 307.516147 195.880937 
L 307.73399 234.19297 
L 307.753632 234.476763 
L 307.796486 232.90163 
L 307.901837 216.293479 
L 307.928621 213.643108 
L 307.966118 222.64867 
L 308.041114 266.957895 
L 308.105395 239.168236 
L 308.40359 111.599678 
L 308.598221 96.682493 
L 308.653574 95.871501 
L 308.707142 96.651259 
L 308.930342 105.665868 
L 309.033907 188.728593 
L 309.173184 245.221595 
L 309.212467 239.442875 
L 309.43031 176.82672 
L 309.492806 191.045897 
L 309.72672 234.742247 
L 309.744576 234.969497 
L 309.785645 233.504219 
L 309.885638 217.973998 
L 309.92135 213.894645 
L 309.960634 224.237535 
L 310.033843 267.023592 
L 310.096339 240.274869 
L 310.399891 111.215722 
L 310.596307 95.772416 
L 310.653446 94.877956 
L 310.7088 95.729335 
L 310.810579 98.52688 
L 310.873075 97.275389 
L 310.874861 97.274851 
L 310.880218 97.341087 
L 310.908787 100.88231 
L 310.97664 149.653119 
L 311.1552 246.081052 
L 311.180198 243.436982 
L 311.401613 178.126234 
L 311.489107 200.874028 
L 311.701594 235.297986 
L 311.712307 235.389532 
L 311.748019 234.338366 
L 311.835514 222.092177 
L 311.890867 214.096477 
L 311.93015 224.025094 
L 312.00336 266.990744 
L 312.067642 239.900068 
L 312.369408 111.92709 
L 312.565824 95.192444 
L 312.631891 93.961416 
L 312.685459 94.780486 
L 312.77831 97.171996 
L 312.833664 95.826267 
L 312.844378 95.685716 
L 312.86759 97.344318 
L 312.919373 125.411038 
L 313.117574 246.854348 
L 313.153286 241.126248 
L 313.353274 179.346987 
L 313.419341 194.186524 
L 313.647898 235.584472 
L 313.662182 235.7401 
L 313.701466 234.450914 
L 313.796102 220.363084 
L 313.842528 214.249952 
L 313.881811 224.199463 
L 313.955021 266.843193 
L 314.019302 240.214556 
L 314.32464 111.99548 
L 314.522842 94.515002 
L 314.590694 93.121345 
L 314.646048 93.959262 
L 314.728186 95.924275 
L 314.778182 94.604932 
L 314.796038 94.196206 
L 314.822822 96.768115 
L 314.879962 135.853714 
L 315.062093 247.553869 
L 315.090662 243.638922 
L 315.29065 180.501761 
L 315.36743 199.155006 
L 315.585274 235.934501 
L 315.595987 236.022278 
L 315.631699 234.971651 
L 315.720979 222.550716 
L 315.778118 214.356361 
L 315.819187 225.060374 
L 315.892397 266.590633 
L 315.954893 240.844071 
L 316.263802 112.343894 
L 316.462003 94.043808 
L 316.536998 92.357204 
L 316.590566 93.177889 
L 316.663776 94.780486 
L 316.710202 93.492377 
L 316.733414 92.806857 
L 316.761984 96.177373 
L 316.826266 148.010026 
L 316.992326 248.176383 
L 317.020896 244.257128 
L 317.213741 181.601183 
L 317.292307 200.531538 
L 317.508365 236.184369 
L 317.517293 236.238758 
L 317.547648 235.467616 
L 317.628 225.58768 
L 317.70121 214.416997 
L 317.740493 224.019063 
L 317.815488 266.242219 
L 317.87977 240.171475 
L 318.186893 113.642235 
L 318.383309 93.958724 
L 318.469018 91.666838 
L 318.522586 92.454674 
L 318.586867 93.739013 
L 318.631507 92.479445 
L 318.658291 91.511748 
L 318.686861 95.03143 
L 318.751142 149.551988 
L 318.911846 248.720814 
L 318.942202 244.208663 
L 319.127904 182.654987 
L 319.201114 199.95162 
L 319.418957 236.337843 
L 319.427885 236.390078 
L 319.45824 235.622706 
L 319.540378 225.552462 
L 319.613587 214.432021 
L 319.654656 224.532906 
L 319.729651 265.787719 
L 319.792147 241.062166 
L 320.106413 113.699855 
L 320.304614 93.511763 
L 320.392109 91.050786 
L 320.445677 91.809542 
L 320.50103 92.798241 
L 320.543885 91.591985 
L 320.57424 90.313569 
L 320.60281 93.98888 
L 320.667091 151.094541 
L 320.822438 249.187161 
L 320.854579 244.177429 
L 321.033139 183.663126 
L 321.104563 200.183716 
L 321.324192 236.452007 
L 321.329549 236.477317 
L 321.356333 235.934501 
L 321.431328 227.914031 
L 321.518822 214.402565 
L 321.559891 224.216049 
L 321.634886 265.23521 
L 321.699168 240.630283 
L 322.013434 115.18075 
L 322.20985 93.680316 
L 322.309843 90.507971 
L 322.361626 91.219338 
L 322.408051 91.956016 
L 322.450906 90.766992 
L 322.484832 89.210707 
L 322.513402 93.389522 
L 322.581254 158.206227 
L 322.729459 249.582964 
L 322.7616 243.859172 
L 322.933018 184.633085 
L 323.002656 200.391957 
L 323.222285 236.482163 
L 323.227642 236.502088 
L 323.25264 236.0142 
L 323.32585 228.594811 
L 323.418701 214.329651 
L 323.45977 223.67221 
L 323.53655 264.589002 
L 323.600832 240.448806 
L 323.916883 116.628795 
L 324.113299 93.842406 
L 324.222221 90.038931 
L 324.272218 90.670061 
L 324.313286 91.211799 
L 324.35257 90.134785 
L 324.390067 88.202622 
L 324.418637 92.37659 
L 324.48649 159.174517 
L 324.631123 249.906606 
L 324.66505 243.459061 
L 324.829325 185.566211 
L 324.897178 200.371978 
L 325.118592 236.455238 
L 325.122163 236.463854 
L 325.141805 236.171983 
L 325.206086 230.852072 
L 325.316794 214.211556 
L 325.359648 224.379916 
L 325.436429 263.841016 
L 325.498925 240.880689 
L 325.820333 117.69827 
L 326.016749 94.003959 
L 326.132813 89.64259 
L 326.181024 90.188636 
L 326.21495 90.566129 
L 326.252448 89.627511 
L 326.295302 87.28716 
L 326.322086 91.300114 
L 326.388154 157.291465 
L 326.531002 250.158089 
L 326.566714 243.225887 
L 326.725632 186.46891 
L 326.791699 200.515006 
L 327.013114 236.356691 
L 327.016685 236.363692 
L 327.036326 236.066436 
L 327.102394 230.603281 
L 327.214886 214.053128 
L 327.257741 224.18083 
L 327.334522 263.000945 
L 327.398803 240.206478 
L 327.718426 120.651982 
L 327.913056 94.863954 
L 328.04519 89.320024 
L 328.08983 89.765369 
L 328.1184 90.018468 
L 328.154112 89.177858 
L 328.200538 86.467013 
L 328.227322 90.56936 
L 328.295174 160.75762 
L 328.432666 250.330411 
L 328.470163 242.766002 
L 328.623725 187.34113 
L 328.688006 200.625615 
L 328.911206 236.200524 
L 328.914778 236.197293 
L 328.923706 236.108978 
L 328.975488 233.223118 
L 329.112979 213.846556 
L 329.16119 225.509004 
L 329.236186 262.061788 
L 329.298682 240.817145 
L 329.627232 121.44628 
L 329.821862 95.146671 
L 329.959354 89.070695 
L 330.003994 89.439572 
L 330.023635 89.569891 
L 330.057562 88.902142 
L 330.109344 85.742183 
L 330.136128 89.945769 
L 330.203981 161.938943 
L 330.339686 250.434343 
L 330.377184 242.322811 
L 330.525389 188.186586 
L 330.58967 201.067783 
L 330.81287 235.977043 
L 330.830726 235.749794 
L 330.893222 231.240874 
L 331.018214 213.596635 
L 331.062854 223.458585 
L 331.141421 261.020316 
L 331.205702 240.098238 
L 331.532467 125.350779 
L 331.728883 96.14614 
L 331.880659 88.89568 
L 331.921728 89.160087 
L 331.936013 89.222016 
L 331.966368 88.727128 
L 332.025293 85.109976 
L 332.050291 89.150933 
L 332.116358 159.799347 
L 332.252064 250.46073 
L 332.289562 242.191954 
L 332.435981 189.003232 
L 332.498477 201.619161 
L 332.719891 235.689481 
L 332.735962 235.514466 
L 332.796672 231.527359 
L 332.928806 213.302395 
L 332.975232 223.14442 
L 333.055584 259.888374 
L 333.119866 239.444491 
L 333.441274 131.211944 
L 333.648403 96.912435 
L 333.810893 88.794979 
L 333.850176 88.966763 
L 333.857318 88.975918 
L 333.878746 88.749745 
L 333.948384 84.576853 
L 333.973382 88.570422 
L 334.03945 160.328591 
L 334.17337 250.411187 
L 334.210867 241.983013 
L 334.353715 189.789398 
L 334.416211 202.048835 
L 334.63584 235.338374 
L 334.637626 235.337836 
L 334.659053 234.999115 
L 334.730477 229.289863 
L 334.850112 212.963189 
L 334.894752 221.622868 
L 334.978675 258.6525 
L 335.042957 239.233934 
L 335.362579 136.603369 
L 335.591136 96.687339 
L 335.753626 88.766977 
L 335.791123 88.830521 
L 335.819693 88.359327 
L 335.883974 84.140663 
L 335.908973 88.577423 
L 335.978611 167.165747 
L 336.105389 250.286792 
L 336.144672 241.31688 
L 336.283949 190.55284 
L 336.346445 202.635108 
L 336.564288 234.923724 
L 336.567859 234.918339 
L 336.596429 234.281823 
L 336.680352 226.197647 
L 336.783917 212.579018 
L 336.826771 220.201263 
L 336.914266 257.313233 
L 336.980333 238.152612 
L 337.169606 140.469473 
L 337.289242 143.907464 
L 337.614221 91.468129 
L 337.832064 83.806788 
L 337.842778 84.377606 
L 337.87849 103.113344 
L 338.051693 250.077313 
L 338.112403 231.318957 
L 338.228467 191.288764 
L 338.282035 200.565679 
L 338.508806 234.443375 
L 338.514163 234.420758 
L 338.553446 233.154728 
L 338.658797 220.657648 
L 338.732006 212.146113 
L 338.774861 219.128072 
L 338.865926 255.873803 
L 338.933779 236.768649 
L 339.124838 140.071355 
L 339.237331 148.256393 
L 339.324826 121.22603 
L 339.521242 96.410547 
L 339.721229 88.609195 
L 339.778368 84.818105 
L 339.79801 83.574153 
L 339.826579 89.62805 
L 339.921216 200.87699 
L 340.017638 249.792981 
L 340.067635 235.446076 
L 340.190842 192.000562 
L 340.246195 201.601498 
L 340.469395 233.896252 
L 340.474752 233.876327 
L 340.514035 232.672226 
L 340.619386 220.746178 
L 340.697952 211.666464 
L 340.742592 218.518213 
L 340.835443 254.325057 
L 340.903296 236.433698 
L 341.101498 139.581852 
L 341.210419 150.787538 
L 341.253274 142.019997 
L 341.492544 98.363173 
L 341.708602 88.680816 
L 341.774669 83.840714 
L 341.785382 83.448143 
L 341.810381 88.507955 
L 341.888947 181.649864 
L 342.00144 249.428412 
L 342.04608 238.013139 
L 342.172858 192.681774 
L 342.231782 202.759772 
L 342.451411 233.279662 
L 342.454982 233.26943 
L 342.488909 232.435282 
L 342.585331 223.048296 
L 342.68711 211.136358 
L 342.73175 217.828547 
L 342.828173 252.667532 
L 342.896026 235.390609 
L 343.099584 138.992994 
L 343.20672 152.66192 
L 343.210291 152.693315 
L 343.228147 151.510322 
L 343.31207 124.526917 
L 343.50313 98.968455 
L 343.72633 88.603271 
L 343.794182 83.428756 
L 343.820966 89.031384 
L 343.908461 193.300519 
L 344.01024 248.973912 
L 344.058451 235.860726 
L 344.179872 193.339453 
L 344.238797 203.132096 
L 344.45664 232.593603 
L 344.461997 232.57691 
L 344.499494 231.576902 
L 344.603059 221.238697 
L 344.699482 210.553532 
L 344.744122 216.548193 
L 344.844115 250.900152 
L 344.913754 234.411603 
L 345.124454 138.285827 
L 345.229805 153.905817 
L 345.24409 154.581913 
L 345.281587 149.425061 
L 345.581568 96.036284 
L 345.831552 83.525149 
L 345.838694 83.833714 
L 345.870835 98.141308 
L 346.045824 248.428404 
L 346.119034 223.384432 
L 346.21367 193.972414 
L 346.27081 202.745664 
L 346.490438 231.833231 
L 346.497581 231.806306 
L 346.540435 230.52089 
L 346.654714 218.641639 
L 346.740422 209.918255 
L 346.786848 215.699236 
L 346.890413 249.012685 
L 346.960051 233.578533 
L 347.177894 137.429655 
L 347.28503 154.722733 
L 347.310029 156.704708 
L 347.354669 149.139383 
L 347.61001 100.385806 
L 347.899277 83.742706 
L 347.906419 83.990958 
L 347.936774 96.366389 
L 348.113549 247.789735 
L 348.193901 219.587473 
L 348.281395 194.572257 
L 348.338534 203.266292 
L 348.556378 230.99693 
L 348.56352 230.97162 
L 348.606374 229.750825 
L 348.720653 218.545785 
L 348.81529 209.225789 
L 348.85993 214.133688 
L 348.968851 247.001361 
L 349.042061 231.861772 
L 349.267046 136.397767 
L 349.374182 154.761882 
L 349.41168 159.123251 
L 349.459891 150.08414 
L 349.699162 102.654536 
L 350.004499 84.081427 
L 350.00807 84.163819 
L 350.033069 91.149332 
L 350.218771 247.054673 
L 350.331264 205.069699 
L 350.384832 195.145875 
L 350.443757 203.964036 
L 350.658029 230.080929 
L 350.666957 230.049696 
L 350.713382 228.681242 
L 350.836589 216.671672 
L 350.927654 208.475056 
L 350.972294 212.980045 
L 351.086573 244.865103 
L 351.161568 230.342644 
L 351.397267 135.137553 
L 351.506189 154.678683 
L 351.556186 161.940505 
L 351.604397 151.996487 
L 351.834739 104.432687 
L 352.149005 84.554775 
L 352.157933 85.00389 
L 352.191859 102.273273 
L 352.363277 246.216756 
L 352.425773 227.241705 
L 352.529338 195.687613 
L 352.584691 203.321651 
L 352.802534 229.081353 
L 352.813248 229.031971 
L 352.86503 227.371539 
L 353.004307 213.662872 
L 353.081088 207.661264 
L 353.127514 211.810569 
L 353.247149 242.593142 
L 353.32393 228.927878 
L 353.572128 133.588214 
L 353.684621 153.982393 
L 353.747117 165.32906 
L 353.795328 154.71654 
L 354.020314 105.866193 
L 354.339936 85.170288 
L 354.352435 86.058825 
L 354.393504 114.113429 
L 354.555994 245.262521 
L 354.600634 234.314134 
L 354.720269 196.195586 
L 354.780979 204.492365 
L 354.993466 227.993407 
L 355.002394 227.960773 
L 355.048819 226.727538 
L 355.173811 216.01464 
L 355.284518 206.781182 
L 355.330944 210.57001 
L 355.457722 240.181168 
L 355.534502 227.669387 
L 355.732704 143.537617 
L 355.798771 131.649481 
L 355.857696 137.677368 
L 355.993402 169.630709 
L 356.050541 153.282388 
L 356.246957 108.133307 
L 356.584435 85.929583 
L 356.602291 88.373867 
L 356.657645 142.496145 
L 356.798707 244.200047 
L 356.836205 236.789112 
L 356.964768 196.670711 
L 357.030835 205.729801 
L 357.237965 226.811976 
L 357.245107 226.786289 
L 357.291533 225.657794 
L 357.416525 215.774789 
L 357.541517 205.831309 
L 357.587942 209.171453 
L 357.721862 237.618952 
L 357.802214 225.790697 
L 357.987917 151.860729 
L 358.086125 129.156516 
L 358.137907 133.108189 
L 358.259328 166.238976 
L 358.305754 175.663238 
L 358.352179 161.387781 
L 358.553952 108.304553 
L 358.884288 86.850969 
L 358.905715 90.308723 
L 358.969997 158.630463 
L 359.100346 243.008869 
L 359.139629 235.114894 
L 359.264621 197.103833 
L 359.330688 205.285909 
L 359.537818 225.532806 
L 359.548531 225.494195 
L 359.600314 224.15202 
L 359.73959 213.182416 
L 359.85744 204.805615 
L 359.903866 207.613014 
L 360.048499 234.90326 
L 360.132422 223.528483 
L 360.314554 156.894747 
L 360.443117 125.782392 
L 360.485971 127.610247 
L 360.580608 143.54898 
L 360.696672 186.280271 
L 360.748454 160.623478 
L 360.919872 107.817742 
L 361.244851 87.945215 
L 361.271635 94.036807 
L 361.460909 241.684142 
L 361.58233 203.272108 
L 361.62697 197.491719 
L 361.68768 204.281863 
L 361.900166 224.151859 
L 361.91088 224.110286 
L 361.964448 222.769403 
L 362.109082 212.067437 
L 362.235859 203.702698 
L 362.282285 206.039442 
L 362.437632 232.030325 
L 362.528698 220.842625 
L 362.710829 159.994394 
L 362.90903 119.560966 
L 363.001882 113.96157 
L 363.096518 91.258111 
L 363.141158 73.788941 
L 363.167942 105.176365 
L 363.22151 264.502302 
L 363.296506 163.213966 
L 363.462566 101.76223 
L 363.650054 89.243017 
L 363.673267 93.110575 
L 363.744691 168.005064 
L 363.869683 240.235019 
L 363.908966 233.035179 
L 364.035744 197.82457 
L 364.101811 204.930871 
L 364.308941 222.675595 
L 364.319654 222.638385 
L 364.373222 221.40795 
L 364.519642 211.48488 
L 364.664275 202.527191 
L 364.710701 204.465924 
L 364.830336 225.135119 
L 364.880333 229.020178 
L 364.937472 224.640123 
L 365.098176 187.23876 
L 365.476723 74.854108 
L 365.496365 88.745437 
L 365.566003 263.62669 
L 365.658854 179.049451 
L 365.840986 119.111851 
L 366.103469 98.678739 
L 366.201677 90.720142 
L 366.232032 97.726658 
L 366.423091 238.584495 
L 366.533798 206.497927 
L 366.590938 198.122203 
L 366.653434 204.037757 
L 366.864134 221.039395 
L 366.876634 220.99443 
L 366.933773 219.694366 
L 367.090906 209.639308 
L 367.242682 201.227558 
L 367.287322 202.660741 
L 367.390886 217.359453 
L 367.47481 225.75424 
L 367.530163 222.338813 
L 367.687296 192.050051 
L 368.051558 80.495508 
L 368.083699 111.781693 
L 368.153338 256.167828 
L 368.23369 206.070137 
L 368.437248 132.76893 
L 368.78544 101.760615 
L 368.896147 94.083658 
L 368.917574 92.504755 
L 368.949715 100.034699 
L 369.14256 236.711567 
L 369.246125 208.548616 
L 369.312192 198.355969 
L 369.372902 203.439799 
L 369.585389 219.223173 
L 369.599674 219.168999 
L 369.660384 217.815515 
L 369.830016 207.690613 
L 369.99072 199.788667 
L 370.03536 200.854857 
L 370.133568 211.637493 
L 370.244275 222.21291 
L 370.296058 219.763834 
L 370.444262 197.066137 
L 370.637107 133.43237 
L 370.819238 87.165996 
L 370.842451 96.629719 
L 370.937088 247.614182 
L 371.051366 196.900008 
L 371.265638 141.424192 
L 371.74775 102.650228 
L 371.845958 94.631858 
L 371.876314 101.355119 
L 372.074515 234.561308 
L 372.185222 206.398949 
L 372.247718 198.515206 
L 372.308429 203.159883 
L 372.51913 217.186808 
L 372.5352 217.127195 
L 372.599482 215.75831 
L 372.781613 205.803684 
L 372.960173 198.180039 
L 372.999456 198.823232 
L 373.090522 205.733732 
L 373.238726 218.356769 
L 373.292294 216.342483 
L 373.438714 198.150906 
L 373.624416 148.848374 
L 373.820832 94.518233 
L 373.849402 102.308276 
L 373.96368 238.189769 
L 374.099386 200.092708 
L 374.344013 150.652911 
L 375.06361 97.209153 
L 375.09575 104.302368 
L 375.297523 232.044865 
L 375.402874 207.713553 
L 375.474298 198.577619 
L 375.533222 202.345176 
L 375.745709 214.863958 
L 375.76535 214.784043 
L 375.83856 213.20751 
L 376.056403 202.192186 
L 376.229606 196.3552 
L 376.267104 196.746802 
L 376.354598 201.125727 
L 376.543872 214.134335 
L 376.606368 212.15866 
L 376.763501 195.84098 
L 376.95456 154.592952 
L 377.138477 101.897934 
L 377.184902 112.316969 
L 377.325965 227.831639 
L 377.458099 208.301172 
L 377.827718 157.113812 
L 377.988422 150.878707 
L 378.715162 100.425656 
L 378.754445 110.479044 
L 378.956218 229.009516 
L 379.03657 213.993353 
L 379.138349 198.500074 
L 379.193702 201.247106 
L 379.40976 212.135558 
L 379.434758 212.019671 
L 379.518682 210.204956 
L 379.952582 194.236282 
L 380.056147 196.34066 
L 380.316845 209.505812 
L 380.40791 206.536376 
L 380.613254 187.076992 
L 380.790029 151.620716 
L 380.938234 109.022921 
L 380.995373 119.446803 
L 381.193574 216.421805 
L 381.331066 207.330297 
L 381.586406 175.327636 
L 381.82032 156.761251 
L 381.84889 156.605946 
L 381.902458 157.077355 
L 382.034592 161.241469 
L 382.172083 165.335199 
L 382.220294 164.45264 
L 382.32743 155.934912 
L 382.734547 123.925351 
L 383.061312 104.638935 
L 383.084525 107.142454 
L 383.150592 151.856259 
L 383.314867 225.173137 
L 383.339866 223.563109 
L 383.505926 198.190432 
L 383.607706 203.433768 
L 383.773766 208.785721 
L 383.798765 208.68782 
L 383.882688 207.177846 
L 384.161242 196.693221 
L 384.398726 191.711976 
L 384.407654 191.7214 
L 384.457651 192.102017 
L 384.573715 195.148675 
L 384.836198 204.606852 
L 384.90048 203.508728 
L 385.048685 194.688413 
L 385.325453 165.7953 
L 385.520083 118.352556 
L 385.59865 135.287258 
L 385.900416 204.234851 
L 385.925414 204.050251 
L 386.039693 200.980814 
L 386.327174 187.337845 
L 386.614656 160.566827 
L 386.961062 127.381328 
L 386.991418 128.974016 
L 387.052128 150.22216 
L 387.214618 212.041588 
L 387.261043 210.611852 
L 387.486029 193.192925 
L 387.889574 162.137706 
L 387.927072 162.024781 
L 387.982426 162.244276 
L 388.17527 163.776706 
L 388.239552 163.301797 
L 388.348474 159.871722 
L 388.773446 134.537818 
L 389.20199 111.257187 
L 389.226989 113.587307 
L 389.296627 152.79547 
L 389.475187 219.381925 
L 389.494829 218.715845 
L 389.596608 203.281101 
L 389.684102 197.318858 
L 389.739456 198.643478 
L 389.943014 203.933072 
L 389.980512 203.775397 
L 390.087648 201.936718 
L 390.691181 188.406243 
L 390.744749 188.573234 
L 390.85367 189.948958 
L 391.064371 196.087939 
L 391.232218 200.086516 
L 391.275072 199.679781 
L 391.382208 195.438284 
L 391.805395 166.352924 
L 392.021453 132.348948 
L 392.100019 143.312252 
L 392.387501 183.460971 
L 392.662483 194.363155 
L 392.753549 195.097894 
L 392.803546 194.861812 
L 392.912467 192.77709 
L 393.464218 174.156279 
L 393.680275 162.293011 
L 393.914189 140.766352 
L 393.987398 145.607423 
L 394.444512 187.558417 
L 394.696282 192.90477 
L 394.728422 192.980215 
L 394.778419 192.776874 
L 394.885555 190.984076 
L 395.660506 168.963229 
L 395.862278 156.337931 
L 396.03191 144.627556 
L 396.083693 146.418953 
L 396.339034 171.473437 
L 396.690797 189.320951 
L 396.906854 194.171338 
L 396.931853 194.078931 
L 397.008634 192.632662 
L 397.896077 163.031628 
L 398.149632 145.722771 
L 398.224627 149.027051 
L 398.822803 189.640717 
L 399.028147 196.348953 
L 399.063859 196.027842 
L 399.163853 192.216665 
L 399.579898 176.166214 
L 399.888806 166.117435 
L 400.190573 146.060038 
L 400.28521 151.056792 
L 400.729824 182.29548 
L 401.061946 197.900446 
L 401.113728 197.059944 
L 401.26729 188.503982 
L 401.57977 176.375666 
L 401.895821 165.225452 
L 402.177946 146.368549 
L 402.261869 150.371326 
L 402.786835 186.00644 
L 403.042176 198.978053 
L 403.090387 198.163776 
L 403.236806 189.37701 
L 403.54393 176.418752 
L 403.861766 164.577358 
L 404.129606 146.702585 
L 404.208173 150.104442 
L 404.91527 197.766627 
L 404.990266 199.837025 
L 405.043834 198.733086 
L 405.233107 186.402674 
L 405.536659 174.817625 
L 405.800928 163.986455 
L 406.058054 147.057515 
L 406.131264 150.016181 
L 406.916928 200.609083 
L 406.922285 200.593197 
L 406.963354 199.653125 
L 407.120486 188.91384 
L 407.416896 175.802861 
L 407.715091 163.698515 
L 407.965075 147.440771 
L 408.034714 149.981178 
L 408.823949 201.357877 
L 408.875731 200.128788 
L 409.090003 184.852042 
L 409.400698 173.124467 
L 409.634611 161.90604 
L 409.856026 147.860806 
L 409.916736 149.696792 
L 410.609549 196.703937 
L 410.71847 202.111141 
L 410.768467 200.847641 
L 410.995238 184.013587 
L 411.316646 171.914927 
L 411.541632 159.860629 
L 411.734477 148.316652 
L 411.786259 149.614185 
L 412.038029 167.365479 
L 412.530854 200.137081 
L 412.602278 202.877544 
L 412.655846 201.241452 
L 413.600429 148.801793 
L 413.646854 149.750804 
L 413.803987 160.735433 
L 414.475373 203.65504 
L 414.500371 203.244913 
L 414.591437 196.647286 
L 414.718214 185.57445 
L 414.718214 185.57445 
" style="fill:none;stroke:#000000;stroke-linecap:square;stroke-width:1.5;"/>
   </g>
   <g id="patch_3">
    <path d="M 57.6 307.584 
L 57.6 41.472 
" style="fill:none;stroke:#000000;stroke-linecap:square;stroke-linejoin:miter;stroke-width:0.8;"/>
   </g>
   <g id="patch_4">
    <path d="M 414.72 307.584 
L 414.72 41.472 
" style="fill:none;stroke:#000000;stroke-linecap:square;stroke-linejoin:miter;stroke-width:0.8;"/>
   </g>
   <g id="patch_5">
    <path d="M 57.6 307.584 
L 414.72 307.584 
" style="fill:none;stroke:#000000;stroke-linecap:square;stroke-linejoin:miter;stroke-width:0.8;"/>
   </g>
   <g id="patch_6">
    <path d="M 57.6 41.472 
L 414.72 41.472 
" style="fill:none;stroke:#000000;stroke-linecap:square;stroke-linejoin:miter;stroke-width:0.8;"/>
   </g>
   <g id="legend_1">
    <g id="patch_7">
     <path d="M 358.02 64.42825 
L 407.72 64.42825 
Q 409.72 64.42825 409.72 62.42825 
L 409.72 48.472 
Q 409.72 46.472 407.72 46.472 
L 358.02 46.472 
Q 356.02 46.472 356.02 48.472 
L 356.02 62.42825 
Q 356.02 64.42825 358.02 64.42825 
z
" style="fill:#ffffff;opacity:0.8;stroke:#cccccc;stroke-linejoin:miter;"/>
    </g>
    <g id="line2d_30">
     <path d="M 360.02 54.570437 
L 380.02 54.570437 
" style="fill:none;stroke:#000000;stroke-linecap:square;stroke-width:1.5;"/>
    </g>
    <g id="line2d_31"/>
    <g id="text_15">
     <!-- u_1 -->
     <g transform="translate(388.02 58.070437)scale(0.1 -0.1)">
      <defs>
       <path d="M 8.5 21.578125 
L 8.5 54.6875 
L 17.484375 54.6875 
L 17.484375 21.921875 
Q 17.484375 14.15625 20.5 10.265625 
Q 23.53125 6.390625 29.59375 6.390625 
Q 36.859375 6.390625 41.078125 11.03125 
Q 45.3125 15.671875 45.3125 23.6875 
L 45.3125 54.6875 
L 54.296875 54.6875 
L 54.296875 0 
L 45.3125 0 
L 45.3125 8.40625 
Q 42.046875 3.421875 37.71875 1 
Q 33.40625 -1.421875 27.6875 -1.421875 
Q 18.265625 -1.421875 13.375 4.4375 
Q 8.5 10.296875 8.5 21.578125 
z
M 31.109375 56 
z
" id="DejaVuSans-117"/>
       <path d="M 50.984375 -16.609375 
L 50.984375 -23.578125 
L -0.984375 -23.578125 
L -0.984375 -16.609375 
z
" id="DejaVuSans-95"/>
      </defs>
      <use xlink:href="#DejaVuSans-117"/>
      <use x="63.378906" xlink:href="#DejaVuSans-95"/>
      <use x="113.378906" xlink:href="#DejaVuSans-49"/>
     </g>
    </g>
   </g>
  </g>
 </g>
 <defs>
  <clipPath id="pf53134d72d">
   <rect height="266.112" width="357.12" x="57.6" y="41.472"/>
  </clipPath>
 </defs>
</svg>
