<?xml version="1.0" encoding="utf-8" standalone="no"?>
<!DOCTYPE svg PUBLIC "-//W3C//DTD SVG 1.1//EN"
  "http://www.w3.org/Graphics/SVG/1.1/DTD/svg11.dtd">
<!-- Created with matplotlib (https://matplotlib.org/) -->
<svg height="345.6pt" version="1.1" viewBox="0 0 460.8 345.6" width="460.8pt" xmlns="http://www.w3.org/2000/svg" xmlns:xlink="http://www.w3.org/1999/xlink">
 <metadata>
  <rdf:RDF xmlns:cc="http://creativecommons.org/ns#" xmlns:dc="http://purl.org/dc/elements/1.1/" xmlns:rdf="http://www.w3.org/1999/02/22-rdf-syntax-ns#">
   <cc:Work>
    <dc:type rdf:resource="http://purl.org/dc/dcmitype/StillImage"/>
    <dc:date>2021-04-02T13:59:51.961221</dc:date>
    <dc:format>image/svg+xml</dc:format>
    <dc:creator>
     <cc:Agent>
      <dc:title>Matplotlib v3.3.1, https://matplotlib.org/</dc:title>
     </cc:Agent>
    </dc:creator>
   </cc:Work>
  </rdf:RDF>
 </metadata>
 <defs>
  <style type="text/css">*{stroke-linecap:butt;stroke-linejoin:round;}</style>
 </defs>
 <g id="figure_1">
  <g id="patch_1">
   <path d="M 0 345.6 
L 460.8 345.6 
L 460.8 0 
L 0 0 
z
" style="fill:#ffffff;"/>
  </g>
  <g id="axes_1">
   <g id="patch_2">
    <path d="M 57.6 307.584 
L 414.72 307.584 
L 414.72 41.472 
L 57.6 41.472 
z
" style="fill:#ffffff;"/>
   </g>
   <g id="matplotlib.axis_1">
    <g id="xtick_1">
     <g id="line2d_1">
      <path clip-path="url(#p9d9ad95797)" d="M 57.6 307.584 
L 57.6 41.472 
" style="fill:none;stroke:#b0b0b0;stroke-linecap:square;stroke-width:0.8;"/>
     </g>
     <g id="line2d_2">
      <defs>
       <path d="M 0 0 
L 0 3.5 
" id="m1a1e77c055" style="stroke:#000000;stroke-width:0.8;"/>
      </defs>
      <g>
       <use style="stroke:#000000;stroke-width:0.8;" x="57.6" xlink:href="#m1a1e77c055" y="307.584"/>
      </g>
     </g>
     <g id="text_1">
      <!-- 0 -->
      <g transform="translate(54.41875 322.182437)scale(0.1 -0.1)">
       <defs>
        <path d="M 31.78125 66.40625 
Q 24.171875 66.40625 20.328125 58.90625 
Q 16.5 51.421875 16.5 36.375 
Q 16.5 21.390625 20.328125 13.890625 
Q 24.171875 6.390625 31.78125 6.390625 
Q 39.453125 6.390625 43.28125 13.890625 
Q 47.125 21.390625 47.125 36.375 
Q 47.125 51.421875 43.28125 58.90625 
Q 39.453125 66.40625 31.78125 66.40625 
z
M 31.78125 74.21875 
Q 44.046875 74.21875 50.515625 64.515625 
Q 56.984375 54.828125 56.984375 36.375 
Q 56.984375 17.96875 50.515625 8.265625 
Q 44.046875 -1.421875 31.78125 -1.421875 
Q 19.53125 -1.421875 13.0625 8.265625 
Q 6.59375 17.96875 6.59375 36.375 
Q 6.59375 54.828125 13.0625 64.515625 
Q 19.53125 74.21875 31.78125 74.21875 
z
" id="DejaVuSans-48"/>
       </defs>
       <use xlink:href="#DejaVuSans-48"/>
      </g>
     </g>
    </g>
    <g id="xtick_2">
     <g id="line2d_3">
      <path clip-path="url(#p9d9ad95797)" d="M 102.24 307.584 
L 102.24 41.472 
" style="fill:none;stroke:#b0b0b0;stroke-linecap:square;stroke-width:0.8;"/>
     </g>
     <g id="line2d_4">
      <g>
       <use style="stroke:#000000;stroke-width:0.8;" x="102.24" xlink:href="#m1a1e77c055" y="307.584"/>
      </g>
     </g>
     <g id="text_2">
      <!-- 250 -->
      <g transform="translate(92.69625 322.182437)scale(0.1 -0.1)">
       <defs>
        <path d="M 19.1875 8.296875 
L 53.609375 8.296875 
L 53.609375 0 
L 7.328125 0 
L 7.328125 8.296875 
Q 12.9375 14.109375 22.625 23.890625 
Q 32.328125 33.6875 34.8125 36.53125 
Q 39.546875 41.84375 41.421875 45.53125 
Q 43.3125 49.21875 43.3125 52.78125 
Q 43.3125 58.59375 39.234375 62.25 
Q 35.15625 65.921875 28.609375 65.921875 
Q 23.96875 65.921875 18.8125 64.3125 
Q 13.671875 62.703125 7.8125 59.421875 
L 7.8125 69.390625 
Q 13.765625 71.78125 18.9375 73 
Q 24.125 74.21875 28.421875 74.21875 
Q 39.75 74.21875 46.484375 68.546875 
Q 53.21875 62.890625 53.21875 53.421875 
Q 53.21875 48.921875 51.53125 44.890625 
Q 49.859375 40.875 45.40625 35.40625 
Q 44.1875 33.984375 37.640625 27.21875 
Q 31.109375 20.453125 19.1875 8.296875 
z
" id="DejaVuSans-50"/>
        <path d="M 10.796875 72.90625 
L 49.515625 72.90625 
L 49.515625 64.59375 
L 19.828125 64.59375 
L 19.828125 46.734375 
Q 21.96875 47.46875 24.109375 47.828125 
Q 26.265625 48.1875 28.421875 48.1875 
Q 40.625 48.1875 47.75 41.5 
Q 54.890625 34.8125 54.890625 23.390625 
Q 54.890625 11.625 47.5625 5.09375 
Q 40.234375 -1.421875 26.90625 -1.421875 
Q 22.3125 -1.421875 17.546875 -0.640625 
Q 12.796875 0.140625 7.71875 1.703125 
L 7.71875 11.625 
Q 12.109375 9.234375 16.796875 8.0625 
Q 21.484375 6.890625 26.703125 6.890625 
Q 35.15625 6.890625 40.078125 11.328125 
Q 45.015625 15.765625 45.015625 23.390625 
Q 45.015625 31 40.078125 35.4375 
Q 35.15625 39.890625 26.703125 39.890625 
Q 22.75 39.890625 18.8125 39.015625 
Q 14.890625 38.140625 10.796875 36.28125 
z
" id="DejaVuSans-53"/>
       </defs>
       <use xlink:href="#DejaVuSans-50"/>
       <use x="63.623047" xlink:href="#DejaVuSans-53"/>
       <use x="127.246094" xlink:href="#DejaVuSans-48"/>
      </g>
     </g>
    </g>
    <g id="xtick_3">
     <g id="line2d_5">
      <path clip-path="url(#p9d9ad95797)" d="M 146.88 307.584 
L 146.88 41.472 
" style="fill:none;stroke:#b0b0b0;stroke-linecap:square;stroke-width:0.8;"/>
     </g>
     <g id="line2d_6">
      <g>
       <use style="stroke:#000000;stroke-width:0.8;" x="146.88" xlink:href="#m1a1e77c055" y="307.584"/>
      </g>
     </g>
     <g id="text_3">
      <!-- 500 -->
      <g transform="translate(137.33625 322.182437)scale(0.1 -0.1)">
       <use xlink:href="#DejaVuSans-53"/>
       <use x="63.623047" xlink:href="#DejaVuSans-48"/>
       <use x="127.246094" xlink:href="#DejaVuSans-48"/>
      </g>
     </g>
    </g>
    <g id="xtick_4">
     <g id="line2d_7">
      <path clip-path="url(#p9d9ad95797)" d="M 191.52 307.584 
L 191.52 41.472 
" style="fill:none;stroke:#b0b0b0;stroke-linecap:square;stroke-width:0.8;"/>
     </g>
     <g id="line2d_8">
      <g>
       <use style="stroke:#000000;stroke-width:0.8;" x="191.52" xlink:href="#m1a1e77c055" y="307.584"/>
      </g>
     </g>
     <g id="text_4">
      <!-- 750 -->
      <g transform="translate(181.97625 322.182437)scale(0.1 -0.1)">
       <defs>
        <path d="M 8.203125 72.90625 
L 55.078125 72.90625 
L 55.078125 68.703125 
L 28.609375 0 
L 18.3125 0 
L 43.21875 64.59375 
L 8.203125 64.59375 
z
" id="DejaVuSans-55"/>
       </defs>
       <use xlink:href="#DejaVuSans-55"/>
       <use x="63.623047" xlink:href="#DejaVuSans-53"/>
       <use x="127.246094" xlink:href="#DejaVuSans-48"/>
      </g>
     </g>
    </g>
    <g id="xtick_5">
     <g id="line2d_9">
      <path clip-path="url(#p9d9ad95797)" d="M 236.16 307.584 
L 236.16 41.472 
" style="fill:none;stroke:#b0b0b0;stroke-linecap:square;stroke-width:0.8;"/>
     </g>
     <g id="line2d_10">
      <g>
       <use style="stroke:#000000;stroke-width:0.8;" x="236.16" xlink:href="#m1a1e77c055" y="307.584"/>
      </g>
     </g>
     <g id="text_5">
      <!-- 1000 -->
      <g transform="translate(223.435 322.182437)scale(0.1 -0.1)">
       <defs>
        <path d="M 12.40625 8.296875 
L 28.515625 8.296875 
L 28.515625 63.921875 
L 10.984375 60.40625 
L 10.984375 69.390625 
L 28.421875 72.90625 
L 38.28125 72.90625 
L 38.28125 8.296875 
L 54.390625 8.296875 
L 54.390625 0 
L 12.40625 0 
z
" id="DejaVuSans-49"/>
       </defs>
       <use xlink:href="#DejaVuSans-49"/>
       <use x="63.623047" xlink:href="#DejaVuSans-48"/>
       <use x="127.246094" xlink:href="#DejaVuSans-48"/>
       <use x="190.869141" xlink:href="#DejaVuSans-48"/>
      </g>
     </g>
    </g>
    <g id="xtick_6">
     <g id="line2d_11">
      <path clip-path="url(#p9d9ad95797)" d="M 280.8 307.584 
L 280.8 41.472 
" style="fill:none;stroke:#b0b0b0;stroke-linecap:square;stroke-width:0.8;"/>
     </g>
     <g id="line2d_12">
      <g>
       <use style="stroke:#000000;stroke-width:0.8;" x="280.8" xlink:href="#m1a1e77c055" y="307.584"/>
      </g>
     </g>
     <g id="text_6">
      <!-- 1250 -->
      <g transform="translate(268.075 322.182437)scale(0.1 -0.1)">
       <use xlink:href="#DejaVuSans-49"/>
       <use x="63.623047" xlink:href="#DejaVuSans-50"/>
       <use x="127.246094" xlink:href="#DejaVuSans-53"/>
       <use x="190.869141" xlink:href="#DejaVuSans-48"/>
      </g>
     </g>
    </g>
    <g id="xtick_7">
     <g id="line2d_13">
      <path clip-path="url(#p9d9ad95797)" d="M 325.44 307.584 
L 325.44 41.472 
" style="fill:none;stroke:#b0b0b0;stroke-linecap:square;stroke-width:0.8;"/>
     </g>
     <g id="line2d_14">
      <g>
       <use style="stroke:#000000;stroke-width:0.8;" x="325.44" xlink:href="#m1a1e77c055" y="307.584"/>
      </g>
     </g>
     <g id="text_7">
      <!-- 1500 -->
      <g transform="translate(312.715 322.182437)scale(0.1 -0.1)">
       <use xlink:href="#DejaVuSans-49"/>
       <use x="63.623047" xlink:href="#DejaVuSans-53"/>
       <use x="127.246094" xlink:href="#DejaVuSans-48"/>
       <use x="190.869141" xlink:href="#DejaVuSans-48"/>
      </g>
     </g>
    </g>
    <g id="xtick_8">
     <g id="line2d_15">
      <path clip-path="url(#p9d9ad95797)" d="M 370.08 307.584 
L 370.08 41.472 
" style="fill:none;stroke:#b0b0b0;stroke-linecap:square;stroke-width:0.8;"/>
     </g>
     <g id="line2d_16">
      <g>
       <use style="stroke:#000000;stroke-width:0.8;" x="370.08" xlink:href="#m1a1e77c055" y="307.584"/>
      </g>
     </g>
     <g id="text_8">
      <!-- 1750 -->
      <g transform="translate(357.355 322.182437)scale(0.1 -0.1)">
       <use xlink:href="#DejaVuSans-49"/>
       <use x="63.623047" xlink:href="#DejaVuSans-55"/>
       <use x="127.246094" xlink:href="#DejaVuSans-53"/>
       <use x="190.869141" xlink:href="#DejaVuSans-48"/>
      </g>
     </g>
    </g>
    <g id="xtick_9">
     <g id="line2d_17">
      <path clip-path="url(#p9d9ad95797)" d="M 414.72 307.584 
L 414.72 41.472 
" style="fill:none;stroke:#b0b0b0;stroke-linecap:square;stroke-width:0.8;"/>
     </g>
     <g id="line2d_18">
      <g>
       <use style="stroke:#000000;stroke-width:0.8;" x="414.72" xlink:href="#m1a1e77c055" y="307.584"/>
      </g>
     </g>
     <g id="text_9">
      <!-- 2000 -->
      <g transform="translate(401.995 322.182437)scale(0.1 -0.1)">
       <use xlink:href="#DejaVuSans-50"/>
       <use x="63.623047" xlink:href="#DejaVuSans-48"/>
       <use x="127.246094" xlink:href="#DejaVuSans-48"/>
       <use x="190.869141" xlink:href="#DejaVuSans-48"/>
      </g>
     </g>
    </g>
   </g>
   <g id="matplotlib.axis_2">
    <g id="ytick_1">
     <g id="line2d_19">
      <path clip-path="url(#p9d9ad95797)" d="M 57.6 281.124187 
L 414.72 281.124187 
" style="fill:none;stroke:#b0b0b0;stroke-linecap:square;stroke-width:0.8;"/>
     </g>
     <g id="line2d_20">
      <defs>
       <path d="M 0 0 
L -3.5 0 
" id="mc9271e28df" style="stroke:#000000;stroke-width:0.8;"/>
      </defs>
      <g>
       <use style="stroke:#000000;stroke-width:0.8;" x="57.6" xlink:href="#mc9271e28df" y="281.124187"/>
      </g>
     </g>
     <g id="text_10">
      <!-- −0.2 -->
      <g transform="translate(26.317187 284.923406)scale(0.1 -0.1)">
       <defs>
        <path d="M 10.59375 35.5 
L 73.1875 35.5 
L 73.1875 27.203125 
L 10.59375 27.203125 
z
" id="DejaVuSans-8722"/>
        <path d="M 10.6875 12.40625 
L 21 12.40625 
L 21 0 
L 10.6875 0 
z
" id="DejaVuSans-46"/>
       </defs>
       <use xlink:href="#DejaVuSans-8722"/>
       <use x="83.789062" xlink:href="#DejaVuSans-48"/>
       <use x="147.412109" xlink:href="#DejaVuSans-46"/>
       <use x="179.199219" xlink:href="#DejaVuSans-50"/>
      </g>
     </g>
    </g>
    <g id="ytick_2">
     <g id="line2d_21">
      <path clip-path="url(#p9d9ad95797)" d="M 57.6 227.276715 
L 414.72 227.276715 
" style="fill:none;stroke:#b0b0b0;stroke-linecap:square;stroke-width:0.8;"/>
     </g>
     <g id="line2d_22">
      <g>
       <use style="stroke:#000000;stroke-width:0.8;" x="57.6" xlink:href="#mc9271e28df" y="227.276715"/>
      </g>
     </g>
     <g id="text_11">
      <!-- −0.1 -->
      <g transform="translate(26.317187 231.075933)scale(0.1 -0.1)">
       <use xlink:href="#DejaVuSans-8722"/>
       <use x="83.789062" xlink:href="#DejaVuSans-48"/>
       <use x="147.412109" xlink:href="#DejaVuSans-46"/>
       <use x="179.199219" xlink:href="#DejaVuSans-49"/>
      </g>
     </g>
    </g>
    <g id="ytick_3">
     <g id="line2d_23">
      <path clip-path="url(#p9d9ad95797)" d="M 57.6 173.429242 
L 414.72 173.429242 
" style="fill:none;stroke:#b0b0b0;stroke-linecap:square;stroke-width:0.8;"/>
     </g>
     <g id="line2d_24">
      <g>
       <use style="stroke:#000000;stroke-width:0.8;" x="57.6" xlink:href="#mc9271e28df" y="173.429242"/>
      </g>
     </g>
     <g id="text_12">
      <!-- 0.0 -->
      <g transform="translate(34.696875 177.228461)scale(0.1 -0.1)">
       <use xlink:href="#DejaVuSans-48"/>
       <use x="63.623047" xlink:href="#DejaVuSans-46"/>
       <use x="95.410156" xlink:href="#DejaVuSans-48"/>
      </g>
     </g>
    </g>
    <g id="ytick_4">
     <g id="line2d_25">
      <path clip-path="url(#p9d9ad95797)" d="M 57.6 119.58177 
L 414.72 119.58177 
" style="fill:none;stroke:#b0b0b0;stroke-linecap:square;stroke-width:0.8;"/>
     </g>
     <g id="line2d_26">
      <g>
       <use style="stroke:#000000;stroke-width:0.8;" x="57.6" xlink:href="#mc9271e28df" y="119.58177"/>
      </g>
     </g>
     <g id="text_13">
      <!-- 0.1 -->
      <g transform="translate(34.696875 123.380989)scale(0.1 -0.1)">
       <use xlink:href="#DejaVuSans-48"/>
       <use x="63.623047" xlink:href="#DejaVuSans-46"/>
       <use x="95.410156" xlink:href="#DejaVuSans-49"/>
      </g>
     </g>
    </g>
    <g id="ytick_5">
     <g id="line2d_27">
      <path clip-path="url(#p9d9ad95797)" d="M 57.6 65.734298 
L 414.72 65.734298 
" style="fill:none;stroke:#b0b0b0;stroke-linecap:square;stroke-width:0.8;"/>
     </g>
     <g id="line2d_28">
      <g>
       <use style="stroke:#000000;stroke-width:0.8;" x="57.6" xlink:href="#mc9271e28df" y="65.734298"/>
      </g>
     </g>
     <g id="text_14">
      <!-- 0.2 -->
      <g transform="translate(34.696875 69.533517)scale(0.1 -0.1)">
       <use xlink:href="#DejaVuSans-48"/>
       <use x="63.623047" xlink:href="#DejaVuSans-46"/>
       <use x="95.410156" xlink:href="#DejaVuSans-50"/>
      </g>
     </g>
    </g>
   </g>
   <g id="line2d_29">
    <path clip-path="url(#p9d9ad95797)" d="M 57.6 148.370675 
L 57.898195 191.251409 
L 57.974976 189.707656 
L 58.35888 175.971026 
L 58.428518 177.915846 
L 58.648147 194.861452 
L 58.753498 190.909747 
L 59.374886 158.023857 
L 59.508806 157.589255 
L 59.539162 157.609124 
L 59.674867 157.937594 
L 59.990918 158.586402 
L 59.99449 158.585056 
L 60.098054 158.424806 
L 60.283757 157.603632 
L 60.401606 157.190999 
L 60.446246 157.335418 
L 60.523027 158.617687 
L 60.633734 165.167909 
L 61.060493 195.092457 
L 61.183699 195.222499 
L 61.210483 195.204514 
L 61.285478 194.958646 
L 61.376544 193.622367 
L 61.490822 187.688538 
L 62.012218 152.947549 
L 62.249702 151.684502 
L 62.305056 152.045873 
L 62.383622 154.835872 
L 62.501472 169.379218 
L 62.760384 196.243124 
L 62.780026 196.28631 
L 62.831808 196.058696 
L 63.217498 192.452047 
L 63.340704 186.696667 
L 63.904954 152.716489 
L 64.106726 151.250815 
L 64.153152 151.543422 
L 64.228147 154.151524 
L 64.338854 167.938308 
L 64.604909 197.037751 
L 64.617408 197.023912 
L 64.635264 196.94201 
L 64.835251 194.954392 
L 65.05488 192.154378 
L 65.187014 185.680512 
L 65.720909 153.086421 
L 65.954822 151.187329 
L 66.001248 151.496736 
L 66.076243 154.277581 
L 66.188736 169.331342 
L 66.440506 197.710306 
L 66.469075 197.593349 
L 66.66192 195.287331 
L 66.90119 191.495123 
L 67.045824 183.324469 
L 67.501152 153.8118 
L 67.797562 151.139889 
L 67.833274 151.319255 
L 67.901126 153.286572 
L 68.002906 164.670574 
L 68.270746 198.408439 
L 68.299315 198.276943 
L 68.474304 195.801521 
L 68.749286 190.512353 
L 68.908205 180.195393 
L 69.292109 154.504333 
L 69.63673 151.072418 
L 69.640301 151.07441 
L 69.674227 151.284039 
L 69.743866 153.563025 
L 69.84743 166.511027 
L 70.097414 199.166665 
L 70.122413 199.054716 
L 70.256333 196.895917 
L 70.604525 188.868336 
L 70.78487 175.114561 
L 71.090208 155.17258 
L 71.411616 151.314893 
L 71.472326 150.980231 
L 71.518752 151.344186 
L 71.593747 154.694199 
L 71.70624 172.733113 
L 71.922298 200.026609 
L 71.933011 199.996939 
L 72.000864 199.035062 
L 72.42048 188.684716 
L 72.609754 174.70938 
L 72.915091 155.351946 
L 73.257926 151.090888 
L 73.304352 150.866505 
L 73.348992 151.229168 
L 73.422202 154.618489 
L 73.532909 173.172536 
L 73.741824 201.048849 
L 73.757894 200.976048 
L 73.84896 199.241997 
L 74.268576 186.503409 
L 74.500704 167.37781 
L 74.743546 155.431802 
L 75.120307 150.75768 
L 75.132806 150.741041 
L 75.164947 150.945338 
L 75.231014 153.380859 
L 75.331008 167.956831 
L 75.555994 202.32078 
L 75.588134 202.035173 
L 75.763123 197.40456 
L 76.089888 184.979687 
L 76.720205 153.435191 
L 76.952333 150.619776 
L 77.000544 151.122873 
L 77.073754 155.544666 
L 77.191603 180.562848 
L 77.364806 203.966467 
L 77.384448 203.831364 
L 77.488013 201.032103 
L 77.886202 183.865367 
L 78.455808 154.63039 
L 78.761146 150.526512 
L 78.807571 151.035425 
L 78.878995 155.560766 
L 78.995059 181.746846 
L 79.164691 206.183637 
L 79.186118 206.004701 
L 79.289683 202.611288 
L 79.66823 181.867895 
L 80.155699 156.460773 
L 80.541389 150.478696 
L 80.555674 150.516981 
L 80.603885 151.509713 
L 80.684237 159.259765 
L 80.94672 209.389661 
L 81.060998 205.244429 
L 82.023437 153.94545 
L 82.25735 150.425871 
L 82.296634 150.777334 
L 82.366272 154.346021 
L 82.473408 174.888503 
L 82.684109 214.738546 
L 82.718035 213.7834 
L 82.834099 201.502245 
L 83.17872 170.547961 
L 83.614406 153.042697 
L 83.809037 149.896335 
L 83.841178 150.060893 
L 83.910816 152.042696 
L 84.021523 163.119767 
L 84.216154 211.331455 
L 84.291149 224.4872 
L 84.346502 217.059749 
L 84.673267 165.422392 
L 85.039315 146.751858 
L 85.044672 146.759828 
L 85.087526 147.239178 
L 85.230374 152.155452 
L 85.537498 160.310383 
L 85.657133 162.579246 
L 85.733914 171.188972 
L 85.816051 215.21725 
L 85.864262 247.036583 
L 85.916045 207.443775 
L 86.067821 130.837992 
L 86.094605 131.835516 
L 86.294592 144.344984 
L 86.369587 143.01409 
L 86.514221 139.315199 
L 86.566003 140.284185 
L 86.674925 149.206065 
L 86.712422 151.323078 
L 86.751706 146.481706 
L 86.85527 108.912432 
L 86.930266 127.21718 
L 87.278458 218.296949 
L 87.387379 220.423385 
L 87.430234 220.222803 
L 87.546298 218.174499 
L 88.355174 195.161221 
L 88.528378 179.240515 
L 88.944422 140.972463 
L 89.031917 137.792824 
L 89.074771 139.689978 
L 89.14441 158.770991 
L 89.328326 235.278987 
L 89.390822 224.395606 
L 89.714016 158.665019 
L 89.99257 141.808014 
L 90.003283 141.843984 
L 90.056851 143.025129 
L 90.535392 164.530194 
L 90.60503 193.225996 
L 90.674669 257.590688 
L 90.724666 203.876272 
L 90.849658 125.159561 
L 90.887155 127.641391 
L 91.053216 140.293123 
L 91.103213 139.513466 
L 91.251418 135.385896 
L 91.306771 136.735582 
L 91.442477 148.663821 
L 91.487117 140.834883 
L 91.576397 103.76246 
L 91.64425 121.897265 
L 91.990656 222.453435 
L 92.104934 224.800215 
L 92.142432 224.630757 
L 92.247782 222.749596 
L 92.579904 211.139273 
L 92.972736 195.954771 
L 93.513773 132.867072 
L 93.57984 139.42591 
L 93.68519 191.120722 
L 93.795898 253.669515 
L 93.851251 227.492104 
L 94.069094 148.928158 
L 94.208371 137.035136 
L 94.251226 138.18101 
L 94.499424 156.532282 
L 94.69584 164.941696 
L 94.733338 164.43133 
L 94.835117 158.573748 
L 95.201165 132.450239 
L 95.251162 133.791418 
L 95.383296 146.60227 
L 95.427936 137.764661 
L 95.511859 99.836441 
L 95.577926 119.287763 
L 95.915405 225.452201 
L 96.040397 228.335356 
L 96.072538 228.209353 
L 96.165389 226.619614 
L 96.418944 217.155059 
L 96.80999 198.455717 
L 97.279603 128.777464 
L 97.327814 132.329675 
L 97.422451 166.137002 
L 97.561728 268.13133 
L 97.622438 213.782269 
L 97.808141 133.675861 
L 97.847424 131.679036 
L 97.902778 135.004063 
L 98.163475 155.463679 
L 98.202758 154.926174 
L 98.31168 148.919865 
L 98.599162 129.918762 
L 98.650944 131.457399 
L 98.777722 144.934399 
L 98.822362 135.792282 
L 98.902714 96.741288 
L 98.968781 117.463949 
L 99.297331 227.713418 
L 99.436608 231.296428 
L 99.458035 231.231273 
L 99.534816 230.105322 
L 99.72409 223.129113 
L 100.127635 201.051649 
L 100.547251 125.413236 
L 100.586534 127.788933 
L 100.681171 154.738139 
L 100.802592 243.749195 
L 100.838304 279.144754 
L 100.891872 211.604946 
L 101.054362 125.491261 
L 101.061504 125.621787 
L 101.116858 131.616572 
L 101.295418 147.71589 
L 101.329344 147.196854 
L 101.438266 140.688148 
L 101.648966 127.768094 
L 101.695392 129.058279 
L 101.807885 142.491285 
L 101.827526 143.532264 
L 101.861453 137.624012 
L 101.948947 94.185148 
L 102.018586 118.915677 
L 102.327494 228.961602 
L 102.486413 233.884876 
L 102.495341 233.871414 
L 102.547123 233.379249 
L 102.679258 229.354689 
L 103.098874 207.479638 
L 103.497062 122.557812 
L 103.561344 129.400318 
L 103.734547 191.601095 
L 103.804186 287.592345 
L 103.855968 203.277058 
L 103.975603 118.817136 
L 104.011315 122.138933 
L 104.173805 140.562145 
L 104.225587 139.224843 
L 104.45593 125.888494 
L 104.529139 129.548237 
L 104.630918 142.32425 
L 104.671987 133.499295 
L 104.750554 92.037711 
L 104.816621 115.584134 
L 105.130886 231.081577 
L 105.293376 236.205164 
L 105.300518 236.197625 
L 105.341587 235.872387 
L 105.452294 232.802542 
L 105.845126 213.072236 
L 106.225459 120.071728 
L 106.311168 132.528426 
L 106.512941 211.974609 
L 106.559366 293.640493 
L 106.609363 189.775396 
L 106.698643 111.624729 
L 106.752211 120.189008 
L 106.868275 133.322191 
L 106.916486 131.998405 
L 107.07719 124.204791 
L 107.136115 126.553025 
L 107.252179 141.265286 
L 107.295034 131.127907 
L 107.370029 90.208512 
L 107.43431 113.737704 
L 107.748576 232.66577 
L 107.919994 238.315985 
L 107.948563 238.179212 
L 108.034272 236.310705 
L 108.409248 220.229157 
L 108.525312 178.831813 
L 108.780653 117.883959 
L 108.784224 117.870497 
L 108.80208 118.503205 
L 108.873504 131.540755 
L 109.137773 221.168742 
L 109.173485 295.488 
L 109.223482 168.489507 
L 109.287763 103.144829 
L 109.35383 117.067632 
L 109.437754 124.739443 
L 109.494893 123.480112 
L 109.54489 122.532288 
L 109.591315 123.821989 
L 109.689523 136.743336 
L 109.725235 140.334209 
L 109.764518 131.172762 
L 109.841299 88.641551 
L 109.905581 113.452851 
L 110.21449 233.709872 
L 110.389478 240.246417 
L 110.396621 240.251801 
L 110.426976 240.085413 
L 110.51447 237.967053 
L 110.859091 221.500442 
L 111.00551 159.885688 
L 111.203712 115.897526 
L 111.226925 117.001938 
L 111.335846 138.734562 
L 111.398342 143.447885 
L 111.457267 140.384987 
L 111.55369 131.427245 
L 111.591187 137.501132 
L 111.689395 208.947843 
L 111.762605 161.758072 
L 111.932237 121.906581 
L 111.941165 121.843364 
L 111.973306 122.73174 
L 112.0608 134.008746 
L 112.107226 139.505819 
L 112.146509 129.881445 
L 112.221504 87.282441 
L 112.285786 112.668832 
L 112.591123 234.584893 
L 112.769683 242.036845 
L 112.782182 242.062153 
L 112.81968 241.80584 
L 112.917888 238.940616 
L 113.225011 221.381439 
L 113.541062 114.091482 
L 113.626771 127.766532 
L 113.737478 141.548308 
L 113.791046 140.623101 
L 113.796403 140.591923 
L 113.819616 141.231254 
L 113.871398 152.372996 
L 113.962464 193.803941 
L 114.023174 170.717392 
L 114.223162 121.444839 
L 114.262445 120.386413 
L 114.312442 122.448717 
L 114.432077 138.747162 
L 114.474931 126.982944 
L 114.546355 86.106412 
L 114.608851 111.402339 
L 114.915974 235.757153 
L 115.09632 243.726579 
L 115.11239 243.773426 
L 115.153459 243.445495 
L 115.260595 239.925486 
L 115.530221 223.018564 
L 115.828416 112.416825 
L 115.906982 125.104905 
L 116.21232 187.682561 
L 116.242675 181.975159 
L 116.526586 119.236608 
L 116.539085 119.34161 
L 116.589082 122.404024 
L 116.698003 138.067392 
L 116.739072 127.23635 
L 116.810496 85.09731 
L 116.874778 111.279028 
L 117.17833 236.322013 
L 117.362246 245.291925 
L 117.383674 245.382389 
L 117.430099 244.940839 
L 117.55152 240.489807 
L 117.776506 225.623597 
L 118.062202 110.868711 
L 118.140768 124.448235 
L 118.417536 183.84329 
L 118.453248 176.955466 
L 118.730016 118.26843 
L 118.738944 118.216737 
L 118.769299 118.980294 
L 118.849651 128.921937 
L 118.910362 137.458915 
L 118.949645 127.04293 
L 119.022854 84.248136 
L 119.08535 110.559626 
L 119.388902 237.005337 
L 119.574605 246.748499 
L 119.601389 246.893887 
L 119.6496 246.378028 
L 119.788877 241.100438 
L 119.963866 230.931342 
L 120.244205 109.438522 
L 120.353126 131.242925 
L 120.578112 181.011559 
L 120.628109 169.381743 
L 120.87095 117.926499 
L 120.901306 117.302945 
L 120.947731 119.163375 
L 121.072723 136.920872 
L 121.115578 124.368972 
L 121.185216 83.54758 
L 121.247712 110.241926 
L 121.549478 237.341346 
L 121.736966 248.075839 
L 121.769107 248.311153 
L 121.82089 247.70483 
L 122.092301 238.899153 
L 122.161939 204.489003 
L 122.383354 108.114951 
L 122.40121 109.076667 
L 122.497632 132.654644 
L 122.695834 178.740919 
L 122.751187 166.079278 
L 122.990458 117.074632 
L 123.019027 116.483387 
L 123.065453 118.296431 
L 123.19223 136.443998 
L 123.235085 123.620815 
L 123.302938 82.977335 
L 123.365434 109.058359 
L 123.670771 238.060209 
L 123.86183 249.381102 
L 123.895757 249.637954 
L 123.945754 249.015478 
L 124.204666 240.349265 
L 124.279661 196.60471 
L 124.481434 106.896383 
L 124.49929 107.88933 
L 124.593926 132.388907 
L 124.777843 176.813944 
L 124.831411 165.057953 
L 125.076038 116.145763 
L 125.099251 115.752676 
L 125.143891 117.448333 
L 125.272454 136.029642 
L 125.317094 122.44624 
L 125.384947 82.55194 
L 125.445658 108.350264 
L 125.752781 238.468373 
L 125.945626 250.545284 
L 125.983123 250.878062 
L 126.034906 250.185583 
L 126.281318 241.280288 
L 126.365242 184.166105 
L 126.545587 105.773124 
L 126.567014 107.468243 
L 126.725933 150.194112 
L 126.825926 175.121615 
L 126.88128 163.14346 
L 127.124122 115.442515 
L 127.145549 115.10543 
L 127.188403 116.673468 
L 127.295539 133.488095 
L 127.320538 135.668433 
L 127.35625 126.967812 
L 127.431245 82.237471 
L 127.495526 109.772376 
L 127.795507 237.795818 
L 127.988352 251.435921 
L 128.036563 252.034167 
L 128.090131 251.287841 
L 128.324045 242.442855 
L 128.41511 174.368999 
L 128.5776 104.741407 
L 128.60617 107.844098 
L 128.84544 173.595681 
L 128.925792 152.778683 
L 129.143635 114.793114 
L 129.161491 114.536262 
L 129.204346 116.050453 
L 129.30791 132.278735 
L 129.338266 135.364518 
L 129.375763 125.816069 
L 129.448973 82.052236 
L 129.513254 109.310365 
L 129.815021 237.894898 
L 130.009651 252.380406 
L 130.061434 253.108962 
L 130.116787 252.299096 
L 130.339987 242.952252 
L 130.45248 153.155454 
L 130.582829 103.797999 
L 130.623898 110.306543 
L 130.83817 172.195053 
L 130.89888 159.009374 
L 131.136365 114.25464 
L 131.152435 114.043019 
L 131.193504 115.422591 
L 131.291712 130.479906 
L 131.32921 135.109604 
L 131.370278 124.406827 
L 131.441702 81.978465 
L 131.505984 109.150976 
L 131.80775 237.576121 
L 132.004166 253.177349 
L 132.061306 254.104064 
L 132.116659 253.281813 
L 132.220224 250.44782 
L 132.28272 251.697082 
L 132.293434 251.490846 
L 132.32736 244.984456 
L 132.430925 158.16623 
L 132.564845 102.939132 
L 132.604128 109.31898 
L 132.811258 170.89329 
L 132.871968 157.37128 
L 133.105882 113.81686 
L 133.121952 113.621393 
L 133.163021 115.045659 
L 133.261229 130.142498 
L 133.300512 134.910207 
L 133.339795 124.808367 
L 133.413005 82.015081 
L 133.477286 109.315211 
L 133.779053 237.14211 
L 133.975469 253.807364 
L 134.03975 255.021625 
L 134.095104 254.19022 
L 134.187955 251.804238 
L 134.241523 253.106809 
L 134.252237 253.287736 
L 134.279021 251.260917 
L 134.334374 218.198408 
L 134.525434 102.161574 
L 134.557574 106.454295 
L 134.762918 169.673397 
L 134.837914 151.701141 
L 135.059328 113.389311 
L 135.071827 113.269769 
L 135.109325 114.442029 
L 135.20039 127.587058 
L 135.252173 134.755772 
L 135.291456 124.784136 
L 135.364666 82.160469 
L 135.428947 108.822507 
L 135.732499 236.658021 
L 135.928915 254.331839 
L 136.000339 255.862184 
L 136.055693 255.020009 
L 136.13783 253.0535 
L 136.187827 254.371686 
L 136.205683 254.777157 
L 136.232467 252.19894 
L 136.291392 211.21299 
L 136.471738 101.462096 
L 136.500307 105.360114 
L 136.700294 168.517863 
L 136.777075 149.922236 
L 136.994918 113.078072 
L 137.005632 112.986532 
L 137.041344 114.024711 
L 137.128838 126.063336 
L 137.187763 134.648562 
L 137.228832 124.048472 
L 137.302042 82.409783 
L 137.364538 108.050334 
L 137.673446 236.632713 
L 137.871648 254.940853 
L 137.946643 256.627895 
L 138.000211 255.807798 
L 138.073421 254.198835 
L 138.119846 255.477174 
L 138.143059 256.169114 
L 138.171629 252.846725 
L 138.234125 203.223264 
L 138.401971 100.838542 
L 138.430541 104.689713 
L 138.623386 167.416203 
L 138.701952 148.606311 
L 138.91801 112.828759 
L 138.926938 112.768988 
L 138.959078 113.613316 
L 139.041216 124.020148 
L 139.110854 134.587499 
L 139.151923 124.206029 
L 139.225133 82.759792 
L 139.289414 108.609809 
L 139.598323 235.702767 
L 139.796525 255.198244 
L 139.878662 257.319296 
L 139.93223 256.536354 
L 139.996512 255.241322 
L 140.041152 256.483045 
L 140.067936 257.465761 
L 140.096506 254.044293 
L 140.159002 201.943848 
L 140.321491 100.294682 
L 140.351846 104.688098 
L 140.537549 166.365316 
L 140.612544 148.632051 
L 140.830387 112.654831 
L 140.83753 112.6166 
L 140.866099 113.271385 
L 140.94288 122.056761 
L 141.023232 134.569837 
L 141.064301 124.738635 
L 141.139296 83.209418 
L 141.203578 108.754659 
L 141.512486 234.353888 
L 141.708902 255.163243 
L 141.801754 257.936388 
L 141.855322 257.185216 
L 141.910675 256.184192 
L 141.95353 257.364528 
L 141.983885 258.663868 
L 142.012454 255.130935 
L 142.076736 198.464978 
L 142.233869 99.82244 
L 142.264224 104.676251 
L 142.442784 165.356429 
L 142.515994 148.437769 
L 142.733837 112.559521 
L 142.740979 112.528828 
L 142.767763 113.120612 
L 142.844544 121.595019 
L 142.928467 134.598161 
L 142.969536 125.097582 
L 143.046317 83.761893 
L 143.110598 109.113822 
L 143.421293 233.240861 
L 143.617709 255.17509 
L 143.719488 258.480248 
L 143.77127 257.777538 
L 143.819482 257.027981 
L 143.86055 258.186241 
L 143.894477 259.769356 
L 143.923046 255.775489 
L 143.990899 191.456353 
L 144.139104 99.425046 
L 144.17303 105.544811 
L 144.342662 164.385775 
L 144.410515 149.434916 
L 144.63193 112.528828 
L 144.637286 112.502981 
L 144.665856 113.110381 
L 144.742637 121.480324 
L 144.830131 134.671232 
L 144.8712 124.748974 
L 144.947981 84.411832 
L 145.010477 108.172029 
L 145.328314 232.707771 
L 145.52473 255.234861 
L 145.631866 258.950875 
L 145.681862 258.327859 
L 145.722931 257.77323 
L 145.762214 258.817871 
L 145.801498 260.777381 
L 145.828282 256.809361 
L 145.894349 192.774701 
L 146.040768 99.100884 
L 146.074694 105.332114 
L 146.23897 163.44829 
L 146.308608 148.287642 
L 146.528237 112.55306 
L 146.531808 112.540136 
L 146.555021 112.92353 
L 146.624659 119.321148 
L 146.726438 134.788781 
L 146.769293 124.968025 
L 146.846074 85.150081 
L 146.910355 108.777813 
L 147.228192 230.644335 
L 147.422822 254.701232 
L 147.542458 259.348269 
L 147.590669 258.809256 
L 147.624595 258.420477 
L 147.663878 259.423655 
L 147.704947 261.694942 
L 147.733517 257.231525 
L 147.804941 183.510081 
L 147.940646 98.854801 
L 147.978144 106.206596 
L 148.135277 162.545053 
L 148.201344 148.720414 
L 148.424544 112.642446 
L 148.42633 112.639216 
L 148.4424 112.822297 
L 148.501325 116.951321 
L 148.624531 134.950485 
L 148.669171 124.239792 
L 148.744166 85.99764 
L 148.808448 108.432113 
L 149.131642 229.283071 
L 149.326272 254.367916 
L 149.454835 259.671892 
L 149.501261 259.20665 
L 149.528045 258.969721 
L 149.563757 259.78228 
L 149.610182 262.515039 
L 149.638752 257.933157 
L 149.710176 182.183926 
L 149.844096 98.676027 
L 149.881594 106.700916 
L 150.03337 161.672401 
L 150.097651 148.59075 
L 150.320851 112.802912 
L 150.322637 112.800219 
L 150.336922 112.946685 
L 150.394061 116.628236 
L 150.52441 135.153813 
L 150.56905 124.727004 
L 150.64583 86.930817 
L 150.710112 108.839199 
L 151.033306 226.273213 
L 151.227936 253.530588 
L 151.368998 259.922283 
L 151.411853 259.575505 
L 151.435066 259.419886 
L 151.468992 260.147366 
L 151.520774 263.243057 
L 151.545773 259.21742 
L 151.61184 190.009471 
L 151.749331 98.572102 
L 151.786829 106.484449 
L 151.936819 160.829634 
L 152.001101 147.56334 
L 152.222515 113.024225 
L 152.2368 113.157767 
L 152.292154 116.508695 
L 152.427859 135.40345 
L 152.474285 124.922039 
L 152.552851 87.967919 
L 152.615347 108.642656 
L 152.943898 224.14823 
L 153.140314 252.978113 
L 153.290304 260.098364 
L 153.331373 259.83505 
L 153.345658 259.769895 
L 153.377798 260.319139 
L 153.434938 263.876841 
L 153.461722 259.262113 
L 153.533146 180.393497 
L 153.661709 98.544101 
L 153.700992 107.378317 
L 153.845626 160.013952 
L 153.908122 147.525377 
L 154.129536 113.310693 
L 154.131322 113.31177 
L 154.152749 113.663933 
L 154.224173 119.598032 
L 154.338451 135.695034 
L 154.383091 126.833571 
L 154.465229 89.100331 
L 154.52951 109.372289 
L 154.852704 218.364473 
L 155.058048 252.074552 
L 155.220538 260.200675 
L 155.259821 260.027286 
L 155.266963 260.017055 
L 155.28839 260.237829 
L 155.358029 264.411008 
L 155.383027 260.493605 
L 155.447309 191.357327 
L 155.583014 98.592025 
L 155.620512 106.927614 
L 155.76336 159.225679 
L 155.827642 146.50976 
L 156.04727 113.660702 
L 156.068698 113.991326 
L 156.138336 119.447151 
L 156.259757 136.034758 
L 156.306182 126.692867 
L 156.38832 90.335054 
L 156.452602 109.675451 
L 156.772224 212.408727 
L 157.000781 252.317405 
L 157.16327 260.229214 
L 157.200768 260.164597 
L 157.227552 260.574376 
L 157.293619 264.848788 
L 157.318618 260.412295 
L 157.388256 181.843179 
L 157.515034 98.716413 
L 157.554317 107.67394 
L 157.693594 158.46153 
L 157.75609 146.39458 
L 157.973933 114.074251 
L 157.977504 114.079097 
L 158.006074 114.712882 
L 158.089997 122.792426 
L 158.193562 136.418259 
L 158.236416 128.792003 
L 158.32391 91.67101 
L 158.389978 110.862249 
L 158.579251 208.524063 
L 158.698886 205.165704 
L 159.02208 257.44153 
L 159.241709 265.185873 
L 159.250637 264.786325 
L 159.284563 249.068248 
L 159.461338 98.922649 
L 159.530976 122.322499 
L 159.638112 157.723819 
L 159.69168 148.393722 
L 159.918451 114.554032 
L 159.923808 114.577186 
L 159.964877 115.957297 
L 160.073798 129.241791 
L 160.141651 136.849954 
L 160.184506 129.771704 
L 160.275571 93.108737 
L 160.341638 111.554727 
L 160.534483 208.922696 
L 160.648762 201.084443 
L 161.150515 261.12362 
L 161.207654 265.420648 
L 161.234438 259.992285 
L 161.316576 162.687372 
L 161.425498 99.205348 
L 161.471923 111.275259 
L 161.598701 157.015025 
L 161.657626 146.78729 
L 161.87904 115.100045 
L 161.882611 115.111353 
L 161.918323 116.071992 
L 162.016531 126.402737 
L 162.107597 137.330005 
L 162.152237 130.27857 
L 162.245088 94.65416 
L 162.311155 112.05874 
L 162.509357 209.407646 
L 162.62185 198.403538 
L 162.673632 211.115688 
L 162.886118 249.234637 
L 163.114675 260.250753 
L 163.1736 264.297929 
L 163.193242 265.548805 
L 163.221811 259.145803 
L 163.328947 135.890608 
L 163.411085 99.574203 
L 163.462867 114.750575 
L 163.580717 156.328093 
L 163.637856 146.978072 
L 163.85927 115.714445 
L 163.866413 115.742445 
L 163.907482 117.046631 
L 164.018189 129.514098 
L 164.09497 137.859271 
L 164.13961 131.434353 
L 164.236032 96.309431 
L 164.303885 113.274616 
L 164.507443 209.996145 
L 164.616365 196.345757 
L 164.61815 196.334019 
L 164.63065 196.868024 
L 164.687789 212.501937 
L 164.889562 247.989145 
L 165.130618 260.243214 
L 165.202042 265.56496 
L 165.228826 260.218983 
L 165.310963 162.185136 
L 165.418099 100.025445 
L 165.464525 112.067894 
L 165.587731 155.672554 
L 165.646656 146.017971 
L 165.864499 116.399923 
L 165.871642 116.424693 
L 165.91271 117.657261 
L 166.023418 129.480443 
L 166.107341 138.440232 
L 166.151981 132.568057 
L 166.251974 98.078859 
L 166.321613 114.43449 
L 166.532314 210.702409 
L 166.63945 194.981855 
L 166.651949 194.449626 
L 166.687661 199.097255 
L 167.001926 253.975368 
L 167.239411 265.472881 
L 167.250125 264.747555 
L 167.287622 241.892534 
L 167.453683 100.568766 
L 167.507251 115.810293 
L 167.623315 155.039523 
L 167.678669 146.282416 
L 167.898298 117.158634 
L 167.90544 117.185019 
L 167.948294 118.467127 
L 168.062573 130.348088 
L 168.148282 139.074878 
L 168.192922 133.755233 
L 168.298272 99.962982 
L 168.369696 116.104839 
L 168.585754 211.555245 
L 168.691104 194.510958 
L 168.717888 192.330944 
L 168.762528 200.035763 
L 169.016083 248.502311 
L 169.307136 265.259106 
L 169.31785 264.552089 
L 169.355347 241.700298 
L 169.521408 101.203089 
L 169.574976 116.46454 
L 169.689254 154.438154 
L 169.746394 145.632531 
L 169.964237 117.993808 
L 169.971379 118.022886 
L 170.014234 119.262993 
L 170.130298 130.752644 
L 170.223149 139.765741 
L 170.267789 134.711456 
L 170.37671 101.969877 
L 170.448134 116.746162 
L 170.674906 212.585401 
L 170.783827 193.724247 
L 170.819539 189.917446 
L 170.865965 198.679345 
L 171.107021 246.456107 
L 171.410573 264.919867 
L 171.41593 264.782556 
L 171.444499 254.838005 
L 171.624845 101.93703 
L 171.71591 134.921461 
L 171.790906 153.866079 
L 171.84983 145.209936 
L 172.065888 118.908677 
L 172.07303 118.934523 
L 172.11767 120.184216 
L 172.237306 131.553679 
L 172.333728 140.516537 
L 172.380154 135.739081 
L 172.494432 104.10816 
L 172.565856 117.923806 
L 172.803341 213.839509 
L 172.914048 193.949114 
L 172.962259 187.107846 
L 173.01047 197.021166 
L 173.240813 244.575753 
L 173.555078 264.449779 
L 173.564006 264.00446 
L 173.597933 246.765192 
L 173.76935 102.774897 
L 173.831846 121.739815 
L 173.935411 153.32335 
L 173.990765 145.692625 
L 174.208608 119.907009 
L 174.219322 119.955902 
L 174.271104 121.615751 
L 174.410381 135.334363 
L 174.487162 141.328987 
L 174.533587 137.1473 
L 174.653222 106.375139 
L 174.728218 119.602232 
L 174.978202 215.383477 
L 175.090694 194.854936 
L 175.15319 183.732202 
L 175.201402 194.643531 
L 175.424602 243.052408 
L 175.74601 263.840225 
L 175.758509 262.819816 
L 175.799578 233.994725 
L 175.960282 103.722613 
L 176.004922 114.239562 
L 176.126342 152.812445 
L 176.187053 144.356561 
L 176.399539 120.993543 
L 176.406682 121.01869 
L 176.451322 122.135271 
L 176.572742 132.258542 
L 176.688806 142.207724 
L 176.735232 138.560204 
L 176.86201 108.78589 
L 176.940576 121.601373 
L 177.14592 208.36629 
L 177.204845 217.314609 
L 177.26377 211.018386 
L 177.39769 179.448259 
L 177.453043 194.778688 
L 177.65303 241.004589 
L 177.988723 263.079899 
L 178.006579 260.695533 
L 178.060147 209.275774 
L 178.202995 104.788254 
L 178.240493 112.133588 
L 178.369056 152.339988 
L 178.435123 143.309713 
L 178.642253 122.17318 
L 178.649395 122.197788 
L 178.694035 123.247814 
L 178.815456 132.638005 
L 178.945805 143.156409 
L 178.99223 139.804511 
L 179.12615 111.344184 
L 179.206502 123.236344 
L 179.392205 197.293365 
L 179.490413 219.797031 
L 179.542195 215.74964 
L 179.665402 181.920773 
L 179.708256 173.451971 
L 179.756467 188.239236 
L 179.956454 240.622811 
L 180.288576 262.158569 
L 180.308218 259.084416 
L 180.368928 196.528785 
L 180.504634 105.980437 
L 180.540346 112.866452 
L 180.668909 151.907269 
L 180.736762 143.23508 
L 180.942106 123.450711 
L 180.951034 123.481943 
L 180.999245 124.639717 
L 181.129594 134.460581 
L 181.259942 144.180965 
L 181.308154 141.236854 
L 181.451002 114.058096 
L 181.534925 125.31378 
L 181.717056 191.899302 
L 181.845619 223.153075 
L 181.888474 221.30643 
L 181.984896 204.683338 
L 182.097389 162.974325 
L 182.149171 187.441324 
L 182.322374 241.149977 
L 182.647354 261.070311 
L 182.674138 255.059318 
L 182.79913 128.232313 
L 182.863411 107.300777 
L 182.92055 121.501702 
L 183.029472 151.516498 
L 183.086611 145.360332 
L 183.302669 124.830068 
L 183.315168 124.885261 
L 183.372307 126.439515 
L 183.527654 138.417885 
L 183.638362 145.282469 
L 183.684787 142.922442 
L 183.840134 116.928167 
L 183.929414 127.843157 
L 184.111546 188.444825 
L 184.311533 229.295456 
L 184.404384 234.442736 
L 184.500806 255.488482 
L 184.550803 274.812186 
L 184.577587 243.406186 
L 184.631155 85.13985 
L 184.70615 187.465555 
L 184.870426 247.710753 
L 185.050771 259.769356 
L 185.073984 255.5671 
L 185.148979 175.855324 
L 185.2704 108.748736 
L 185.311469 116.857626 
L 185.436461 151.184636 
L 185.498957 144.507496 
L 185.709658 126.303765 
L 185.720371 126.347167 
L 185.775725 127.676391 
L 185.925715 138.049676 
L 186.063206 146.455859 
L 186.109632 144.559943 
L 186.225696 124.45222 
L 186.279264 119.933017 
L 186.336403 124.281201 
L 186.495322 161.110287 
L 186.875654 274.219864 
L 186.895296 261.705711 
L 186.96672 85.268545 
L 187.059571 171.185305 
L 187.239917 230.049321 
L 187.500614 250.333125 
L 187.598822 258.300397 
L 187.629178 251.473615 
L 187.822022 110.392699 
L 187.93273 142.930788 
L 187.989869 150.88519 
L 188.050579 144.999716 
L 188.26128 127.936959 
L 188.275565 127.993715 
L 188.336275 129.479151 
L 188.504122 140.605546 
L 188.639827 147.75326 
L 188.684467 146.305247 
L 188.788032 131.543017 
L 188.87017 123.195474 
L 188.925523 126.471177 
L 189.08087 156.143127 
L 189.448704 268.598188 
L 189.480845 236.438862 
L 189.550483 92.704881 
L 189.62905 142.129107 
L 189.832608 216.290807 
L 190.179014 247.236896 
L 190.291507 255.038856 
L 190.312934 256.524508 
L 190.34329 249.498489 
L 190.53792 112.260129 
L 190.646842 142.256725 
L 190.707552 150.651438 
L 190.768262 145.430818 
L 190.980749 129.74995 
L 190.995034 129.811497 
L 191.05753 131.258918 
L 191.232518 141.881947 
L 191.38608 149.189587 
L 191.428934 148.136492 
L 191.527142 137.344005 
L 191.63785 126.731637 
L 191.689632 129.191713 
L 191.837837 151.964348 
L 192.032467 216.432641 
L 192.212813 261.943717 
L 192.236026 252.323866 
L 192.330662 101.247783 
L 192.443155 151.568622 
L 192.657427 207.654265 
L 193.137754 246.359182 
L 193.235962 254.403456 
L 193.266317 247.960067 
L 193.464518 114.408105 
L 193.578797 143.37223 
L 193.637722 150.489896 
L 193.698432 145.887876 
L 193.910918 131.782207 
L 193.926989 131.852317 
L 193.994842 133.382985 
L 194.189472 144.295606 
L 194.350176 150.79505 
L 194.391245 150.080871 
L 194.484096 142.773661 
L 194.626944 130.582055 
L 194.682298 132.651682 
L 194.830502 151.272569 
L 195.016205 201.35648 
L 195.210835 254.595691 
L 195.237619 247.342975 
L 195.351898 110.658167 
L 195.491174 150.252321 
L 195.73223 198.53078 
L 196.448256 251.834393 
L 196.480397 244.896684 
L 196.68217 116.91632 
L 196.789306 141.680934 
L 196.858944 150.425225 
L 196.919654 146.481113 
L 197.130355 134.099426 
L 197.149997 134.178097 
L 197.223206 135.753835 
L 197.44105 146.789444 
L 197.614253 152.615956 
L 197.65175 152.20763 
L 197.74103 147.624834 
L 197.926733 134.798043 
L 197.989229 136.754806 
L 198.144576 152.860585 
L 198.335635 193.872651 
L 198.521338 247.213203 
L 198.567763 236.775409 
L 198.70704 120.995535 
L 198.84096 140.890453 
L 199.207008 191.971996 
L 199.371283 198.54898 
L 200.09088 248.630468 
L 200.130163 238.85446 
L 200.333722 119.93991 
L 200.414074 135.380188 
L 200.514067 150.499535 
L 200.569421 147.764299 
L 200.785478 136.819692 
L 200.810477 136.933256 
L 200.8944 138.746032 
L 201.328301 154.728877 
L 201.43008 152.647564 
L 201.690778 139.41961 
L 201.783629 142.515785 
L 201.992544 162.632716 
L 202.165747 198.324329 
L 202.312166 240.098336 
L 202.36752 230.059552 
L 202.565722 132.388745 
L 202.70857 142.116237 
L 202.96391 174.85675 
L 203.190682 192.09703 
L 203.21568 192.215333 
L 203.265677 191.798984 
L 203.39424 187.921051 
L 203.533517 183.970262 
L 203.581728 184.864561 
L 203.69065 193.371869 
L 204.110266 226.003006 
L 204.424531 244.436289 
L 204.447744 241.812301 
L 204.515597 195.085188 
L 204.678086 123.762326 
L 204.703085 125.462291 
L 204.86736 150.805011 
L 204.967354 145.712225 
L 205.136986 140.157482 
L 205.160198 140.248053 
L 205.244122 141.743882 
L 205.519104 152.118836 
L 205.758374 157.246085 
L 205.767302 157.238977 
L 205.813728 156.914115 
L 205.924435 154.158632 
L 206.195846 144.318653 
L 206.265485 145.616646 
L 206.426189 155.645953 
L 206.688672 184.141335 
L 206.877946 230.824186 
L 206.954726 214.595473 
L 207.254707 144.575451 
L 207.260064 144.584282 
L 207.302918 145.162281 
L 207.495763 151.740719 
L 207.756461 167.325793 
L 208.120723 206.337802 
L 208.315354 221.939676 
L 208.352851 219.22431 
L 208.42249 187.132455 
L 208.565338 136.384551 
L 208.602835 137.479916 
L 208.802822 152.971726 
L 209.247437 186.73436 
L 209.268864 186.757999 
L 209.31529 186.612127 
L 209.470637 185.758267 
L 209.527776 186.073652 
L 209.62777 188.52915 
L 209.86704 201.95171 
L 210.50807 237.892205 
L 210.531283 235.716767 
L 210.599136 198.077761 
L 210.781267 129.49019 
L 210.799123 130.142552 
L 210.897331 145.13428 
L 210.988397 151.658817 
L 211.041965 150.381124 
L 211.247309 144.962615 
L 211.284806 145.120442 
L 211.391942 146.969348 
L 211.99369 160.52965 
L 212.047258 160.357445 
L 212.157965 158.92591 
L 212.374022 152.523554 
L 212.532941 148.855518 
L 212.575795 149.273536 
L 212.684717 153.635935 
L 213.106118 182.921152 
L 213.318605 216.916569 
L 213.397171 205.999801 
L 213.686438 165.17604 
L 213.956064 154.551772 
L 214.043558 153.875125 
L 214.095341 154.118462 
L 214.206048 156.224275 
L 214.736371 174.087366 
L 214.961357 185.845123 
L 215.205984 208.416476 
L 215.282765 203.0992 
L 215.723808 161.640038 
L 215.973792 156.226806 
L 216.013075 156.12008 
L 216.064858 156.324 
L 216.173779 158.079213 
L 216.90409 178.202131 
L 217.109434 188.811257 
L 217.327277 204.42304 
L 217.389773 201.777298 
L 218.048659 157.582308 
L 218.200435 155.023046 
L 218.239718 155.239297 
L 218.337926 157.621186 
L 219.337862 196.980296 
L 219.453926 203.283089 
L 219.502138 201.794314 
L 219.698554 183.291084 
L 220.059245 162.63907 
L 220.330656 152.787029 
L 220.362797 153.029558 
L 220.453862 156.166874 
L 220.916333 173.565849 
L 221.196672 182.902413 
L 221.498438 202.954188 
L 221.593075 197.962258 
L 222.039475 166.579467 
L 222.369811 151.186736 
L 222.421594 152.001664 
L 222.571584 160.261381 
L 222.88585 172.533581 
L 223.205472 183.722025 
L 223.487597 202.651296 
L 223.573306 198.588128 
L 224.089344 163.499499 
L 224.353613 150.086686 
L 224.401824 150.905114 
L 224.548243 159.656621 
L 224.857152 172.617384 
L 225.173203 184.356456 
L 225.442829 202.319542 
L 225.521395 198.869104 
L 226.217779 151.823159 
L 226.303488 149.218503 
L 226.35527 150.25749 
L 226.530259 161.627169 
L 226.83024 173.607046 
L 227.110579 184.74055 
L 227.371277 201.966518 
L 227.446272 198.936305 
L 228.228365 148.444984 
L 228.231936 148.444123 
L 228.248006 148.577988 
L 228.315859 151.384626 
L 228.806899 175.445717 
L 229.044384 186.23584 
L 229.280083 201.585116 
L 229.34615 199.29606 
L 230.138957 147.694297 
L 230.20681 149.737916 
L 231.172819 201.167798 
L 231.199603 200.788766 
L 231.292454 194.90453 
L 231.688858 170.660174 
L 232.035264 146.941671 
L 232.137043 151.691826 
L 232.517376 173.30122 
L 232.817357 186.173054 
L 233.05127 200.713972 
L 233.113766 198.866842 
L 233.779795 154.800225 
L 233.919072 146.176283 
L 233.965498 147.418436 
L 234.174413 163.98068 
L 234.474394 176.099334 
L 234.711878 188.030146 
L 234.919008 200.230799 
L 234.972576 198.930274 
L 235.235059 181.269973 
L 235.667174 153.337189 
L 235.792166 145.39921 
L 235.842163 146.925624 
L 236.777818 199.730017 
L 236.824243 198.791025 
L 236.983162 188.174834 
L 237.658118 144.618475 
L 237.700973 145.880929 
L 237.911674 164.444792 
L 238.209869 177.070753 
L 238.454496 190.453175 
L 238.627699 199.225951 
L 238.674125 198.395192 
L 238.82233 189.103488 
L 239.516928 143.843664 
L 239.565139 145.582722 
L 240.432941 198.122078 
L 240.47401 198.732546 
L 240.527578 197.678859 
L 240.709709 186.479231 
L 241.368595 143.082907 
L 241.450733 147.96235 
L 241.811424 174.19498 
L 242.138189 190.31694 
L 242.314963 198.261058 
L 242.357818 197.630773 
L 242.486381 190.643202 
L 243.216691 142.338789 
L 243.280973 145.761657 
L 243.702374 176.39661 
L 244.011283 192.583811 
L 244.152346 197.818216 
L 244.196986 197.192078 
L 244.327334 190.368042 
L 245.05943 141.606732 
L 245.134426 146.416927 
L 245.495117 175.055662 
L 245.987942 197.403591 
L 246.093293 194.298261 
L 246.764678 152.896232 
L 246.898598 140.868968 
L 246.950381 143.509325 
L 247.43785 179.991418 
L 247.819968 197.005712 
L 247.896749 195.330302 
L 248.441357 168.173465 
L 248.644915 146.719496 
L 248.73241 140.092918 
L 248.784192 142.84194 
L 249.262733 180.357312 
L 249.646637 196.599702 
L 249.716275 195.290293 
L 250.005542 180.626819 
L 250.350163 161.66007 
L 250.56265 139.231143 
L 250.632288 144.327645 
L 250.987622 176.726312 
L 251.467949 196.143829 
L 251.523302 195.347264 
L 251.67865 187.738616 
L 252.27504 149.210749 
L 252.387533 138.221934 
L 252.439315 141.330387 
L 252.894643 181.288173 
L 253.278547 195.587585 
L 253.323187 195.137582 
L 253.439251 190.435136 
L 254.080282 150.935376 
L 254.208845 136.993512 
L 254.260627 140.519337 
L 254.694528 181.820563 
L 255.076646 194.898983 
L 255.096288 194.822089 
L 255.165926 193.344407 
L 255.615898 174.367701 
L 255.812314 161.105441 
L 256.021229 135.47749 
L 256.094438 142.552079 
L 256.424774 179.75142 
L 256.794394 193.716008 
L 256.849747 194.133649 
L 256.903315 193.701739 
L 257.024736 189.928269 
L 257.612198 160.881435 
L 257.822899 133.644145 
L 257.896109 141.445244 
L 258.233587 183.129757 
L 258.513926 193.152387 
L 258.579994 193.568951 
L 258.633562 193.275536 
L 258.74784 190.810076 
L 259.215667 172.905649 
L 259.40137 158.391259 
L 259.597786 131.587926 
L 259.667424 138.816356 
L 260.054899 190.601955 
L 260.233459 193.914167 
L 260.242387 193.907544 
L 260.295955 193.629206 
L 260.426304 191.500131 
L 260.699501 182.518049 
L 261.028051 165.689584 
L 261.21911 140.093457 
L 261.317318 129.772243 
L 261.369101 133.426063 
L 261.535162 171.852798 
L 261.747648 196.200746 
L 261.794074 196.562493 
L 261.854784 196.180715 
L 262.03513 192.877711 
L 262.283328 184.331902 
L 262.563667 165.995706 
L 262.936858 128.316153 
L 263.008282 135.367641 
L 263.251123 204.698146 
L 263.3904 200.574507 
L 263.635027 186.099014 
L 264.090355 153.432607 
L 264.156422 153.085883 
L 264.20999 153.33245 
L 264.31177 155.286037 
L 264.463546 163.454267 
L 264.599251 171.360826 
L 264.649248 169.221482 
L 264.793882 146.29954 
L 265.031366 127.379638 
L 265.418842 104.918026 
L 265.447411 108.959279 
L 265.540262 174.929395 
L 265.677754 221.309553 
L 265.713466 218.411751 
L 265.870598 196.112275 
L 265.947379 199.255729 
L 266.143795 205.949777 
L 266.165222 205.884999 
L 266.242003 204.73444 
L 266.468774 196.983473 
L 266.768755 189.784497 
L 266.779469 189.788104 
L 266.802682 189.881907 
L 266.883034 191.1687 
L 267.056237 198.494756 
L 267.211584 203.664921 
L 267.256224 203.104207 
L 267.366931 197.370905 
L 267.625843 170.76977 
L 267.777619 126.310873 
L 267.847258 109.707759 
L 267.900826 120.36552 
L 268.159738 208.652112 
L 268.245446 205.888229 
L 268.497216 187.755632 
L 269.12039 132.528049 
L 269.247168 111.20795 
L 269.288237 103.439375 
L 269.322163 119.06645 
L 269.409658 239.212545 
L 269.495366 193.342145 
L 269.702496 130.838961 
L 269.986406 109.355597 
L 270.111398 100.169218 
L 270.145325 107.080541 
L 270.357811 225.521018 
L 270.461376 205.412433 
L 270.541728 196.513546 
L 270.598867 199.306937 
L 270.81671 209.543719 
L 270.838138 209.457078 
L 270.916704 207.966365 
L 271.155974 197.826724 
L 271.357747 192.376552 
L 271.386317 192.534325 
L 271.463098 194.653277 
L 271.718438 208.714522 
L 271.81129 205.370917 
L 272.009491 184.272669 
L 272.171981 144.508142 
L 272.311258 101.557406 
L 272.36304 111.946199 
L 272.529101 220.999284 
L 272.67552 205.314969 
L 273.079066 156.182651 
L 273.12192 156.269345 
L 273.143347 156.294923 
L 273.179059 156.129719 
L 273.250483 154.302512 
L 273.411187 142.424999 
L 274.039718 96.541514 
L 274.046861 96.84306 
L 274.082573 109.965689 
L 274.277203 228.840984 
L 274.341485 216.83639 
L 274.453978 196.641541 
L 274.509331 199.883805 
L 274.72896 212.46516 
L 274.750387 212.37405 
L 274.827168 210.703863 
L 275.059296 199.187504 
L 275.209286 194.558183 
L 275.250355 195.055087 
L 275.341421 200.260738 
L 275.519981 213.444053 
L 275.578906 211.429727 
L 275.728896 194.631254 
L 275.909242 150.899083 
L 276.09673 94.440924 
L 276.136013 105.647121 
L 276.257434 232.40084 
L 276.378854 206.307701 
L 276.682406 149.88352 
L 276.98953 125.769168 
L 277.427002 93.697829 
L 277.443072 95.342869 
L 277.494854 132.434408 
L 277.657344 231.53928 
L 277.69127 227.309023 
L 277.830547 196.60611 
L 277.903757 202.445976 
L 278.10553 214.900358 
L 278.119814 214.857118 
L 278.180525 213.697459 
L 278.348371 205.048909 
L 278.543002 196.404397 
L 278.58407 197.164185 
L 278.676922 204.999046 
L 278.816198 217.675603 
L 278.869766 215.48638 
L 279.0144 195.804482 
L 279.19296 142.137184 
L 279.385805 86.82366 
L 279.410803 95.482872 
L 279.512582 242.561858 
L 279.634003 196.188361 
L 279.857203 141.771721 
L 280.467878 91.375926 
L 280.476806 91.742088 
L 280.512518 107.263622 
L 280.69465 233.817567 
L 280.757146 220.25285 
L 280.866067 196.464545 
L 280.921421 200.892207 
L 281.14105 217.008702 
L 281.15712 216.938 
L 281.223187 215.358923 
L 281.407104 204.127632 
L 281.54281 198.015298 
L 281.58745 199.211897 
L 281.685658 210.907621 
L 281.789222 221.500604 
L 281.844576 218.644157 
L 281.994566 193.066715 
L 282.330259 85.886176 
L 282.357043 79.668408 
L 282.387398 102.150266 
L 282.464179 251.698159 
L 282.549888 204.861143 
L 282.762374 132.882096 
L 283.144493 98.541947 
L 283.246272 91.145458 
L 283.269485 89.435801 
L 283.29984 96.752057 
L 283.492685 235.787846 
L 283.598035 205.60693 
L 283.660531 196.242747 
L 283.721242 201.905132 
L 283.935514 218.874463 
L 283.948013 218.827454 
L 284.005152 217.540445 
L 284.160499 207.716836 
L 284.308704 199.448395 
L 284.35513 201.037972 
L 284.46048 217.147843 
L 284.537261 224.996436 
L 284.592614 221.361785 
L 284.746176 189.439873 
L 285.115795 73.42264 
L 285.142579 100.698539 
L 285.208646 259.838281 
L 285.288998 194.658447 
L 285.478272 122.31146 
L 285.769325 96.525359 
L 285.862176 89.789041 
L 285.887174 87.800992 
L 285.91753 95.251867 
L 286.106803 237.515273 
L 286.213939 205.385402 
L 286.27465 195.961179 
L 286.333574 201.962802 
L 286.549632 220.546965 
L 286.560346 220.504856 
L 286.615699 219.199486 
L 286.763904 209.068676 
L 286.89961 200.738688 
L 286.946035 202.730614 
L 287.062099 223.900263 
L 287.112096 228.212584 
L 287.169235 223.61444 
L 287.326368 184.458228 
L 287.731699 68.755141 
L 287.742413 72.332767 
L 287.783482 203.238072 
L 287.815622 266.008663 
L 287.888832 180.165023 
L 288.062035 108.642118 
L 288.287021 92.898194 
L 288.356659 86.425189 
L 288.385229 93.296665 
L 288.574502 239.039156 
L 288.686995 203.486309 
L 288.740563 195.628347 
L 288.801274 202.43316 
L 289.015546 222.056094 
L 289.024474 222.02314 
L 289.07447 220.875327 
L 289.210176 211.289023 
L 289.345882 201.90777 
L 289.394093 204.470587 
L 289.545869 231.18281 
L 289.633363 219.937843 
L 289.811923 156.966832 
L 289.960128 120.967589 
L 289.99584 121.836364 
L 290.083334 130.389281 
L 290.177971 168.991645 
L 290.231539 194.290507 
L 290.277965 163.338711 
L 290.438669 102.084572 
L 290.697581 88.923712 
L 290.736864 85.231391 
L 290.767219 93.242818 
L 290.952922 240.406344 
L 291.054701 207.035557 
L 291.117197 195.251792 
L 291.177907 202.297411 
L 291.392179 223.444228 
L 291.402893 223.405781 
L 291.454675 222.074941 
L 291.592166 211.302808 
L 291.70823 202.986766 
L 291.754656 205.905945 
L 291.895718 233.973186 
L 291.979642 222.17779 
L 292.159987 152.513053 
L 292.270694 125.121652 
L 292.320691 128.433595 
L 292.426042 155.189488 
L 292.499251 177.570834 
L 292.547462 159.403214 
L 292.73495 105.086031 
L 293.05993 84.227674 
L 293.083142 88.355621 
L 293.154566 168.058883 
L 293.275987 241.641066 
L 293.317056 232.699155 
L 293.440262 194.824728 
L 293.502758 202.865986 
L 293.715245 224.732152 
L 293.724173 224.698444 
L 293.772384 223.461621 
L 293.900947 213.016612 
L 294.015226 203.992529 
L 294.061651 207.301295 
L 294.195571 236.621405 
L 294.275923 223.840654 
L 294.465197 144.555635 
L 294.543763 128.053001 
L 294.600902 133.474418 
L 294.745536 169.998911 
L 294.804461 150.483434 
L 294.990163 105.390269 
L 295.32407 83.388192 
L 295.343712 86.023487 
L 295.399066 141.267763 
L 295.540128 242.74817 
L 295.57584 235.474454 
L 295.704403 194.360132 
L 295.77047 203.674937 
L 295.979386 225.920566 
L 295.986528 225.896927 
L 296.031168 224.7958 
L 296.150803 214.895673 
L 296.266867 204.925167 
L 296.313293 208.816724 
L 296.438285 239.122081 
L 296.515066 225.992237 
L 296.768621 130.290955 
L 296.884685 152.007749 
L 296.948966 164.995436 
L 296.997178 153.595818 
L 297.215021 103.427528 
L 297.534643 82.69679 
L 297.548928 83.994514 
L 297.593568 119.126759 
L 297.748915 243.740579 
L 297.789984 234.58974 
L 297.914976 193.860427 
L 297.977472 202.976481 
L 298.189958 227.0141 
L 298.197101 226.988361 
L 298.241741 225.809748 
L 298.361376 215.154356 
L 298.464941 205.789312 
L 298.511366 210.0249 
L 298.629216 241.474678 
L 298.705997 227.278868 
L 298.945267 132.060114 
L 299.055974 152.551662 
L 299.109542 161.208074 
L 299.157754 150.476057 
L 299.380954 102.176113 
L 299.697005 82.150238 
L 299.705933 82.691405 
L 299.741645 102.521814 
L 299.911277 244.614524 
L 299.968416 227.577183 
L 300.075552 193.325776 
L 300.132691 201.343233 
L 300.35232 228.017656 
L 300.361248 227.976732 
L 300.411245 226.369923 
L 300.543379 212.835684 
L 300.618374 206.586254 
L 300.663014 211.236145 
L 300.775507 243.692655 
L 300.848717 229.217916 
L 301.079059 133.486157 
L 301.187981 153.189808 
L 301.227264 158.131929 
L 301.275475 148.442454 
L 301.507603 100.541842 
L 301.814726 81.739382 
L 301.818298 81.805076 
L 301.843296 88.578549 
L 302.028998 245.388312 
L 302.143277 202.50537 
L 302.195059 192.759246 
L 302.253984 201.61344 
L 302.471827 228.936294 
L 302.47897 228.909908 
L 302.521824 227.687571 
L 302.636102 216.439803 
L 302.728954 207.321703 
L 302.773594 212.496068 
L 302.88073 245.777091 
L 302.952154 230.63572 
L 303.173568 134.651201 
L 303.280704 152.955733 
L 303.309274 155.530073 
L 303.353914 147.409605 
L 303.602112 98.358327 
L 303.893165 81.471222 
L 303.89495 81.456683 
L 303.905664 82.192778 
L 303.943162 105.238419 
L 304.109222 246.058713 
L 304.161005 231.548435 
L 304.277069 192.163855 
L 304.334208 201.033934 
L 304.553837 229.773622 
L 304.560979 229.747775 
L 304.602048 228.561515 
L 304.712755 217.308794 
L 304.802035 207.99835 
L 304.846675 213.467907 
L 304.95024 247.7366 
L 305.021664 231.235581 
L 305.232365 135.611032 
L 305.339501 152.225669 
L 305.357357 153.27198 
L 305.398426 146.733281 
L 305.668051 95.783341 
L 305.939462 81.312372 
L 305.941248 81.29514 
L 305.951962 81.992465 
L 305.989459 104.62025 
L 306.157306 246.63165 
L 306.209088 231.577512 
L 306.325152 191.541647 
L 306.382291 200.603908 
L 306.603706 230.53341 
L 306.610848 230.502717 
L 306.653702 229.135529 
L 306.767981 216.510666 
L 306.844762 208.618835 
L 306.889402 214.864657 
L 306.98761 249.573876 
L 307.057248 232.656616 
L 307.262592 136.40512 
L 307.369728 151.121742 
L 307.37687 151.277954 
L 307.40544 148.157224 
L 307.780416 88.491855 
L 307.958976 81.249909 
L 307.980403 84.767764 
L 308.042899 153.848955 
L 308.175034 247.11897 
L 308.212531 238.645531 
L 308.344666 190.892893 
L 308.408947 202.065328 
L 308.623219 231.218888 
L 308.628576 231.207042 
L 308.662502 230.365944 
L 308.758925 220.926913 
L 308.858918 209.186441 
L 308.903558 216.062171 
L 308.998195 251.296456 
L 309.066048 233.762104 
L 309.266035 137.065937 
L 309.374957 149.421455 
L 309.408883 144.039615 
L 309.699936 92.458798 
L 309.899923 85.300315 
L 309.94992 81.313987 
L 309.976704 86.694965 
L 310.058842 184.31117 
L 310.167763 247.516902 
L 310.214189 235.234294 
L 310.340966 190.217807 
L 310.398106 200.161874 
L 310.61952 231.832749 
L 310.624877 231.81821 
L 310.660589 230.838186 
L 310.758797 220.427262 
L 310.848077 209.700846 
L 310.892717 216.935684 
L 310.983782 252.903265 
L 311.051635 234.574662 
L 311.246266 137.613673 
L 311.358758 146.89127 
L 311.433754 123.563468 
L 311.624813 95.781726 
L 311.835514 86.554961 
L 311.881939 84.394062 
L 311.919437 81.487376 
L 311.948006 87.454753 
L 312.040858 196.594263 
L 312.139066 247.829756 
L 312.189062 233.911262 
L 312.314054 189.514505 
L 312.371194 199.620007 
L 312.594394 232.376609 
L 312.59975 232.359916 
L 312.637248 231.236119 
L 312.739027 219.550733 
L 312.817594 210.167488 
L 312.860448 217.469798 
L 312.949728 254.404533 
L 313.017581 234.991442 
L 313.206854 138.065884 
L 313.322918 143.606197 
L 313.705037 87.056281 
L 313.871098 81.760921 
L 313.892525 84.803842 
L 313.949664 142.996913 
L 314.092512 248.059685 
L 314.128224 240.269033 
L 314.269286 188.787295 
L 314.333568 201.157998 
L 314.551411 232.85262 
L 314.553197 232.849928 
L 314.578195 232.38307 
L 314.654976 225.757839 
L 314.769254 210.585614 
L 314.813894 219.183386 
L 314.899603 255.800259 
L 314.963885 236.509941 
L 315.281722 136.412013 
L 315.520992 93.871218 
L 315.674554 86.603963 
L 315.713837 86.703042 
L 315.73705 86.429497 
L 315.806688 82.137315 
L 315.831686 86.398804 
L 315.899539 161.809012 
L 316.029888 248.21315 
L 316.069171 239.119389 
L 316.208448 188.035854 
L 316.270944 199.825596 
L 316.492358 233.2624 
L 316.494144 233.261323 
L 316.515571 232.921007 
L 316.58521 227.42318 
L 316.704845 210.955223 
L 316.75127 220.281766 
L 316.833408 257.094214 
L 316.89769 237.174957 
L 317.222669 129.2951 
L 317.428013 94.791471 
L 317.590502 86.651348 
L 317.628 86.848969 
L 317.638714 86.878585 
L 317.665498 86.51673 
L 317.729779 82.612788 
L 317.754778 86.852738 
L 317.82263 161.059616 
L 317.954765 248.287998 
L 317.992262 240.098875 
L 318.136896 187.256465 
L 318.201178 199.939753 
L 318.422592 233.607023 
L 318.438662 233.429327 
L 318.497587 229.622849 
L 318.631507 211.280246 
L 318.677933 221.815235 
L 318.756499 258.284781 
L 318.818995 238.34237 
L 319.156474 121.114485 
L 319.349318 93.64452 
L 319.495738 86.77089 
L 319.538592 87.07782 
L 319.554662 87.156976 
L 319.586803 86.561962 
L 319.642157 83.183571 
L 319.667155 87.149438 
L 319.733222 157.030802 
L 319.870714 248.282613 
L 319.906426 240.642196 
L 320.056416 186.455861 
L 320.120698 199.660338 
L 320.342112 233.88703 
L 320.354611 233.790105 
L 320.406394 230.951266 
L 320.547456 211.557722 
L 320.595667 223.420859 
L 320.670662 259.375731 
L 320.733158 238.634223 
L 321.067066 118.647516 
L 321.25991 92.872885 
L 321.395616 86.962587 
L 321.440256 87.371828 
L 321.463469 87.536601 
L 321.497395 86.790275 
L 321.547392 83.850741 
L 321.574176 88.361544 
L 321.6456 164.90998 
L 321.777734 248.209381 
L 321.815232 240.40419 
L 321.967008 185.622195 
L 322.03129 198.706 
L 322.25449 234.101882 
L 322.256275 234.104036 
L 322.27056 233.958647 
L 322.325914 230.472024 
L 322.456262 211.792228 
L 322.502688 222.718364 
L 322.579469 260.362217 
L 322.641965 238.394064 
L 322.96873 117.425717 
L 323.16336 92.365104 
L 323.288352 87.226439 
L 323.334778 87.707297 
L 323.365133 88.015843 
L 323.40263 87.115514 
L 323.44727 84.611606 
L 323.474054 88.823555 
L 323.541907 158.541386 
L 323.681184 248.058608 
L 323.716896 241.031513 
L 323.874029 184.764674 
L 323.940096 198.506279 
L 324.163296 234.25427 
L 324.165082 234.258039 
L 324.182938 234.037803 
L 324.243648 229.546924 
L 324.363283 211.981717 
L 324.406138 222.085011 
L 324.482918 261.262008 
L 324.5472 237.982669 
L 324.866822 116.462386 
L 325.061453 92.14756 
L 325.179302 87.562986 
L 325.227514 88.119231 
L 325.265011 88.593627 
L 325.304294 87.583448 
L 325.343578 85.467781 
L 325.372147 89.673807 
L 325.44 157.608478 
L 325.582848 247.83191 
L 325.616774 241.394445 
L 325.779264 183.878398 
L 325.847117 198.29622 
L 326.068531 234.332887 
L 326.073888 234.348503 
L 326.097101 233.919339 
L 326.168525 227.096326 
L 326.266733 212.127482 
L 326.309587 222.089641 
L 326.386368 262.057335 
L 326.448864 238.853921 
L 326.770272 113.939093 
L 326.966688 91.524006 
L 327.070253 87.970612 
L 327.122035 88.643166 
L 327.16489 89.268874 
L 327.205958 88.142923 
L 327.24167 86.413343 
L 327.27024 90.662985 
L 327.339878 158.958757 
L 327.482726 247.530903 
L 327.518438 241.127361 
L 327.686285 182.961106 
L 327.752352 197.26908 
L 327.975552 234.34958 
L 327.980909 234.375965 
L 328.009478 233.776643 
L 328.086259 225.421292 
L 328.171968 212.230546 
L 328.214822 222.406318 
L 328.289818 262.757891 
L 328.354099 238.27183 
L 328.668365 113.492698 
L 328.862995 91.727011 
L 328.962989 88.450393 
L 329.014771 89.155256 
L 329.066554 90.041585 
L 329.109408 88.835402 
L 329.141549 87.455291 
L 329.170118 91.569238 
L 329.237971 155.308276 
L 329.387962 247.161509 
L 329.420102 241.663144 
L 329.595091 182.009999 
L 329.66473 197.520978 
L 329.886144 234.30381 
L 329.893286 234.340964 
L 329.921856 233.69641 
L 330.000422 224.754337 
L 330.08256 212.287463 
L 330.121843 221.742918 
L 330.198624 263.355059 
L 330.26112 238.758611 
L 330.575386 111.93866 
L 330.771802 91.545007 
L 330.861082 89.001791 
L 330.91465 89.797656 
L 330.973574 90.91176 
L 331.018214 89.608113 
L 331.044998 88.588242 
L 331.073568 92.2111 
L 331.13785 148.239772 
L 331.296768 246.715652 
L 331.327123 241.976536 
L 331.509254 181.024536 
L 331.582464 197.659474 
L 331.802093 234.186961 
L 331.811021 234.240808 
L 331.843162 233.391095 
L 331.927085 222.762304 
L 331.996723 212.297425 
L 332.037792 222.559191 
L 332.111002 263.855841 
L 332.175283 238.584145 
L 332.487763 110.855787 
L 332.684179 91.676933 
L 332.764531 89.624806 
L 332.819885 90.472904 
L 332.885952 91.881553 
L 332.932378 90.596214 
L 332.95559 89.816503 
L 332.98416 92.994042 
L 333.04487 141.371796 
L 333.212717 246.195485 
L 333.241286 242.280774 
L 333.432346 179.99928 
L 333.510912 198.60132 
L 333.728755 234.033495 
L 333.735898 234.076573 
L 333.766253 233.351786 
L 333.846605 223.598232 
L 333.919814 212.265924 
L 333.960883 222.544814 
L 334.034093 264.264543 
L 334.098374 238.213136 
L 334.405498 110.7314 
L 334.601914 92.106636 
L 334.678694 90.319977 
L 334.732262 91.154074 
L 334.809043 92.950964 
L 334.857254 91.664548 
L 334.876896 91.139535 
L 334.905466 94.17384 
L 334.966176 139.940315 
L 335.139379 245.598855 
L 335.167949 241.863995 
L 335.36615 178.930462 
L 335.446502 198.257235 
L 335.66256 233.76372 
L 335.673274 233.846106 
L 335.7072 232.887621 
L 335.792909 221.391186 
L 335.855405 212.187145 
L 335.894688 222.163951 
L 335.967898 264.565012 
L 336.032179 238.213675 
L 336.337517 110.14877 
L 336.533933 92.527185 
L 336.603571 91.087842 
L 336.658925 91.967709 
L 336.744634 94.122685 
L 336.796416 92.809345 
L 336.808915 92.559493 
L 336.835699 94.687007 
L 336.891053 129.305331 
L 337.078541 244.922531 
L 337.110682 240.581348 
L 337.31424 177.811899 
L 337.38745 195.035917 
L 337.61065 233.422327 
L 337.623149 233.54833 
L 337.660646 232.406763 
L 337.751712 219.334859 
L 337.803494 212.061734 
L 337.844563 222.862245 
L 337.915987 264.762632 
L 337.980269 238.091979 
L 338.283821 109.73199 
L 338.478451 93.136738 
L 338.542733 91.928939 
L 338.598086 92.787268 
L 338.694509 95.39887 
L 338.753434 94.103839 
L 338.757005 94.076376 
L 338.776646 94.955167 
L 338.821286 112.385055 
L 339.035558 244.169744 
L 339.090912 232.258144 
L 339.2784 176.634287 
L 339.328397 186.084906 
L 339.583738 233.14232 
L 339.59088 233.18109 
L 339.61945 232.51015 
L 339.69623 223.333733 
L 339.76944 211.888238 
L 339.808723 221.933807 
L 339.881933 264.857942 
L 339.946214 237.440963 
L 340.246195 109.69699 
L 340.43904 93.890064 
L 340.49975 92.844885 
L 340.555104 93.685444 
L 340.769376 102.511583 
L 340.876512 190.539977 
L 341.008646 243.3378 
L 341.049715 236.985952 
L 341.262202 175.387233 
L 341.322912 188.371539 
L 341.562182 232.549998 
L 341.578253 232.742771 
L 341.617536 231.445586 
L 341.712173 217.247784 
L 341.755027 211.66644 
L 341.79431 221.648846 
L 341.86752 264.840711 
L 341.931802 237.180342 
L 342.231782 109.280749 
L 342.424627 94.603543 
L 342.478195 93.836217 
L 342.531763 94.625082 
L 342.758534 103.973003 
L 342.860314 183.831282 
L 343.004947 242.418624 
L 343.042445 237.439886 
L 343.269216 174.057852 
L 343.337069 189.460766 
L 343.567411 231.888751 
L 343.588838 232.230682 
L 343.633478 230.551718 
L 343.745971 212.79336 
L 343.765613 211.39478 
L 343.799539 219.180316 
L 343.87632 264.711477 
L 343.942387 236.014005 
L 344.237011 109.771299 
L 344.42807 95.594875 
L 344.479853 94.904551 
L 344.533421 95.666492 
L 344.770906 104.95572 
L 344.861971 171.381536 
L 345.028032 241.417061 
L 345.054816 238.882999 
L 345.3048 172.616167 
L 345.392294 195.40655 
L 345.608352 231.391738 
L 345.626208 231.641591 
L 345.669062 230.137092 
L 345.770842 214.320528 
L 345.801197 211.06631 
L 345.84048 221.119525 
L 345.91369 264.461087 
L 345.976186 237.663892 
L 346.277952 109.01205 
L 346.469011 96.452127 
L 346.508294 96.05204 
L 346.561862 96.759596 
L 346.811846 106.099978 
L 346.893984 160.057407 
L 347.079686 240.320188 
L 347.101114 238.869537 
L 347.243962 202.35002 
L 347.370739 171.038237 
L 347.43145 184.476536 
L 347.67072 230.518332 
L 347.695718 230.971728 
L 347.742144 229.165145 
L 347.868922 210.686524 
L 347.913562 223.764298 
L 347.981414 264.094385 
L 348.04391 237.650969 
L 348.347462 108.977049 
L 348.536736 97.547923 
L 348.570662 97.280839 
L 348.620659 97.900624 
L 348.883142 106.889382 
L 348.956352 147.171761 
L 349.167053 239.130159 
L 349.183123 238.277215 
L 349.268832 217.076657 
L 349.474176 169.266903 
L 349.524173 179.544161 
L 349.777728 229.845777 
L 349.800941 230.216787 
L 349.845581 228.527591 
L 349.974144 210.242928 
L 350.016998 222.895738 
L 350.084851 263.59145 
L 350.147347 237.788818 
L 350.452685 109.180592 
L 350.640173 98.76326 
L 350.666957 98.593641 
L 350.716954 99.159578 
L 350.99015 107.824713 
L 351.054432 134.687709 
L 351.291917 237.837281 
L 351.313344 236.501863 
L 351.491904 199.356693 
L 351.618682 167.222621 
L 351.682963 183.415471 
L 351.91152 228.557207 
L 351.945446 229.372458 
L 351.995443 227.335947 
L 352.11865 209.739777 
L 352.161504 222.097772 
L 352.231142 262.957665 
L 352.293638 236.63002 
L 352.59719 109.786376 
L 352.781107 100.125601 
L 352.806106 99.993675 
L 352.854317 100.50738 
L 352.986451 105.683738 
L 353.179296 118.38851 
L 353.461421 236.435631 
L 353.550701 219.998529 
L 353.809613 164.749838 
L 353.848896 172.091321 
L 354.123878 228.306278 
L 354.136378 228.430127 
L 354.173875 227.354793 
L 354.263155 215.094101 
L 354.309581 209.171579 
L 354.348864 219.228994 
L 354.422074 262.181723 
L 354.486355 235.362451 
L 354.786336 110.77017 
L 354.968467 101.584329 
L 354.99168 101.484173 
L 355.038106 101.948877 
L 355.159526 106.552297 
L 355.389869 122.030861 
L 355.680922 234.915517 
L 355.759488 222.178974 
L 356.055898 161.551082 
L 356.088038 167.08811 
L 356.380877 227.382794 
L 356.402304 227.007154 
L 356.470157 220.578251 
L 356.552294 208.533325 
L 356.591578 218.400713 
L 356.664787 261.2437 
L 356.729069 235.326912 
L 357.032621 111.268259 
L 357.211181 103.119521 
L 357.229037 103.068904 
L 357.270106 103.421605 
L 357.377242 107.064387 
L 357.652224 124.610586 
L 357.957562 233.267784 
L 358.034342 221.646369 
L 358.218259 203.62782 
L 358.277184 191.060789 
L 358.366464 156.874429 
L 358.425389 175.828831 
L 358.637875 225.026967 
L 358.68073 226.214035 
L 358.730726 224.201324 
L 358.852147 207.820223 
L 358.895002 219.529786 
L 358.966426 260.147366 
L 359.028922 235.301603 
L 359.33783 111.805657 
L 359.514605 104.760792 
L 359.523533 104.752715 
L 359.552102 104.921257 
L 359.639597 107.196851 
L 359.964576 124.188852 
L 360.296698 231.478433 
L 360.403834 213.4748 
L 360.491328 204.224719 
L 360.546682 206.359018 
L 360.60025 208.954843 
L 360.639533 205.185843 
L 360.719885 160.274197 
L 360.753811 148.023413 
L 360.81095 172.787644 
L 361.003795 223.920725 
L 361.041293 224.870217 
L 361.09129 222.839252 
L 361.210925 207.027319 
L 361.253779 218.156084 
L 361.326989 258.870642 
L 361.389485 234.520815 
L 361.700179 112.833066 
L 361.873382 106.536143 
L 361.885882 106.553913 
L 361.900166 106.63953 
L 361.976947 108.254416 
L 362.334067 123.700456 
L 362.439418 162.469182 
L 362.694758 229.46023 
L 362.701901 229.535078 
L 362.728685 228.121581 
L 362.910816 200.905454 
L 363.051878 205.349001 
L 363.092947 197.947666 
L 363.148301 133.849196 
L 363.184013 61.49004 
L 363.232224 191.112806 
L 363.285792 247.746293 
L 363.359002 231.89252 
L 363.616128 206.181644 
L 363.621485 206.278408 
L 363.65184 213.143207 
L 363.733978 257.413529 
L 363.800045 231.680899 
L 364.103597 114.602494 
L 364.275014 108.40842 
L 364.301798 108.514499 
L 364.380365 110.102461 
L 364.762483 125.74876 
L 364.860691 154.911366 
L 365.146387 227.153027 
L 365.160672 227.436642 
L 365.19817 224.891972 
L 365.441011 176.325865 
L 365.508864 64.795198 
L 365.521363 53.568 
L 365.566003 151.702272 
L 365.649926 237.578813 
L 365.707066 227.734418 
L 365.814202 216.124472 
L 365.864198 217.438512 
L 365.98919 222.266692 
L 366.040973 220.541527 
L 366.16775 205.173135 
L 366.210605 215.640437 
L 366.2856 255.718949 
L 366.349882 232.530074 
L 366.664147 115.489901 
L 366.823066 110.450854 
L 366.831994 110.465393 
L 366.880205 110.947866 
L 367.005197 114.998812 
L 367.392672 137.117415 
L 367.77479 225.075807 
L 367.833715 219.461723 
L 368.030131 159.673475 
L 368.101555 58.304424 
L 368.151552 147.791761 
L 368.258688 230.059013 
L 368.301542 225.160994 
L 368.449747 208.570049 
L 368.494387 209.605967 
L 368.703302 220.468994 
L 368.776512 217.063411 
L 368.881862 204.048854 
L 368.922931 212.549808 
L 369.003283 253.724977 
L 369.06935 230.435946 
L 369.383616 117.235636 
L 369.533606 112.682832 
L 369.547891 112.713525 
L 369.606816 113.422696 
L 369.755021 118.630285 
L 370.165709 142.523109 
L 370.569254 222.396787 
L 370.608538 220.110531 
L 370.712102 193.440794 
L 370.829952 120.985735 
L 370.874592 65.56414 
L 370.92816 138.279982 
L 371.071008 223.241439 
L 371.092435 222.282415 
L 371.299565 201.538754 
L 371.394202 204.914506 
L 371.628115 218.474538 
L 371.68704 216.433449 
L 371.808461 202.750429 
L 371.851315 211.690133 
L 371.931667 251.370228 
L 371.997734 229.667004 
L 372.320928 118.838137 
L 372.456634 115.152816 
L 372.481632 115.236818 
L 372.560198 116.500618 
L 372.754829 124.132528 
L 373.16016 147.13886 
L 373.594061 219.30675 
L 373.619059 218.54427 
L 373.685126 206.480552 
L 373.831546 129.723026 
L 373.888685 75.036987 
L 373.942253 127.52928 
L 374.122598 216.261299 
L 374.14224 216.870098 
L 374.190451 213.928357 
L 374.431507 194.298207 
L 374.476147 194.962416 
L 374.597568 201.755059 
L 374.842195 216.170943 
L 374.886835 215.099109 
L 374.988614 204.141902 
L 375.024326 201.231069 
L 375.06361 207.829215 
L 375.151104 248.542158 
L 375.220742 226.77631 
L 375.543936 121.29062 
L 375.672499 117.941038 
L 375.701069 118.04981 
L 375.786778 119.476229 
L 376.002835 127.748762 
L 376.468877 152.465237 
L 376.93849 215.666769 
L 376.942061 215.659284 
L 376.968845 214.658313 
L 377.034912 201.463421 
L 377.186688 111.653268 
L 377.231328 87.008357 
L 377.284896 121.374299 
L 377.486669 204.176526 
L 377.575949 211.101957 
L 377.629517 209.018598 
L 377.988422 186.219309 
L 378.043776 187.032029 
L 378.172339 194.078779 
L 378.48839 213.412014 
L 378.53303 212.43242 
L 378.633024 202.655819 
L 378.674093 199.388463 
L 378.715162 205.910091 
L 378.806227 245.044765 
L 378.875866 224.975274 
L 379.207987 123.948046 
L 379.324051 121.196656 
L 379.361549 121.365791 
L 379.465114 123.298053 
L 379.770451 134.746888 
L 380.216851 154.119808 
L 380.761459 211.279115 
L 380.786458 210.739887 
L 380.843597 202.57031 
L 380.970374 139.143372 
L 381.06144 102.198191 
L 381.115008 118.496744 
L 381.364992 190.385704 
L 381.58105 206.089834 
L 381.604262 205.869329 
L 381.693542 202.092521 
L 382.279219 174.985838 
L 382.306003 174.638624 
L 382.354214 175.774612 
L 382.491706 187.505079 
L 382.823827 209.918713 
L 382.827398 209.923074 
L 382.848826 209.731 
L 382.914893 206.394396 
L 383.018458 197.039743 
L 383.061312 203.267096 
L 383.157734 240.48873 
L 383.227373 222.690956 
L 383.575565 127.221488 
L 383.677344 125.1965 
L 383.72377 125.444521 
L 383.84519 127.867281 
L 384.668352 154.148132 
L 384.879053 176.012322 
L 385.191533 200.705195 
L 385.34688 205.992586 
L 385.387949 204.755709 
L 385.455802 192.368314 
L 385.668288 120.481884 
L 385.752211 130.427513 
L 386.109331 181.594619 
L 386.477165 199.000384 
L 386.545018 199.69577 
L 386.5968 199.211627 
L 386.693222 195.139251 
L 386.862854 176.401036 
L 387.009274 134.765303 
L 387.077126 114.613264 
L 387.13248 128.603537 
L 387.386035 188.294214 
L 387.605664 201.626794 
L 387.625306 201.506984 
L 387.703872 199.161065 
L 388.282406 179.322848 
L 388.36633 178.263049 
L 388.418112 178.735098 
L 388.530605 182.951037 
L 388.952006 204.720978 
L 389.018074 203.201941 
L 389.153779 193.454363 
L 389.20199 199.502188 
L 389.305555 233.38948 
L 389.376979 218.806615 
L 389.751955 132.371406 
L 389.83945 131.064044 
L 389.891232 131.357943 
L 390.028723 134.007131 
L 391.15008 165.940459 
L 391.655405 197.061821 
L 391.814323 199.839866 
L 391.857178 199.23812 
L 391.926816 193.350438 
L 392.053594 156.088256 
L 392.182157 138.494402 
L 392.217869 139.082363 
L 392.391072 147.40379 
L 393.267802 190.255824 
L 393.626707 193.073769 
L 393.642778 193.049161 
L 393.69456 192.529372 
L 393.778483 188.824396 
L 393.899904 170.64165 
L 394.12489 144.257213 
L 394.133818 144.283059 
L 394.189171 145.214675 
L 394.39273 153.456246 
L 395.231962 188.672331 
L 395.628365 190.712612 
L 395.708717 190.926763 
L 395.755142 190.77739 
L 395.831923 189.444881 
L 395.935488 182.746309 
L 396.271181 147.893048 
L 396.360461 148.931066 
L 396.594374 155.718324 
L 396.860429 169.865967 
L 397.23719 188.818527 
L 397.433606 189.833767 
L 397.701446 190.701573 
L 397.819296 191.044474 
L 397.863936 190.92224 
L 397.938931 189.81449 
L 398.042496 184.038056 
L 398.404973 149.314244 
L 398.512109 150.288291 
L 398.735309 155.204512 
L 398.924582 164.933242 
L 399.374554 190.58187 
L 399.547757 190.842438 
L 399.690605 191.152276 
L 399.856666 191.621342 
L 399.904877 191.48123 
L 399.981658 190.295617 
L 400.085222 184.363348 
L 400.454842 149.928913 
L 400.549478 150.503412 
L 400.751251 153.620804 
L 400.91017 160.245604 
L 401.147654 182.931706 
L 401.351213 191.172469 
L 401.485133 191.493992 
L 401.502989 191.491138 
L 401.638694 191.576594 
L 401.842253 192.030744 
L 401.897606 191.826554 
L 401.979744 190.309886 
L 402.088666 183.016892 
L 402.456499 150.370839 
L 402.495782 150.468572 
L 402.649344 151.646163 
L 402.793978 154.438262 
L 402.938611 162.792267 
L 403.377869 191.990304 
L 403.436794 192.011574 
L 403.492147 191.969627 
L 403.611782 192.001289 
L 403.62071 192.014913 
L 403.790342 192.310428 
L 403.838554 192.161809 
L 403.91712 190.989172 
L 404.02247 185.124698 
L 404.426016 150.741902 
L 404.499226 150.918414 
L 404.65993 151.995741 
L 404.777779 154.829248 
L 404.918842 165.149224 
L 405.277747 192.297074 
L 405.3456 192.460824 
L 405.40631 192.400138 
L 405.538445 192.322974 
L 405.570586 192.355821 
L 405.713434 192.537826 
L 405.756288 192.423615 
L 405.833069 191.459745 
L 405.934848 186.612773 
L 406.108051 163.76276 
L 406.308038 151.326309 
L 406.384819 151.061272 
L 406.441958 151.121958 
L 406.572307 151.553814 
L 406.670515 152.993642 
L 406.788365 158.979973 
L 407.252621 192.880242 
L 407.30976 192.811263 
L 407.47225 192.636097 
L 407.507962 192.66609 
L 407.616883 192.749231 
L 407.652595 192.667113 
L 407.72759 191.898279 
L 407.827584 187.874742 
L 407.977574 169.814548 
L 408.206131 151.896123 
L 408.361478 151.300247 
L 408.466829 151.344402 
L 408.475757 151.36831 
L 408.550752 151.947063 
L 408.64896 154.981098 
L 408.784666 167.998025 
L 409.07929 193.018791 
L 409.148928 193.30946 
L 409.207853 193.210488 
L 409.397126 192.93172 
L 409.427482 192.94852 
L 409.509619 192.950297 
L 409.534618 192.889342 
L 409.609613 192.212587 
L 409.707821 188.706416 
L 409.848883 173.193378 
L 410.100653 152.339503 
L 410.27207 151.461897 
L 410.37385 151.309239 
L 410.414918 151.411657 
L 410.488128 152.358511 
L 410.589907 157.402027 
L 410.779181 182.237504 
L 410.979168 193.608259 
L 411.029165 193.76614 
L 411.091661 193.628829 
L 411.332717 193.200149 
L 411.411283 193.074093 
L 411.491635 192.25965 
L 411.593414 188.262013 
L 411.746976 170.606251 
L 411.982675 152.774321 
L 412.170163 151.597485 
L 412.282656 151.285008 
L 412.32551 151.427111 
L 412.39872 152.735497 
L 412.50407 159.787524 
L 412.895117 194.258198 
L 412.929043 194.202143 
L 413.343302 192.604273 
L 413.443296 189.27133 
L 413.586144 174.766889 
L 413.853984 153.198047 
L 414.055757 151.714711 
L 414.173606 151.259915 
L 414.218246 151.443427 
L 414.293242 153.157715 
L 414.400378 162.121973 
L 414.718214 194.664424 
L 414.718214 194.664424 
" style="fill:none;stroke:#000000;stroke-linecap:square;stroke-width:1.5;"/>
   </g>
   <g id="patch_3">
    <path d="M 57.6 307.584 
L 57.6 41.472 
" style="fill:none;stroke:#000000;stroke-linecap:square;stroke-linejoin:miter;stroke-width:0.8;"/>
   </g>
   <g id="patch_4">
    <path d="M 414.72 307.584 
L 414.72 41.472 
" style="fill:none;stroke:#000000;stroke-linecap:square;stroke-linejoin:miter;stroke-width:0.8;"/>
   </g>
   <g id="patch_5">
    <path d="M 57.6 307.584 
L 414.72 307.584 
" style="fill:none;stroke:#000000;stroke-linecap:square;stroke-linejoin:miter;stroke-width:0.8;"/>
   </g>
   <g id="patch_6">
    <path d="M 57.6 41.472 
L 414.72 41.472 
" style="fill:none;stroke:#000000;stroke-linecap:square;stroke-linejoin:miter;stroke-width:0.8;"/>
   </g>
   <g id="legend_1">
    <g id="patch_7">
     <path d="M 64.6 64.42825 
L 114.3 64.42825 
Q 116.3 64.42825 116.3 62.42825 
L 116.3 48.472 
Q 116.3 46.472 114.3 46.472 
L 64.6 46.472 
Q 62.6 46.472 62.6 48.472 
L 62.6 62.42825 
Q 62.6 64.42825 64.6 64.42825 
z
" style="fill:#ffffff;opacity:0.8;stroke:#cccccc;stroke-linejoin:miter;"/>
    </g>
    <g id="line2d_30">
     <path d="M 66.6 54.570437 
L 86.6 54.570437 
" style="fill:none;stroke:#000000;stroke-linecap:square;stroke-width:1.5;"/>
    </g>
    <g id="line2d_31"/>
    <g id="text_15">
     <!-- u_2 -->
     <g transform="translate(94.6 58.070437)scale(0.1 -0.1)">
      <defs>
       <path d="M 8.5 21.578125 
L 8.5 54.6875 
L 17.484375 54.6875 
L 17.484375 21.921875 
Q 17.484375 14.15625 20.5 10.265625 
Q 23.53125 6.390625 29.59375 6.390625 
Q 36.859375 6.390625 41.078125 11.03125 
Q 45.3125 15.671875 45.3125 23.6875 
L 45.3125 54.6875 
L 54.296875 54.6875 
L 54.296875 0 
L 45.3125 0 
L 45.3125 8.40625 
Q 42.046875 3.421875 37.71875 1 
Q 33.40625 -1.421875 27.6875 -1.421875 
Q 18.265625 -1.421875 13.375 4.4375 
Q 8.5 10.296875 8.5 21.578125 
z
M 31.109375 56 
z
" id="DejaVuSans-117"/>
       <path d="M 50.984375 -16.609375 
L 50.984375 -23.578125 
L -0.984375 -23.578125 
L -0.984375 -16.609375 
z
" id="DejaVuSans-95"/>
      </defs>
      <use xlink:href="#DejaVuSans-117"/>
      <use x="63.378906" xlink:href="#DejaVuSans-95"/>
      <use x="113.378906" xlink:href="#DejaVuSans-50"/>
     </g>
    </g>
   </g>
  </g>
 </g>
 <defs>
  <clipPath id="p9d9ad95797">
   <rect height="266.112" width="357.12" x="57.6" y="41.472"/>
  </clipPath>
 </defs>
</svg>
